<svg width="1200" height="800" viewBox="0 0 1200 800" fill="none" xmlns="http://www.w3.org/2000/svg">
<g opacity="0.8" clip-path="url(#clip0_25_284)">
<path d="M1017.34 180.983H692.799C676.563 180.983 663.401 194.144 663.401 210.38V296.685C663.401 312.921 676.563 326.083 692.799 326.083H1017.34C1033.58 326.083 1046.74 312.921 1046.74 296.685V210.38C1046.74 194.144 1033.58 180.983 1017.34 180.983Z" fill="white" stroke="#E1E4E5" stroke-width="2.321"/>
<path d="M999.836 224.945H781.653C776.848 224.945 772.953 228.84 772.953 233.645V233.647C772.953 238.452 776.848 242.347 781.653 242.347H999.836C1004.64 242.347 1008.54 238.452 1008.54 233.647V233.645C1008.54 228.84 1004.64 224.945 999.836 224.945Z" fill="url(#paint0_linear_25_284)"/>
<path d="M916.847 263.763H781.653C776.848 263.763 772.953 267.658 772.953 272.463V272.464C772.953 277.269 776.848 281.164 781.653 281.164H916.847C921.652 281.164 925.547 277.269 925.547 272.464V272.463C925.547 267.658 921.652 263.763 916.847 263.763Z" fill="url(#paint1_linear_25_284)"/>
<path fill-rule="evenodd" clip-rule="evenodd" d="M723.097 290.889C702.613 290.889 686.007 274.048 686.007 253.276C686.007 232.504 702.613 215.663 723.097 215.663C743.58 215.663 760.187 232.504 760.187 253.276C760.187 274.048 743.58 290.889 723.097 290.889Z" fill="#A0CECB"/>
<path d="M736.157 247.007L720.488 263.724L711.081 253.696" stroke="white" stroke-width="4.381" stroke-linecap="round" stroke-linejoin="round"/>
<path d="M612.643 432.591V607.644C612.643 620.432 602.276 630.775 589.491 630.775H176.699C163.913 630.775 153.547 620.432 153.547 607.644V432.591C153.547 419.799 163.916 409.425 176.699 409.425H589.491C602.273 409.425 612.643 419.799 612.643 432.591Z" fill="white" stroke="#E1E4E5" stroke-width="2.321"/>
<path d="M312.071 614.416H190.469C181.263 614.416 173.775 606.923 173.775 597.712V476.037C173.775 466.827 181.263 459.333 190.469 459.333H312.071C321.276 459.333 328.765 466.827 328.765 476.037V597.712C328.765 606.957 321.276 614.416 312.071 614.416Z" fill="#A0CECB"/>
<path d="M612.643 432.591C612.642 434.131 612.03 435.608 610.941 436.698C609.851 437.787 608.374 438.399 606.833 438.399H159.356C157.816 438.399 156.338 437.787 155.249 436.698C154.159 435.608 153.547 434.131 153.547 432.591C153.547 419.799 163.916 409.425 176.699 409.425H589.491C602.273 409.425 612.643 419.799 612.643 432.591Z" fill="white" stroke="#E1E4E5" stroke-width="2.321"/>
<path d="M183.372 424.481C183.37 425.722 182.876 426.912 181.998 427.79C181.121 428.668 179.932 429.162 178.691 429.165C177.45 429.162 176.26 428.668 175.383 427.79C174.506 426.912 174.012 425.722 174.009 424.481C174.011 423.241 174.504 422.052 175.381 421.174C176.257 420.296 177.445 419.801 178.685 419.796C181.279 419.828 183.372 421.913 183.372 424.481ZM201.463 424.48C201.461 425.721 200.967 426.911 200.089 427.789C199.212 428.667 198.023 429.162 196.781 429.165C195.54 429.162 194.351 428.667 193.474 427.789C192.597 426.911 192.103 425.721 192.101 424.48C192.103 423.24 192.596 422.051 193.472 421.174C194.348 420.296 195.536 419.801 196.776 419.796C199.369 419.827 201.463 421.913 201.463 424.48ZM219.553 424.48C219.551 425.721 219.057 426.911 218.18 427.789C217.303 428.667 216.113 429.162 214.872 429.165C213.631 429.162 212.441 428.667 211.564 427.789C210.687 426.911 210.193 425.721 210.191 424.48C210.193 423.24 210.686 422.051 211.562 421.173C212.439 420.296 213.627 419.801 214.867 419.796C217.491 419.827 219.553 421.909 219.553 424.48Z" fill="#E1E4E5" stroke="#E1E4E5" stroke-width="1.583"/>
<path d="M430.115 462.032H362.811C351.061 462.032 341.536 471.557 341.536 483.307C341.536 495.056 351.061 504.581 362.811 504.581H430.115C441.864 504.581 451.389 495.056 451.389 483.307C451.389 471.557 441.864 462.032 430.115 462.032Z" fill="url(#paint2_linear_25_284)"/>
<path d="M430.115 567.243H362.811C351.061 567.243 341.536 576.768 341.536 588.517C341.536 600.267 351.061 609.792 362.811 609.792H430.115C441.864 609.792 451.389 600.267 451.389 588.517C451.389 576.768 441.864 567.243 430.115 567.243Z" fill="url(#paint3_linear_25_284)"/>
<path d="M386.792 514.637H362.811C351.061 514.637 341.536 524.162 341.536 535.912C341.536 547.662 351.061 557.187 362.811 557.187H386.792C398.542 557.187 408.067 547.662 408.067 535.912C408.067 524.162 398.542 514.637 386.792 514.637Z" fill="url(#paint4_linear_25_284)"/>
<path d="M475.757 514.637H451.776C440.026 514.637 430.501 524.162 430.501 535.912C430.501 547.662 440.026 557.187 451.776 557.187H475.757C487.507 557.187 497.032 547.662 497.032 535.912C497.032 524.162 487.507 514.637 475.757 514.637Z" fill="url(#paint5_linear_25_284)"/>
<path d="M564.724 514.637H540.743C528.993 514.637 519.468 524.162 519.468 535.912C519.468 547.662 528.993 557.187 540.743 557.187H564.724C576.474 557.187 585.999 547.662 585.999 535.912C585.999 524.162 576.474 514.637 564.724 514.637Z" fill="url(#paint6_linear_25_284)"/>
<path d="M564.724 462.032H497.42C485.67 462.032 476.145 471.557 476.145 483.307C476.145 495.056 485.67 504.581 497.42 504.581H564.724C576.474 504.581 585.999 495.056 585.999 483.307C585.999 471.557 576.474 462.032 564.724 462.032Z" fill="url(#paint7_linear_25_284)"/>
<path d="M564.724 567.243H497.42C485.67 567.243 476.145 576.768 476.145 588.517C476.145 600.267 485.67 609.792 497.42 609.792H564.724C576.474 609.792 585.999 600.267 585.999 588.517C585.999 576.768 576.474 567.243 564.724 567.243Z" fill="url(#paint8_linear_25_284)"/>
<path d="M224.909 554.057L207.343 536.489L224.909 518.923M277.612 518.923L295.18 536.489L277.612 554.057M258.079 510.14L243.436 562.843" stroke="white" stroke-width="9.389" stroke-linecap="round" stroke-linejoin="round"/>
<path d="M1046.09 369.411V544.463C1046.09 557.252 1035.73 567.595 1022.94 567.595H610.148C597.363 567.595 586.997 557.252 586.997 544.463V369.411C586.997 356.619 597.365 346.244 610.148 346.244H1022.94C1035.72 346.244 1046.09 356.619 1046.09 369.411Z" fill="white" stroke="#E1E4E5" stroke-width="2.321"/>
<path d="M745.52 551.236H623.919C614.712 551.236 607.224 543.743 607.224 534.531V412.857C607.224 403.645 614.712 396.152 623.919 396.152H745.52C754.725 396.152 762.215 403.645 762.215 412.857V534.531C762.215 543.777 754.725 551.236 745.52 551.236Z" fill="url(#paint9_linear_25_284)"/>
<path d="M1046.09 369.411C1046.09 370.951 1045.48 372.428 1044.39 373.517C1043.3 374.606 1041.82 375.218 1040.28 375.219H592.805C591.265 375.219 589.788 374.607 588.698 373.518C587.609 372.428 586.997 370.951 586.997 369.411C586.997 356.619 597.365 346.244 610.148 346.244H1022.94C1035.72 346.244 1046.09 356.619 1046.09 369.411Z" fill="white" stroke="#E1E4E5" stroke-width="2.321"/>
<path d="M616.821 361.3C616.819 362.541 616.325 363.731 615.448 364.608C614.57 365.486 613.381 365.981 612.14 365.984C610.899 365.981 609.71 365.486 608.832 364.608C607.955 363.731 607.461 362.541 607.459 361.3C607.461 360.06 607.954 358.871 608.83 357.993C609.705 357.115 610.893 356.62 612.133 356.615C614.728 356.647 616.821 358.732 616.821 361.3ZM634.912 361.299C634.91 362.54 634.416 363.73 633.539 364.608C632.662 365.486 631.472 365.981 630.231 365.984C628.989 365.981 627.8 365.486 626.923 364.608C626.045 363.73 625.552 362.54 625.549 361.299C625.552 360.059 626.045 358.87 626.921 357.992C627.797 357.114 628.985 356.619 630.225 356.615C632.819 356.645 634.912 358.732 634.912 361.299ZM653.003 361.299C653.001 362.54 652.507 363.73 651.63 364.608C650.752 365.486 649.563 365.981 648.321 365.984C647.08 365.98 645.891 365.486 645.014 364.607C644.137 363.729 643.644 362.54 643.641 361.299C643.644 360.059 644.137 358.87 645.013 357.993C645.889 357.115 647.076 356.62 648.316 356.615C650.94 356.645 653.003 358.728 653.003 361.299Z" fill="#E1E4E5" stroke="#E1E4E5" stroke-width="1.583"/>
<path d="M863.564 398.851H796.26C784.51 398.851 774.985 408.376 774.985 420.125C774.985 431.875 784.51 441.4 796.26 441.4H863.564C875.314 441.4 884.839 431.875 884.839 420.125C884.839 408.376 875.314 398.851 863.564 398.851Z" fill="url(#paint10_linear_25_284)"/>
<path d="M863.564 504.063H796.26C784.51 504.063 774.985 513.588 774.985 525.337C774.985 537.087 784.51 546.612 796.26 546.612H863.564C875.314 546.612 884.839 537.087 884.839 525.337C884.839 513.588 875.314 504.063 863.564 504.063Z" fill="url(#paint11_linear_25_284)"/>
<path d="M820.241 451.456H796.26C784.51 451.456 774.985 460.981 774.985 472.731C774.985 484.48 784.51 494.005 796.26 494.005H820.241C831.991 494.005 841.516 484.48 841.516 472.731C841.516 460.981 831.991 451.456 820.241 451.456Z" fill="url(#paint12_linear_25_284)"/>
<path d="M909.207 451.456H885.225C873.476 451.456 863.951 460.981 863.951 472.731C863.951 484.48 873.476 494.005 885.225 494.005H909.207C920.956 494.005 930.481 484.48 930.481 472.731C930.481 460.981 920.956 451.456 909.207 451.456Z" fill="url(#paint13_linear_25_284)"/>
<path d="M998.172 451.456H974.191C962.441 451.456 952.916 460.981 952.916 472.731C952.916 484.48 962.441 494.005 974.191 494.005H998.172C1009.92 494.005 1019.45 484.48 1019.45 472.731C1019.45 460.981 1009.92 451.456 998.172 451.456Z" fill="url(#paint14_linear_25_284)"/>
<path d="M998.173 398.851H930.869C919.12 398.851 909.595 408.376 909.595 420.125C909.595 431.875 919.12 441.4 930.869 441.4H998.173C1009.92 441.4 1019.45 431.875 1019.45 420.125C1019.45 408.376 1009.92 398.851 998.173 398.851Z" fill="url(#paint15_linear_25_284)"/>
<path d="M998.173 504.063H930.869C919.12 504.063 909.595 513.588 909.595 525.337C909.595 537.087 919.12 546.612 930.869 546.612H998.173C1009.92 546.612 1019.45 537.087 1019.45 525.337C1019.45 513.588 1009.92 504.063 998.173 504.063Z" fill="url(#paint16_linear_25_284)"/>
<path d="M658.359 490.876L640.791 473.309L658.359 455.741M711.061 455.741L728.629 473.309L711.061 490.876M691.527 446.96L676.884 499.661" stroke="white" stroke-width="9.389" stroke-linecap="round" stroke-linejoin="round"/>
<path d="M643.497 176.929V351.981C643.497 364.771 633.132 375.113 620.347 375.113H207.553C194.769 375.113 184.403 364.771 184.403 351.981V176.929C184.403 164.137 194.772 153.763 207.553 153.763H620.347C633.129 153.763 643.497 164.137 643.497 176.929Z" fill="white" stroke="#E1E4E5" stroke-width="2.321"/>
<path d="M342.927 358.753H221.325C212.119 358.753 204.631 351.261 204.631 342.049V220.375C204.631 211.164 212.119 203.671 221.325 203.671H342.927C352.132 203.671 359.621 211.164 359.621 220.375V342.049C359.621 351.296 352.132 358.753 342.927 358.753Z" fill="#A0CECB"/>
<path d="M643.497 176.929C643.497 178.47 642.885 179.947 641.796 181.036C640.707 182.125 639.23 182.737 637.689 182.737H190.211C188.67 182.737 187.193 182.125 186.104 181.036C185.015 179.947 184.403 178.47 184.403 176.929C184.403 164.137 194.772 153.763 207.553 153.763H620.347C633.129 153.763 643.497 164.137 643.497 176.929Z" fill="white" stroke="#E1E4E5" stroke-width="2.321"/>
<path d="M214.228 168.817C214.226 170.059 213.732 171.249 212.855 172.127C211.977 173.005 210.788 173.499 209.547 173.503C208.305 173.499 207.116 173.005 206.239 172.127C205.361 171.249 204.867 170.059 204.865 168.817C204.868 167.577 205.361 166.388 206.237 165.511C207.113 164.633 208.301 164.138 209.541 164.133C212.135 164.165 214.228 166.251 214.228 168.817ZM232.32 168.819C232.318 170.06 231.824 171.249 230.946 172.127C230.069 173.005 228.88 173.499 227.639 173.503C226.398 173.499 225.208 173.005 224.331 172.127C223.454 171.249 222.96 170.06 222.957 168.819C222.959 167.579 223.452 166.39 224.328 165.512C225.204 164.634 226.392 164.138 227.632 164.133C230.227 164.165 232.32 166.251 232.32 168.819ZM250.409 168.819C250.407 170.06 249.913 171.249 249.036 172.127C248.158 173.005 246.969 173.499 245.728 173.503C244.487 173.499 243.298 173.004 242.421 172.127C241.544 171.249 241.05 170.059 241.048 168.819C241.05 167.579 241.543 166.39 242.419 165.512C243.295 164.634 244.483 164.138 245.723 164.133C248.347 164.165 250.409 166.247 250.409 168.819Z" fill="#E1E4E5" stroke="#E1E4E5" stroke-width="1.583"/>
<path d="M460.971 206.369H393.667C381.917 206.369 372.392 215.894 372.392 227.644C372.392 239.394 381.917 248.919 393.667 248.919H460.971C472.72 248.919 482.245 239.394 482.245 227.644C482.245 215.894 472.72 206.369 460.971 206.369Z" fill="url(#paint17_linear_25_284)"/>
<path d="M460.971 311.581H393.667C381.917 311.581 372.392 321.106 372.392 332.856C372.392 344.606 381.917 354.131 393.667 354.131H460.971C472.72 354.131 482.245 344.606 482.245 332.856C482.245 321.106 472.72 311.581 460.971 311.581Z" fill="url(#paint18_linear_25_284)"/>
<path d="M417.648 258.975H393.667C381.917 258.975 372.392 268.5 372.392 280.249C372.392 291.999 381.917 301.524 393.667 301.524H417.648C429.398 301.524 438.923 291.999 438.923 280.249C438.923 268.5 429.398 258.975 417.648 258.975Z" fill="url(#paint19_linear_25_284)"/>
<path d="M506.615 258.975H482.633C470.884 258.975 461.359 268.5 461.359 280.249C461.359 291.999 470.884 301.524 482.633 301.524H506.615C518.364 301.524 527.889 291.999 527.889 280.249C527.889 268.5 518.364 258.975 506.615 258.975Z" fill="url(#paint20_linear_25_284)"/>
<path d="M595.58 258.975H571.599C559.849 258.975 550.324 268.5 550.324 280.249C550.324 291.999 559.849 301.524 571.599 301.524H595.58C607.33 301.524 616.855 291.999 616.855 280.249C616.855 268.5 607.33 258.975 595.58 258.975Z" fill="url(#paint21_linear_25_284)"/>
<path d="M595.58 206.369H528.276C516.526 206.369 507.001 215.894 507.001 227.644C507.001 239.394 516.526 248.919 528.276 248.919H595.58C607.33 248.919 616.855 239.394 616.855 227.644C616.855 215.894 607.33 206.369 595.58 206.369Z" fill="url(#paint22_linear_25_284)"/>
<path d="M595.58 311.581H528.276C516.526 311.581 507.001 321.106 507.001 332.856C507.001 344.606 516.526 354.131 528.276 354.131H595.58C607.33 354.131 616.855 344.606 616.855 332.856C616.855 321.106 607.33 311.581 595.58 311.581Z" fill="url(#paint23_linear_25_284)"/>
<path d="M255.765 298.395L238.199 280.828L255.765 263.26M308.468 263.26L326.036 280.828L308.468 298.395M288.935 254.477L274.292 307.18" stroke="white" stroke-width="9.389" stroke-linecap="round" stroke-linejoin="round"/>
<path d="M558.517 417.567L576.568 412.076L655.04 409.767L672.737 414.597L670.428 457.721L630.391 483.267L591.556 482.489L567.143 460.244L561.723 438.187L558.517 417.567Z" fill="#F8AE9D"/>
<path d="M785.073 486.917C779.393 475.207 773.951 465.804 769.096 458.38C759.565 443.754 744.988 433.144 728.14 428.571L664.137 411.227C664.137 411.227 660.815 475.183 616.795 475.183C572.775 475.183 564.197 415.209 564.197 415.209L490.132 444.76C487.587 445.749 470.408 451.688 450.425 494.553C431.384 535.368 423.065 556.269 423.065 556.269L499.369 578.304L504.129 646.925L502.504 686.113L734.101 685.595L732.805 640.797L733.772 572.105L736.671 576.795L813.752 545.877C813.752 545.877 803.831 525.517 785.073 486.917Z" fill="#A0CECB"/>
<path d="M609.316 440.383C628.1 440.037 649.439 403.397 649.439 403.397L650.664 309.281C651.645 282.175 634.783 259.079 604.391 258.951L601.569 259.079C573.281 260.427 550.88 280.916 550.124 306.164C549.409 329.66 548.98 355.619 549.9 368.16C551.821 394.119 581.437 389.737 581.437 389.737C581.499 389.737 581.356 402.813 581.437 410.452C581.661 427.605 601.775 440.967 609.316 440.383Z" fill="#F8AE9D"/>
<path d="M641.279 314.444C641.796 314.199 662.028 307.441 662.48 327.425C662.932 347.411 641.752 343.725 641.709 343.152C641.667 342.579 641.279 314.444 641.279 314.444ZM429.641 558.18L398.605 620.463C395.138 627.422 393.515 635.154 393.892 642.92C395.071 667.097 415.031 686.115 439.232 686.115L528.961 684.704L532.125 640.351L464.4 624.02L490.061 575.5L429.641 558.18ZM809.817 547.459C809.817 547.459 829.069 604.651 850.067 656.635C850.491 657.672 850.961 659.604 851.339 660.665C856.075 673.555 841.819 686.115 827.42 686.115L706.083 685.903V646.455L781.563 630.431L754.227 569.727L809.817 547.459Z" fill="#F8AE9D"/>
<path d="M566.624 644.64C566.647 644.781 569.404 643.909 574 643.627C578.571 643.32 585.052 643.839 591.508 646.596C597.965 649.353 602.843 653.665 605.765 657.176C608.735 660.688 610.007 663.303 610.125 663.209C610.172 663.185 609.889 662.525 609.253 661.395C608.343 659.801 607.31 658.281 606.165 656.847C603.291 653.193 598.389 648.716 591.791 645.912C585.193 643.108 578.571 642.637 573.952 643.108C572.123 643.266 570.311 643.574 568.532 644.027C567.284 644.333 566.6 644.592 566.624 644.64ZM570.771 635.096C570.819 635.284 573.623 633.895 578.453 633.753C583.261 633.54 590.024 635.001 596.34 638.819C602.655 642.66 607.392 647.515 610.737 651.003C612.34 652.699 613.66 654.113 614.696 655.197C615.639 656.187 616.157 656.729 616.205 656.681C616.252 656.657 615.78 656.045 614.908 655.008C613.681 653.53 612.425 652.076 611.139 650.649C607.863 647.067 603.149 642.095 596.716 638.183C590.283 634.295 583.332 632.881 578.429 633.235C575.979 633.376 574.023 633.824 572.727 634.271C572.067 634.46 571.596 634.695 571.267 634.837C570.936 634.979 570.771 635.072 570.771 635.096Z" fill="#EB996E"/>
<path d="M731.603 639.219H714.188C714.188 639.219 674.881 625.009 666.799 626.376C659.517 627.601 632.865 645.299 627.633 648.809C627.044 649.211 626.62 649.752 626.361 650.412C625.849 651.798 625.894 653.33 626.487 654.683C627.08 656.037 628.176 657.108 629.543 657.671L630.084 657.907L629.849 658.707C629.537 659.737 629.401 660.812 629.448 661.888C629.636 665.636 634.68 666.767 636.588 663.539L635.575 665.329C635.168 666.054 634.972 666.879 635.009 667.709L635.104 669.335C635.154 670.215 635.469 671.059 636.007 671.757C636.545 672.455 637.282 672.974 638.12 673.247C638.916 673.512 639.773 673.539 640.585 673.326C641.397 673.113 642.129 672.668 642.692 672.045C646.061 668.321 653.367 660.875 658.316 660.051C662.699 659.32 670.027 659.225 674.457 659.249C675.555 659.251 676.627 659.585 677.531 660.208C678.436 660.831 679.13 661.712 679.524 662.737C676.601 662.949 656.171 673.6 648.936 677.417C646.697 678.596 645.024 680.717 644.741 683.239C644.483 685.501 645.613 687.881 650.091 686.82C659.705 684.581 676.979 676.64 676.979 676.64C676.979 676.64 685.887 674.095 691.66 678.172C699.789 683.899 703.513 685.996 710.488 683.687C717.464 681.377 722.601 678.055 722.601 678.055L736.34 676.688C736.387 676.688 749.371 644.215 731.603 639.219Z" fill="#F8AE9D"/>
<path d="M679.688 645.864C679.664 646.005 676.908 645.135 672.312 644.851C667.74 644.545 661.26 645.064 654.804 647.82C648.347 650.577 643.468 654.889 640.547 658.401C637.577 661.912 636.305 664.528 636.187 664.433C636.14 664.411 636.423 663.751 637.059 662.619C637.968 661.025 639 659.505 640.145 658.071C643.021 654.419 647.923 649.941 654.52 647.137C661.119 644.333 667.74 643.861 672.36 644.333C674.669 644.545 676.531 644.921 677.779 645.252C679.028 645.581 679.712 645.817 679.688 645.864ZM675.54 636.321C675.493 636.509 672.689 635.119 667.859 634.977C663.051 634.765 656.288 636.227 649.972 640.044C643.657 643.885 638.92 648.74 635.575 652.227C633.972 653.924 632.652 655.337 631.615 656.421C630.672 657.412 630.155 657.953 630.107 657.907C630.06 657.883 630.531 657.271 631.403 656.233C632.275 655.173 633.548 653.688 635.173 651.873C638.449 648.292 643.161 643.32 649.595 639.408C656.028 635.52 662.98 634.105 667.881 634.459C670.332 634.6 672.288 635.048 673.584 635.496C674.244 635.684 674.716 635.92 675.045 636.061C675.376 636.203 675.54 636.297 675.54 636.321Z" fill="#EB996E"/>
<path d="M708.039 687.221H525.197C522.696 687.224 520.291 686.259 518.486 684.528C516.681 682.797 515.615 680.435 515.512 677.936L510.021 552.099C509.785 546.585 514.192 541.965 519.707 541.965H713.176C718.689 541.965 723.096 546.561 722.884 552.076L717.747 677.936C717.535 683.121 713.247 687.221 708.039 687.221Z" fill="#4D6A68"/>
<path d="M634.917 616.923C634.917 627.261 626.557 635.62 616.219 635.62C605.88 635.62 597.521 627.261 597.521 616.923C597.521 606.584 605.88 598.224 616.219 598.224C626.557 598.224 634.917 606.628 634.917 616.923Z" fill="white"/>
<path d="M634.209 350.855H650.705V421.549H634.209V350.855Z" fill="#F8AE9D"/>
<path d="M640.684 287.685C637.712 291.521 632.469 292.367 628.152 293.125C622.347 294.144 619.475 296.267 616.461 301.965C614.553 305.607 612.645 309.593 609.231 311.565C606.455 313.175 606.556 309.071 606.116 305.892C606.075 305.61 606.018 305.331 605.945 305.056C605.273 302.519 602.573 302.952 601.78 305.455C601.057 307.708 599.511 309.615 597.541 310.677C597.22 310.851 596.879 311.001 596.537 310.937C596.076 310.872 595.715 310.439 595.413 310.048C594.781 309.232 594.155 308.195 593.507 307.096C591.377 303.485 587.347 304.776 584.968 308.228C583.483 310.373 581.715 312.584 579.284 313.083C578.501 313.256 577.517 313.125 577.156 312.367C576.693 311.436 577.416 310.504 577.296 309.551C577.196 308.661 576.813 308.272 576.392 307.513C574.737 304.571 570.949 304.464 568.621 306.908C567.001 308.609 565.312 310.242 563.557 311.804C562.815 312.453 561.729 313.104 560.987 312.453C560.585 312.107 560.485 311.523 560.404 310.959C559.983 308.207 559.581 305.455 559.159 302.703C558.919 301.164 558.095 299.149 556.688 299.539C556.005 299.735 555.604 300.449 555.223 301.099C554.76 301.923 546.505 311.305 546.345 310.591C545.059 305.26 542.428 300.405 541.143 295.075C532.828 260.773 569.724 233.188 597.903 233.036C604.169 232.993 609.895 233.095 615.98 234.547C622.468 236.107 629.316 238.584 635.201 242.072C643.456 246.948 649.703 255.811 648.096 266.385" fill="#4D6A68"/>
<path d="M625.864 276.091C621.719 280.643 620.62 287.048 620.235 293.099C619.665 302.224 620.437 311.704 624.787 319.804C626.027 322.111 626.941 333.521 628.852 332.891C629.463 332.695 629.36 323.845 630.967 319.075C633.445 311.684 644.869 308.867 650.011 313.537C658.223 320.967 653.405 329.993 650.681 335.611C649.056 339.001 646.475 342.805 646.027 346.392C645.479 350.984 645.316 367.717 648.405 371.619C650.987 374.891 653.731 359.084 656.068 355.971C673.365 332.773 689.951 273.705 660.417 260.895C655.925 258.943 642.064 257.939 637.856 260.421" fill="#4D6A68"/>
<path fill-rule="evenodd" clip-rule="evenodd" d="M758.596 133.177H753.908C752.775 133.177 751.863 132.255 751.863 131.131V126.444C751.863 125.311 752.784 124.397 753.908 124.397H758.596C759.138 124.399 759.657 124.616 760.04 124.999C760.424 125.383 760.64 125.902 760.641 126.444V131.131C760.642 131.4 760.59 131.666 760.487 131.915C760.385 132.163 760.234 132.389 760.044 132.579C759.854 132.77 759.628 132.92 759.38 133.023C759.131 133.126 758.865 133.178 758.596 133.177ZM742.344 133.177H737.656C737.114 133.175 736.595 132.959 736.212 132.575C735.828 132.192 735.612 131.673 735.611 131.131V126.444C735.611 125.311 736.533 124.397 737.656 124.397H742.344C742.886 124.399 743.405 124.616 743.788 124.999C744.171 125.383 744.387 125.902 744.389 126.444V131.131C744.387 131.673 744.171 132.192 743.788 132.575C743.405 132.959 742.886 133.175 742.344 133.177ZM726.081 133.177H721.393C720.851 133.175 720.332 132.959 719.949 132.575C719.566 132.192 719.35 131.673 719.348 131.131V126.444C719.348 125.311 720.269 124.397 721.393 124.397H726.081C726.623 124.399 727.142 124.616 727.526 124.999C727.909 125.383 728.125 125.902 728.127 126.444V131.131C728.127 131.4 728.075 131.666 727.973 131.915C727.87 132.163 727.72 132.389 727.53 132.579C727.339 132.77 727.114 132.92 726.865 133.023C726.617 133.126 726.35 133.178 726.081 133.177ZM709.828 133.177H705.14C704.598 133.175 704.079 132.959 703.695 132.575C703.312 132.192 703.096 131.673 703.095 131.131V126.444C703.095 125.311 704.017 124.397 705.14 124.397H709.828C710.961 124.397 711.884 125.32 711.884 126.444V131.131C711.878 131.673 711.659 132.192 711.275 132.575C710.89 132.957 710.37 133.174 709.828 133.177ZM693.576 133.177H688.888C687.755 133.177 686.833 132.255 686.833 131.131V126.444C686.833 125.311 687.755 124.397 688.888 124.397H693.576C694.118 124.399 694.638 124.615 695.021 124.999C695.405 125.382 695.621 125.902 695.623 126.444V131.131C695.621 131.673 695.405 132.192 695.021 132.576C694.638 132.959 694.118 133.176 693.576 133.177ZM741.748 115.456H737.061C736.519 115.454 735.999 115.238 735.616 114.855C735.233 114.471 735.016 113.952 735.015 113.409V108.712C735.017 108.17 735.233 107.651 735.616 107.268C736 106.884 736.519 106.668 737.061 106.667H741.748C742.881 106.667 743.795 107.589 743.795 108.712V113.4C743.796 113.67 743.744 113.937 743.642 114.186C743.54 114.436 743.389 114.663 743.199 114.854C743.009 115.045 742.783 115.197 742.534 115.3C742.285 115.403 742.018 115.456 741.748 115.456ZM725.496 115.456H720.808C720.266 115.454 719.747 115.238 719.364 114.854C718.98 114.471 718.764 113.951 718.763 113.409V108.712C718.765 108.17 718.981 107.651 719.364 107.268C719.747 106.885 720.266 106.669 720.808 106.667H725.496C726.038 106.669 726.557 106.885 726.94 107.268C727.323 107.651 727.539 108.17 727.541 108.712V113.4C727.543 113.67 727.491 113.937 727.389 114.186C727.287 114.436 727.137 114.663 726.947 114.854C726.757 115.045 726.531 115.197 726.281 115.3C726.032 115.403 725.766 115.456 725.496 115.456ZM709.244 115.456H704.556C703.423 115.456 702.5 114.533 702.5 113.409V108.712C702.5 107.589 703.423 106.667 704.556 106.667H709.244C709.786 106.669 710.305 106.885 710.688 107.268C711.071 107.651 711.287 108.17 711.289 108.712V113.4C711.289 114.533 710.368 115.456 709.244 115.456ZM726.081 152.216H721.393C720.851 152.214 720.332 151.998 719.949 151.614C719.566 151.231 719.35 150.711 719.348 150.169V145.483C719.348 144.349 720.269 143.436 721.393 143.436H726.081C726.623 143.438 727.142 143.654 727.526 144.038C727.909 144.421 728.125 144.941 728.127 145.483V150.169C728.127 150.438 728.075 150.705 727.972 150.953C727.87 151.202 727.719 151.427 727.529 151.618C727.339 151.808 727.113 151.959 726.865 152.061C726.616 152.164 726.35 152.217 726.081 152.216ZM709.828 152.216H705.14C704.598 152.214 704.079 151.998 703.695 151.614C703.312 151.231 703.096 150.711 703.095 150.169V145.483C703.095 144.349 704.017 143.436 705.14 143.436H709.828C710.961 143.436 711.884 144.359 711.884 145.483V150.169C711.878 150.712 711.659 151.23 711.275 151.613C710.89 151.996 710.37 152.213 709.828 152.216Z" fill="#E1E4E5"/>
<path d="M961.333 681.333H272C268.318 681.333 265.333 684.318 265.333 688C265.333 691.682 268.318 694.667 272 694.667H961.333C965.015 694.667 968 691.682 968 688C968 684.318 965.015 681.333 961.333 681.333Z" fill="#E1E4E5"/>
<path d="M926.867 620.987L891.672 656.182C890.391 657.464 890.391 659.541 891.672 660.823L891.673 660.824C892.955 662.105 895.032 662.105 896.314 660.824L931.509 625.629C932.79 624.347 932.79 622.27 931.509 620.988L931.508 620.987C930.226 619.706 928.149 619.706 926.867 620.987Z" fill="#E1E4E5"/>
<path d="M923.422 646.185L913.272 656.336C911.991 657.617 911.991 659.695 913.272 660.976L913.273 660.977C914.555 662.259 916.632 662.259 917.914 660.977L928.064 650.827C929.345 649.545 929.345 647.468 928.064 646.186L928.063 646.185C926.781 644.904 924.704 644.904 923.422 646.185Z" fill="#E1E4E5"/>
</g>
<defs>
<linearGradient id="paint0_linear_25_284" x1="895.768" y1="252.103" x2="895.728" y2="206.009" gradientUnits="userSpaceOnUse">
<stop stop-color="white"/>
<stop offset="1" stop-color="#EEEEEE"/>
</linearGradient>
<linearGradient id="paint1_linear_25_284" x1="852.503" y1="290.92" x2="852.443" y2="244.828" gradientUnits="userSpaceOnUse">
<stop stop-color="white"/>
<stop offset="1" stop-color="#EEEEEE"/>
</linearGradient>
<linearGradient id="paint2_linear_25_284" x1="398.805" y1="528.436" x2="398.297" y2="415.733" gradientUnits="userSpaceOnUse">
<stop stop-color="white"/>
<stop offset="1" stop-color="#EEEEEE"/>
</linearGradient>
<linearGradient id="paint3_linear_25_284" x1="398.805" y1="633.648" x2="398.297" y2="520.944" gradientUnits="userSpaceOnUse">
<stop stop-color="white"/>
<stop offset="1" stop-color="#EEEEEE"/>
</linearGradient>
<linearGradient id="paint4_linear_25_284" x1="376.22" y1="581.041" x2="375.381" y2="468.343" gradientUnits="userSpaceOnUse">
<stop stop-color="white"/>
<stop offset="1" stop-color="#EEEEEE"/>
</linearGradient>
<linearGradient id="paint5_linear_25_284" x1="465.185" y1="581.041" x2="464.347" y2="468.343" gradientUnits="userSpaceOnUse">
<stop stop-color="white"/>
<stop offset="1" stop-color="#EEEEEE"/>
</linearGradient>
<linearGradient id="paint6_linear_25_284" x1="554.152" y1="581.041" x2="553.313" y2="468.343" gradientUnits="userSpaceOnUse">
<stop stop-color="white"/>
<stop offset="1" stop-color="#EEEEEE"/>
</linearGradient>
<linearGradient id="paint7_linear_25_284" x1="533.415" y1="528.436" x2="532.907" y2="415.733" gradientUnits="userSpaceOnUse">
<stop stop-color="white"/>
<stop offset="1" stop-color="#EEEEEE"/>
</linearGradient>
<linearGradient id="paint8_linear_25_284" x1="533.415" y1="633.648" x2="532.907" y2="520.944" gradientUnits="userSpaceOnUse">
<stop stop-color="white"/>
<stop offset="1" stop-color="#EEEEEE"/>
</linearGradient>
<linearGradient id="paint9_linear_25_284" x1="688.024" y1="638.184" x2="683.239" y2="227.448" gradientUnits="userSpaceOnUse">
<stop stop-color="white"/>
<stop offset="1" stop-color="#EEEEEE"/>
</linearGradient>
<linearGradient id="paint10_linear_25_284" x1="832.253" y1="465.255" x2="831.745" y2="352.552" gradientUnits="userSpaceOnUse">
<stop stop-color="white"/>
<stop offset="1" stop-color="#EEEEEE"/>
</linearGradient>
<linearGradient id="paint11_linear_25_284" x1="832.253" y1="570.467" x2="831.745" y2="457.764" gradientUnits="userSpaceOnUse">
<stop stop-color="white"/>
<stop offset="1" stop-color="#EEEEEE"/>
</linearGradient>
<linearGradient id="paint12_linear_25_284" x1="809.669" y1="517.861" x2="808.829" y2="405.161" gradientUnits="userSpaceOnUse">
<stop stop-color="white"/>
<stop offset="1" stop-color="#EEEEEE"/>
</linearGradient>
<linearGradient id="paint13_linear_25_284" x1="898.635" y1="517.861" x2="897.796" y2="405.161" gradientUnits="userSpaceOnUse">
<stop stop-color="white"/>
<stop offset="1" stop-color="#EEEEEE"/>
</linearGradient>
<linearGradient id="paint14_linear_25_284" x1="987.6" y1="517.861" x2="986.761" y2="405.161" gradientUnits="userSpaceOnUse">
<stop stop-color="white"/>
<stop offset="1" stop-color="#EEEEEE"/>
</linearGradient>
<linearGradient id="paint15_linear_25_284" x1="966.864" y1="465.255" x2="966.355" y2="352.552" gradientUnits="userSpaceOnUse">
<stop stop-color="white"/>
<stop offset="1" stop-color="#EEEEEE"/>
</linearGradient>
<linearGradient id="paint16_linear_25_284" x1="966.864" y1="570.467" x2="966.355" y2="457.764" gradientUnits="userSpaceOnUse">
<stop stop-color="white"/>
<stop offset="1" stop-color="#EEEEEE"/>
</linearGradient>
<linearGradient id="paint17_linear_25_284" x1="429.661" y1="272.773" x2="429.153" y2="160.071" gradientUnits="userSpaceOnUse">
<stop stop-color="white"/>
<stop offset="1" stop-color="#EEEEEE"/>
</linearGradient>
<linearGradient id="paint18_linear_25_284" x1="429.661" y1="377.985" x2="429.153" y2="265.281" gradientUnits="userSpaceOnUse">
<stop stop-color="white"/>
<stop offset="1" stop-color="#EEEEEE"/>
</linearGradient>
<linearGradient id="paint19_linear_25_284" x1="407.076" y1="325.379" x2="406.237" y2="212.68" gradientUnits="userSpaceOnUse">
<stop stop-color="white"/>
<stop offset="1" stop-color="#EEEEEE"/>
</linearGradient>
<linearGradient id="paint20_linear_25_284" x1="496.043" y1="325.379" x2="495.203" y2="212.68" gradientUnits="userSpaceOnUse">
<stop stop-color="white"/>
<stop offset="1" stop-color="#EEEEEE"/>
</linearGradient>
<linearGradient id="paint21_linear_25_284" x1="585.008" y1="325.379" x2="584.169" y2="212.68" gradientUnits="userSpaceOnUse">
<stop stop-color="white"/>
<stop offset="1" stop-color="#EEEEEE"/>
</linearGradient>
<linearGradient id="paint22_linear_25_284" x1="564.271" y1="272.773" x2="563.763" y2="160.071" gradientUnits="userSpaceOnUse">
<stop stop-color="white"/>
<stop offset="1" stop-color="#EEEEEE"/>
</linearGradient>
<linearGradient id="paint23_linear_25_284" x1="564.271" y1="377.985" x2="563.763" y2="265.281" gradientUnits="userSpaceOnUse">
<stop stop-color="white"/>
<stop offset="1" stop-color="#EEEEEE"/>
</linearGradient>
<clipPath id="clip0_25_284">
<rect width="1200" height="800" fill="white"/>
</clipPath>
</defs>
</svg>
