<svg width="784" height="270" viewBox="0 0 784 270" fill="none" xmlns="http://www.w3.org/2000/svg">
<path d="M27.448 116H26.448V117H27.448V116ZM27.448 20.64V19.64H26.448V20.64H27.448ZM92.728 20.64H93.728V19.64H92.728V20.64ZM92.728 37.92V38.92H93.728V37.92H92.728ZM47.288 37.92V36.92H46.288V37.92H47.288ZM47.288 62.112H46.288V63.112H47.288V62.112ZM86.328 62.112H87.328V61.112H86.328V62.112ZM86.328 79.392V80.392H87.328V79.392H86.328ZM47.288 79.392V78.392H46.288V79.392H47.288ZM47.288 116V117H48.288V116H47.288ZM28.448 116V20.64H26.448V116H28.448ZM27.448 21.64H92.728V19.64H27.448V21.64ZM91.728 20.64V37.92H93.728V20.64H91.728ZM92.728 36.92H47.288V38.92H92.728V36.92ZM46.288 37.92V62.112H48.288V37.92H46.288ZM47.288 63.112H86.328V61.112H47.288V63.112ZM85.328 62.112V79.392H87.328V62.112H85.328ZM86.328 78.392H47.288V80.392H86.328V78.392ZM46.288 79.392V116H48.288V79.392H46.288ZM47.288 115H27.448V117H47.288V115ZM110.539 113.952L110.006 114.798L110.016 114.805L110.027 114.811L110.539 113.952ZM101.579 103.712L100.674 104.138L100.674 104.138L101.579 103.712ZM98.507 46.112V45.112H97.507V46.112H98.507ZM117.707 46.112H118.707V45.112H117.707V46.112ZM119.243 93.984L118.349 94.4312L118.36 94.4539L118.372 94.4761L119.243 93.984ZM123.851 98.592L124.343 97.7214L124.343 97.7214L123.851 98.592ZM137.163 98.592L136.671 97.7214L136.663 97.7262L136.654 97.7311L137.163 98.592ZM141.643 93.984L140.764 93.5077L140.76 93.5145L140.756 93.5214L141.643 93.984ZM143.307 46.112V45.112H142.307V46.112H143.307ZM162.507 46.112H163.507V45.112H162.507V46.112ZM162.507 116V117H163.507V116H162.507ZM144.587 116H143.587V117H144.587V116ZM144.587 102.176L145.536 101.86L143.587 102.176H144.587ZM145.611 105.248L146.543 105.61L146.674 105.274L146.56 104.932L145.611 105.248ZM137.675 114.592L138.155 115.469L138.162 115.465L137.675 114.592ZM125.003 116.536C119.514 116.536 114.878 115.373 111.051 113.093L110.027 114.811C114.222 117.31 119.228 118.536 125.003 118.536V116.536ZM111.072 113.106C107.314 110.737 104.454 107.472 102.484 103.286L100.674 104.138C102.8 108.656 105.913 112.218 110.006 114.798L111.072 113.106ZM102.484 103.286C100.51 99.092 99.507 94.1654 99.507 88.48H97.507C97.507 94.4 98.5519 99.628 100.674 104.138L102.484 103.286ZM99.507 88.48V46.112H97.507V88.48H99.507ZM98.507 47.112H117.707V45.112H98.507V47.112ZM116.707 46.112V86.944H118.707V46.112H116.707ZM116.707 86.944C116.707 89.7204 117.245 92.2243 118.349 94.4312L120.137 93.5368C119.193 91.6477 118.707 89.4582 118.707 86.944H116.707ZM118.372 94.4761C119.571 96.5969 121.238 98.2638 123.359 99.4626L124.343 97.7214C122.539 96.7015 121.133 95.2964 120.114 93.4919L118.372 94.4761ZM123.359 99.4626C125.486 100.665 127.877 101.256 130.507 101.256V99.256C128.187 99.256 126.141 98.7378 124.343 97.7214L123.359 99.4626ZM130.507 101.256C133.215 101.256 135.615 100.668 137.672 99.4529L136.654 97.7311C134.956 98.7346 132.919 99.256 130.507 99.256V101.256ZM137.655 99.4626C139.783 98.26 141.415 96.5838 142.53 94.4466L140.756 93.5214C139.823 95.3095 138.469 96.7053 136.671 97.7214L137.655 99.4626ZM142.522 94.4603C143.721 92.2472 144.307 89.7328 144.307 86.944H142.307C142.307 89.4459 141.784 91.6248 140.764 93.5077L142.522 94.4603ZM144.307 86.944V46.112H142.307V86.944H144.307ZM143.307 47.112H162.507V45.112H143.307V47.112ZM161.507 46.112V116H163.507V46.112H161.507ZM162.507 115H144.587V117H162.507V115ZM145.587 116V102.176H143.587V116H145.587ZM143.638 102.492L144.662 105.564L146.56 104.932L145.536 101.86L143.638 102.492ZM144.679 104.886C143.135 108.866 140.639 111.792 137.188 113.719L138.162 115.465C142.049 113.296 144.844 109.992 146.543 105.61L144.679 104.886ZM137.195 113.715C133.784 115.583 129.731 116.536 125.003 116.536V118.536C130.003 118.536 134.398 117.526 138.155 115.469L137.195 113.715ZM176.54 116H175.54V117H176.54V116ZM176.54 19.104V18.104H175.54V19.104H176.54ZM195.74 19.104H196.74V18.104H195.74V19.104ZM195.74 116V117H196.74V116H195.74ZM177.54 116V19.104H175.54V116H177.54ZM176.54 20.104H195.74V18.104H176.54V20.104ZM194.74 19.104V116H196.74V19.104H194.74ZM195.74 115H176.54V117H195.74V115ZM209.79 116H208.79V117H209.79V116ZM209.79 19.104V18.104H208.79V19.104H209.79ZM228.99 19.104H229.99V18.104H228.99V19.104ZM228.99 116V117H229.99V116H228.99ZM210.79 116V19.104H208.79V116H210.79ZM209.79 20.104H228.99V18.104H209.79V20.104ZM227.99 19.104V116H229.99V19.104H227.99ZM228.99 115H209.79V117H228.99V115ZM250.336 112.16L249.79 112.998L249.797 113.003L249.805 113.007L250.336 112.16ZM238.816 97.44L238.389 96.5359L237.587 96.9149L237.867 97.7562L238.816 97.44ZM252.896 90.784L253.798 90.3533L253.369 89.4541L252.469 89.8799L252.896 90.784ZM260.192 99.616L259.622 100.437L259.622 100.437L260.192 99.616ZM276.704 101.152L277.311 101.946L277.311 101.946L276.704 101.152ZM278.112 93.984L277.28 94.5387L277.295 94.5618L277.312 94.584L278.112 93.984ZM271.968 90.4L271.699 91.3631L271.7 91.3635L271.968 90.4ZM260.064 87.072L259.791 88.0341L259.795 88.0351L260.064 87.072ZM246.88 79.264L246.113 79.906L246.121 79.9148L246.88 79.264ZM254.944 47.392L255.352 48.305L255.36 48.3014L255.368 48.2977L254.944 47.392ZM286.688 49.44L286.153 50.2848L286.161 50.29L286.169 50.295L286.688 49.44ZM297.696 62.88L298.12 63.7856L298.951 63.3962L298.635 62.5349L297.696 62.88ZM283.488 69.536L282.545 69.8688L282.912 70.9099L283.912 70.4416L283.488 69.536ZM277.856 62.624L277.295 63.4519L277.31 63.4622L277.326 63.472L277.856 62.624ZM262.88 61.472L262.303 60.655L262.292 60.6633L262.28 60.672L262.88 61.472ZM261.6 68.256L260.768 68.8107L260.768 68.8107L261.6 68.256ZM264.032 70.304L263.558 71.1845L263.571 71.1916L263.585 71.1984L264.032 70.304ZM268.384 71.968L268.097 72.9258L268.098 72.9261L268.384 71.968ZM279.52 75.296L279.234 76.2541L279.238 76.2554L279.52 75.296ZM292.832 83.104L292.081 83.7639L292.089 83.773L292.832 83.104ZM293.984 107.168L293.169 106.589L293.164 106.596L293.159 106.603L293.984 107.168ZM284.64 114.848L285.048 115.761L285.056 115.757L285.064 115.754L284.64 114.848ZM270.432 116.536C262.913 116.536 256.404 114.784 250.867 111.313L249.805 113.007C255.703 116.704 262.591 118.536 270.432 118.536V116.536ZM250.882 111.322C245.431 107.771 241.738 103.045 239.765 97.1238L237.867 97.7562C239.99 104.123 243.977 109.21 249.79 112.998L250.882 111.322ZM239.243 98.3441L253.323 91.6881L252.469 89.8799L238.389 96.5359L239.243 98.3441ZM251.994 91.2147C253.852 95.1082 256.391 98.1941 259.622 100.437L260.762 98.7946C257.849 96.7712 255.524 93.9691 253.798 90.3533L251.994 91.2147ZM259.622 100.437C262.862 102.687 266.474 103.816 270.432 103.816V101.816C266.88 101.816 263.666 100.811 260.762 98.7946L259.622 100.437ZM270.432 103.816C273.279 103.816 275.619 103.241 277.311 101.946L276.097 100.358C274.888 101.282 273.047 101.816 270.432 101.816V103.816ZM277.311 101.946C279.03 100.632 279.88 98.7912 279.88 96.544H277.88C277.88 98.2221 277.279 99.4533 276.097 100.358L277.311 101.946ZM279.88 96.544C279.88 95.3481 279.578 94.2723 278.912 93.384L277.312 94.584C277.67 95.0611 277.88 95.6919 277.88 96.544H279.88ZM278.944 93.4293C278.327 92.5039 277.431 91.7252 276.312 91.0722L275.304 92.7998C276.233 93.3415 276.873 93.9281 277.28 94.5387L278.944 93.4293ZM276.312 91.0722C275.193 90.4197 273.828 89.8788 272.236 89.4365L271.7 91.3635C273.18 91.7746 274.375 92.2576 275.304 92.7998L276.312 91.0722ZM272.237 89.4369L260.333 86.1089L259.795 88.0351L271.699 91.3631L272.237 89.4369ZM260.337 86.1099C254.76 84.5284 250.554 82.0134 247.639 78.6132L246.121 79.9148C249.35 83.6826 253.934 86.3729 259.791 88.0341L260.337 86.1099ZM247.647 78.6221C244.731 75.1393 243.272 71.0594 243.272 66.336H241.272C241.272 71.5113 242.885 76.05 246.113 79.9059L247.647 78.6221ZM243.272 66.336C243.272 62.1629 244.333 58.5673 246.425 55.5087L244.775 54.3793C242.43 57.806 241.272 61.8051 241.272 66.336H243.272ZM246.425 55.5087C248.528 52.4359 251.489 50.0308 255.352 48.305L254.536 46.479C250.377 48.3372 247.11 50.9667 244.775 54.3793L246.425 55.5087ZM255.368 48.2977C259.225 46.4924 263.684 45.576 268.768 45.576V43.576C263.442 43.576 258.685 44.5369 254.52 46.4863L255.368 48.2977ZM268.768 45.576C275.43 45.576 281.213 47.1559 286.153 50.2848L287.223 48.5952C281.923 45.2387 275.759 43.576 268.768 43.576V45.576ZM286.169 50.295C291.178 53.3329 294.701 57.6315 296.757 63.2251L298.635 62.5349C296.424 56.5232 292.609 51.8618 287.207 48.585L286.169 50.295ZM297.272 61.9744L283.064 68.6304L283.912 70.4416L298.12 63.7856L297.272 61.9744ZM284.431 69.2032C283.328 66.0778 281.299 63.5966 278.386 61.776L277.326 63.472C279.874 65.0647 281.6 67.1915 282.545 69.8688L284.431 69.2032ZM278.417 61.7961C275.594 59.8841 272.367 58.936 268.768 58.936V60.936C271.996 60.936 274.827 61.7798 277.295 63.4519L278.417 61.7961ZM268.768 58.936C266.166 58.936 263.977 59.4733 262.303 60.655L263.457 62.289C264.684 61.4227 266.421 60.936 268.768 60.936V58.936ZM262.28 60.672C260.648 61.8956 259.832 63.6076 259.832 65.696H261.832C261.832 64.2004 262.381 63.0964 263.48 62.272L262.28 60.672ZM259.832 65.696C259.832 66.8285 260.144 67.8755 260.768 68.8107L262.432 67.7013C262.032 67.1005 261.832 66.4408 261.832 65.696H259.832ZM260.768 68.8107C261.398 69.7555 262.355 70.5365 263.558 71.1845L264.506 69.4235C263.491 68.8768 262.826 68.2924 262.432 67.7013L260.768 68.8107ZM263.585 71.1984C264.845 71.8283 266.352 72.4024 268.097 72.9258L268.671 71.0102C267.003 70.5096 265.609 69.9744 264.479 69.4096L263.585 71.1984ZM268.098 72.9261L279.234 76.2541L279.806 74.3379L268.67 71.0099L268.098 72.9261ZM279.238 76.2554C284.912 77.9243 289.166 80.4441 292.081 83.7638L293.583 82.4442C290.354 78.7665 285.733 76.081 279.802 74.3366L279.238 76.2554ZM292.089 83.773C294.979 86.9844 296.44 90.9626 296.44 95.776H298.44C298.44 90.5201 296.829 86.0503 293.575 82.435L292.089 83.773ZM296.44 95.776C296.44 99.9409 295.341 103.531 293.169 106.589L294.799 107.747C297.235 104.319 298.44 100.315 298.44 95.776H296.44ZM293.159 106.603C291.053 109.68 288.086 112.131 284.216 113.942L285.064 115.754C289.215 113.81 292.477 111.141 294.809 107.733L293.159 106.603ZM284.232 113.935C280.377 115.657 275.786 116.536 270.432 116.536V118.536C276.001 118.536 280.882 117.623 285.048 115.761L284.232 113.935ZM322.867 109.984L322.16 110.691L322.166 110.698L322.173 110.704L322.867 109.984ZM315.955 62.752H316.955V61.752H315.955V62.752ZM304.179 62.752H303.179V63.752H304.179V62.752ZM304.179 46.112V45.112H303.179V46.112H304.179ZM313.011 43.424L312.337 42.6855L312.329 42.693L312.321 42.7006L313.011 43.424ZM315.955 30.24V29.24H314.955V30.24H315.955ZM335.155 30.24H336.155V29.24H335.155V30.24ZM335.155 46.112H334.155V47.112H335.155V46.112ZM351.539 46.112H352.539V45.112H351.539V46.112ZM351.539 62.752V63.752H352.539V62.752H351.539ZM335.155 62.752V61.752H334.155V62.752H335.155ZM336.435 95.52L335.55 95.9857L335.555 95.9958L335.561 96.0056L336.435 95.52ZM340.403 98.976L340.797 98.0569L340.797 98.0569L340.403 98.976ZM349.107 100L349.217 100.994L349.217 100.994L349.107 100ZM351.539 99.744H352.539V98.639L351.439 98.749L351.539 99.744ZM351.539 116L351.671 116.991L352.539 116.876V116H351.539ZM347.187 116.512L347.082 115.517L347.082 115.517L347.187 116.512ZM342.579 115.768C334.31 115.768 328.018 113.559 323.561 109.264L322.173 110.704C327.103 115.455 333.952 117.768 342.579 117.768V115.768ZM323.574 109.277C319.199 104.902 316.955 98.7827 316.955 90.784H314.955C314.955 99.1693 317.319 105.85 322.16 110.691L323.574 109.277ZM316.955 90.784V62.752H314.955V90.784H316.955ZM315.955 61.752H304.179V63.752H315.955V61.752ZM305.179 62.752V46.112H303.179V62.752H305.179ZM304.179 47.112H304.819V45.112H304.179V47.112ZM304.819 47.112C308.561 47.112 311.577 46.1753 313.701 44.1474L312.321 42.7006C310.69 44.2567 308.245 45.112 304.819 45.112V47.112ZM313.685 44.1625C315.921 42.1216 316.955 39.1227 316.955 35.36H314.955C314.955 38.7652 314.027 41.1424 312.337 42.6855L313.685 44.1625ZM316.955 35.36V30.24H314.955V35.36H316.955ZM315.955 31.24H335.155V29.24H315.955V31.24ZM334.155 30.24V46.112H336.155V30.24H334.155ZM335.155 47.112H351.539V45.112H335.155V47.112ZM350.539 46.112V62.752H352.539V46.112H350.539ZM351.539 61.752H335.155V63.752H351.539V61.752ZM334.155 62.752V89.504H336.155V62.752H334.155ZM334.155 89.504C334.155 92.0079 334.602 94.1838 335.55 95.9857L337.32 95.0543C336.562 93.6135 336.155 91.7788 336.155 89.504H334.155ZM335.561 96.0056C336.534 97.7567 338.037 99.05 340.009 99.8951L340.797 98.0569C339.185 97.366 338.043 96.3553 337.309 95.0344L335.561 96.0056ZM340.009 99.8951C341.961 100.732 344.324 101.128 347.059 101.128V99.128C344.504 99.128 342.429 98.7561 340.797 98.0569L340.009 99.8951ZM347.059 101.128C347.702 101.128 348.423 101.082 349.217 100.994L348.997 99.0061C348.255 99.0885 347.611 99.128 347.059 99.128V101.128ZM349.217 100.994C349.981 100.909 350.788 100.824 351.639 100.739L351.439 98.749C350.583 98.8346 349.769 98.9203 348.997 99.0061L349.217 100.994ZM350.539 99.744V116H352.539V99.744H350.539ZM351.407 115.009C350.138 115.178 348.697 115.348 347.082 115.517L347.292 117.507C348.92 117.335 350.38 117.163 351.671 116.991L351.407 115.009ZM347.082 115.517C345.492 115.685 343.991 115.768 342.579 115.768V117.768C344.069 117.768 345.64 117.68 347.292 117.507L347.082 115.517ZM371.366 115.104L371.77 114.189L371.77 114.189L371.366 115.104ZM362.918 108.192L362.075 108.73L362.082 108.741L362.918 108.192ZM362.662 86.944L363.52 87.4585L363.526 87.4479L362.662 86.944ZM370.854 79.264L370.375 78.3861L370.367 78.3908L370.854 79.264ZM384.806 74.912L384.958 75.9004L384.966 75.8992L384.806 74.912ZM406.182 71.456H407.182V70.2813L406.022 70.4688L406.182 71.456ZM406.182 85.536L406.358 86.5204L407.182 86.3732V85.536H406.182ZM388.262 88.736L388.086 87.7515L388.078 87.7531L388.262 88.736ZM381.99 91.424L382.626 92.1959L382.639 92.1851L382.652 92.1738L381.99 91.424ZM382.246 101.664L382.839 100.859L382.839 100.859L382.246 101.664ZM402.086 95.904L401.218 95.4078L401.212 95.4184L402.086 95.904ZM400.934 63.264L400.275 64.0166L400.283 64.0232L400.291 64.0297L400.934 63.264ZM383.398 63.392L382.819 62.5765L382.813 62.581L382.807 62.5856L383.398 63.392ZM377.766 70.816L377.337 71.7193L378.308 72.1807L378.698 71.1784L377.766 70.816ZM362.406 63.52L361.462 63.1915L361.167 64.0385L361.977 64.4233L362.406 63.52ZM368.934 53.408L368.248 52.6804L368.934 53.408ZM379.686 46.88L379.341 45.9413L379.341 45.9413L379.686 46.88ZM408.998 47.776L409.425 46.8716L409.425 46.8716L408.998 47.776ZM419.494 56.736L418.653 57.2777L418.66 57.2886L418.668 57.2993L419.494 56.736ZM423.334 116V117H424.334V116H423.334ZM405.414 116H404.414V117H405.414V116ZM405.414 104.736L405.24 103.751L404.414 103.897V104.736H405.414ZM409.766 103.968L410.598 104.523L411.895 102.577L409.592 102.983L409.766 103.968ZM402.982 111.648L403.603 112.431L403.612 112.425L403.62 112.418L402.982 111.648ZM394.662 116L394.37 115.044L394.358 115.047L394.346 115.051L394.662 116ZM384.422 116.536C379.492 116.536 375.284 115.742 371.77 114.189L370.962 116.019C374.787 117.709 379.283 118.536 384.422 118.536V116.536ZM371.77 114.189C368.255 112.636 365.598 110.449 363.754 107.643L362.082 108.741C364.163 111.908 367.139 114.329 370.962 116.019L371.77 114.189ZM363.761 107.654C361.915 104.765 360.974 101.331 360.974 97.312H358.974C358.974 101.655 359.995 105.475 362.075 108.73L363.761 107.654ZM360.974 97.312C360.974 93.5444 361.832 90.2707 363.519 87.4585L361.805 86.4295C359.908 89.5906 358.974 93.229 358.974 97.312H360.974ZM363.526 87.4479C365.212 84.5565 367.8 82.1139 371.341 80.1372L370.367 78.3908C366.57 80.5101 363.696 83.1875 361.798 86.4401L363.526 87.4479ZM371.333 80.1419C374.96 78.1637 379.492 76.7413 384.958 75.9004L384.654 73.9236C379.027 74.7894 374.258 76.2683 370.375 78.3861L371.333 80.1419ZM384.966 75.8992L406.342 72.4432L406.022 70.4688L384.646 73.9248L384.966 75.8992ZM405.182 71.456V85.536H407.182V71.456H405.182ZM406.006 84.5516L388.086 87.7516L388.438 89.7204L406.358 86.5204L406.006 84.5516ZM388.078 87.7531C385.243 88.2847 382.961 89.2338 381.328 90.6742L382.652 92.1738C383.921 91.0542 385.82 90.2113 388.446 89.7189L388.078 87.7531ZM381.354 90.6521C379.621 92.0793 378.814 94.1433 378.814 96.672H380.814C380.814 94.5927 381.457 93.1581 382.626 92.1959L381.354 90.6521ZM378.814 96.672C378.814 99.101 379.758 101.073 381.653 102.469L382.839 100.859C381.491 99.8655 380.814 98.5096 380.814 96.672H378.814ZM381.653 102.469C383.476 103.813 385.7 104.456 388.262 104.456V102.456C386.045 102.456 384.258 101.905 382.839 100.859L381.653 102.469ZM388.262 104.456C391.567 104.456 394.517 103.74 397.078 102.276L396.086 100.54C393.869 101.807 391.271 102.456 388.262 102.456V104.456ZM397.078 102.276C399.619 100.824 401.587 98.8605 402.96 96.3896L401.212 95.4184C400.025 97.5555 398.324 99.2609 396.086 100.54L397.078 102.276ZM402.954 96.4001C404.408 93.8561 405.134 91.0818 405.134 88.096H403.134C403.134 90.7422 402.495 93.1733 401.218 95.4079L402.954 96.4001ZM405.134 88.096V69.92H403.134V88.096H405.134ZM405.134 69.92C405.134 66.9617 403.923 64.4687 401.577 62.4983L400.291 64.0297C402.212 65.6433 403.134 67.5876 403.134 69.92H405.134ZM401.593 62.5114C399.311 60.5151 396.234 59.576 392.486 59.576V61.576C395.906 61.576 398.461 62.4289 400.275 64.0166L401.593 62.5114ZM392.486 59.576C388.877 59.576 385.643 60.5726 382.819 62.5765L383.977 64.2075C386.444 62.4567 389.269 61.576 392.486 61.576V59.576ZM382.807 62.5856C380.087 64.5799 378.095 67.2113 376.834 70.4536L378.698 71.1784C379.826 68.2767 381.589 65.9587 383.989 64.1984L382.807 62.5856ZM378.195 69.9127L362.835 62.6167L361.977 64.4233L377.337 71.7193L378.195 69.9127ZM363.35 63.8485C364.664 60.0731 366.752 56.8399 369.62 54.1356L368.248 52.6804C365.143 55.6081 362.879 59.1162 361.462 63.1915L363.35 63.8485ZM369.62 54.1356C372.5 51.4199 375.965 49.3121 380.031 47.8187L379.341 45.9413C375.044 47.5199 371.341 49.7641 368.248 52.6804L369.62 54.1356ZM380.031 47.8187C384.09 46.3275 388.537 45.576 393.382 45.576V43.576C388.328 43.576 383.645 44.3605 379.341 45.9413L380.031 47.8187ZM393.382 45.576C399.148 45.576 404.204 46.6202 408.571 48.6804L409.425 46.8716C404.747 44.6651 399.392 43.576 393.382 43.576V45.576ZM408.571 48.6804C412.941 50.7418 416.29 53.6097 418.653 57.2777L420.335 56.1943C417.749 52.1823 414.1 49.0769 409.425 46.8716L408.571 48.6804ZM418.668 57.2993C421.102 60.8702 422.334 65.0637 422.334 69.92H424.334C424.334 64.7069 423.006 60.1111 420.32 56.1727L418.668 57.2993ZM422.334 69.92V116H424.334V69.92H422.334ZM423.334 115H405.414V117H423.334V115ZM406.414 116V104.736H404.414V116H406.414ZM405.588 105.721L409.94 104.953L409.592 102.983L405.24 103.751L405.588 105.721ZM408.934 103.413C406.932 106.416 404.734 108.9 402.344 110.878L403.62 112.418C406.179 110.3 408.504 107.664 410.598 104.523L408.934 103.413ZM402.361 110.865C399.986 112.748 397.324 114.141 394.37 115.044L394.954 116.956C398.144 115.982 401.029 114.473 403.603 112.431L402.361 110.865ZM394.346 115.051C391.391 116.036 388.086 116.536 384.422 116.536V118.536C388.267 118.536 391.789 118.012 394.978 116.949L394.346 115.051ZM452.775 112.8L452.27 113.663L452.278 113.668L452.286 113.672L452.775 112.8ZM439.463 99.616L438.6 100.121L438.606 100.13L439.463 99.616ZM439.463 62.368L440.323 62.8785L440.326 62.8727L439.463 62.368ZM452.775 49.312L453.264 50.1843L453.264 50.1843L452.775 49.312ZM486.183 47.264L485.809 48.1912L485.809 48.1912L486.183 47.264ZM497.575 54.816L496.858 55.5137L496.868 55.5231L497.575 54.816ZM504.359 66.08L504.755 66.9984L505.583 66.6415L505.313 65.7807L504.359 66.08ZM487.719 73.248L486.773 73.5711L487.122 74.594L488.115 74.1664L487.719 73.248ZM481.575 64.928L480.987 65.7368L480.998 65.745L481.575 64.928ZM462.759 64.288L462.236 63.4354L462.23 63.4392L462.224 63.4432L462.759 64.288ZM456.615 71.072L455.731 70.6041L455.726 70.6144L455.721 70.6248L456.615 71.072ZM456.615 91.04L455.721 91.4872L455.726 91.4976L455.731 91.5079L456.615 91.04ZM462.759 97.824L462.224 98.6688L462.23 98.6728L462.236 98.6766L462.759 97.824ZM481.703 97.184L482.291 97.9927L482.291 97.9927L481.703 97.184ZM487.719 88.864L488.121 87.9482L487.124 87.5113L486.773 88.5409L487.719 88.864ZM504.359 96.16L505.313 96.4583L505.581 95.6037L504.761 95.2442L504.359 96.16ZM497.703 107.168L496.987 106.47L496.987 106.47L497.703 107.168ZM486.311 114.848L486.685 115.775L486.693 115.772L486.701 115.769L486.311 114.848ZM471.719 116.536C464.878 116.536 458.734 114.994 453.264 111.928L452.286 113.672C458.08 116.92 464.565 118.536 471.719 118.536V116.536ZM453.28 111.937C447.879 108.779 443.563 104.505 440.32 99.1015L438.606 100.13C442.019 105.82 446.578 110.335 452.27 113.663L453.28 111.937ZM440.326 99.1113C437.18 93.7293 435.599 87.6765 435.599 80.928H433.599C433.599 88.0035 435.261 94.4093 438.6 100.121L440.326 99.1113ZM435.599 80.928C435.599 74.1793 437.18 68.1719 440.323 62.8785L438.603 61.8575C435.261 67.4868 433.599 73.8527 433.599 80.928H435.599ZM440.326 62.8727C443.479 57.4805 447.786 53.255 453.264 50.1843L452.286 48.4397C446.5 51.6836 441.933 56.1622 438.6 61.8633L440.326 62.8727ZM453.264 50.1843C458.734 47.1176 464.878 45.576 471.719 45.576V43.576C464.565 43.576 458.08 45.1917 452.286 48.4397L453.264 50.1843ZM471.719 45.576C476.807 45.576 481.5 46.4514 485.809 48.1912L486.557 46.3368C481.991 44.4926 477.041 43.576 471.719 43.576V45.576ZM485.809 48.1912C490.125 49.9343 493.804 52.376 496.859 55.5136L498.291 54.1184C495.032 50.7706 491.116 48.1777 486.557 46.3368L485.809 48.1912ZM496.868 55.5231C499.909 58.5639 502.087 62.1778 503.405 66.3793L505.313 65.7807C503.901 61.2782 501.556 57.3828 498.282 54.1089L496.868 55.5231ZM503.963 65.1616L487.323 72.3296L488.115 74.1664L504.755 66.9984L503.963 65.1616ZM488.665 72.9249C487.406 69.2355 485.233 66.2858 482.152 64.111L480.998 65.745C483.72 67.6662 485.643 70.2632 486.773 73.5711L488.665 72.9249ZM482.163 64.1193C479.163 61.937 475.668 60.856 471.719 60.856V62.856C475.28 62.856 478.355 63.823 480.987 65.7367L482.163 64.1193ZM471.719 60.856C468.22 60.856 465.051 61.7106 462.236 63.4354L463.282 65.1406C465.758 63.6227 468.562 62.856 471.719 62.856V60.856ZM462.224 63.4432C459.505 65.1653 457.342 67.5621 455.731 70.6041L457.499 71.5399C458.96 68.7792 460.893 66.6533 463.294 65.1328L462.224 63.4432ZM455.721 70.6248C454.19 73.6853 453.439 77.1706 453.439 81.056H455.439C455.439 77.4321 456.138 74.2613 457.509 71.5192L455.721 70.6248ZM453.439 81.056C453.439 84.9414 454.19 88.4267 455.721 91.4872L457.509 90.5928C456.138 87.8506 455.439 84.6799 455.439 81.056H453.439ZM455.731 91.5079C457.342 94.5499 459.505 96.9466 462.224 98.6688L463.294 96.9792C460.893 95.4587 458.96 93.3328 457.499 90.5721L455.731 91.5079ZM462.236 98.6766C465.051 100.401 468.22 101.256 471.719 101.256V99.256C468.562 99.256 465.758 98.4893 463.282 96.9714L462.236 98.6766ZM471.719 101.256C475.748 101.256 479.287 100.178 482.291 97.9927L481.115 96.3753C478.487 98.2862 475.37 99.256 471.719 99.256V101.256ZM482.291 97.9927C485.284 95.8159 487.408 92.868 488.665 89.1871L486.773 88.5409C485.64 91.8574 483.754 94.4561 481.115 96.3753L482.291 97.9927ZM487.317 89.7798L503.957 97.0758L504.761 95.2442L488.121 87.9482L487.317 89.7798ZM503.405 95.8617C502.174 99.7996 500.04 103.334 496.987 106.47L498.419 107.866C501.68 104.517 503.984 100.712 505.313 96.4583L503.405 95.8617ZM496.987 106.47C493.928 109.612 490.244 112.098 485.921 113.927L486.701 115.769C491.253 113.843 495.163 111.21 498.419 107.866L496.987 106.47ZM485.937 113.921C481.63 115.66 476.895 116.536 471.719 116.536V118.536C477.124 118.536 482.117 117.62 486.685 115.775L485.937 113.921ZM515.665 116H514.665V117H515.665V116ZM515.665 19.104V18.104H514.665V19.104H515.665ZM534.865 19.104H535.865V18.104H534.865V19.104ZM534.865 81.184L534.559 82.136L535.865 82.5558V81.184H534.865ZM527.697 78.88L526.969 78.1945L525.884 79.3475L527.391 79.832L527.697 78.88ZM558.545 46.112V45.112H558.113L557.817 45.4265L558.545 46.112ZM582.225 46.112L582.968 46.781L584.47 45.112H582.225V46.112ZM556.881 74.272L556.138 73.603L555.642 74.1544L556.025 74.7892L556.881 74.272ZM582.097 116V117H583.87L582.953 115.483L582.097 116ZM560.337 116L559.478 116.512L559.769 117H560.337V116ZM539.217 80.544L538.972 79.5745L537.671 79.9034L538.358 81.0558L539.217 80.544ZM550.353 77.728L551.09 78.4041L553.353 75.938L550.108 76.7585L550.353 77.728ZM528.977 101.024L528.093 100.557L529.714 101.7L528.977 101.024ZM534.865 89.888H535.865L533.981 89.4206L534.865 89.888ZM534.865 116V117H535.865V116H534.865ZM516.665 116V19.104H514.665V116H516.665ZM515.665 20.104H534.865V18.104H515.665V20.104ZM533.865 19.104V81.184H535.865V19.104H533.865ZM535.171 80.232L528.003 77.928L527.391 79.832L534.559 82.136L535.171 80.232ZM528.425 79.5655L559.273 46.7975L557.817 45.4265L526.969 78.1945L528.425 79.5655ZM558.545 47.112H582.225V45.112H558.545V47.112ZM581.482 45.443L556.138 73.603L557.624 74.941L582.968 46.781L581.482 45.443ZM556.025 74.7892L581.241 116.517L582.953 115.483L557.737 73.7548L556.025 74.7892ZM582.097 115H560.337V117H582.097V115ZM561.196 115.488L540.076 80.0322L538.358 81.0558L559.478 116.512L561.196 115.488ZM539.462 81.5135L550.598 78.6975L550.108 76.7585L538.972 79.5745L539.462 81.5135ZM549.616 77.0519L528.24 100.348L529.714 101.7L551.09 78.4041L549.616 77.0519ZM529.861 101.491L535.749 90.3554L533.981 89.4206L528.093 100.557L529.861 101.491ZM533.865 89.888V116H535.865V89.888H533.865ZM534.865 115H515.665V117H534.865V115ZM27.448 244H26.448V245H27.448V244ZM27.448 148.64V147.64H26.448V148.64H27.448ZM85.432 154.784L84.9573 155.664L84.9573 155.664L85.432 154.784ZM103.096 171.68L102.232 172.184L102.232 172.184L103.096 171.68ZM103.096 220.96L103.96 221.464L103.962 221.459L103.096 220.96ZM85.432 237.856L85.9067 238.736L85.9067 238.736L85.432 237.856ZM47.288 226.72H46.288V227.72H47.288V226.72ZM75.192 223.008L75.672 223.885L75.6783 223.882L75.6846 223.878L75.192 223.008ZM85.688 212.384L84.8138 211.898L84.8107 211.904L85.688 212.384ZM85.688 180.128L84.8107 180.608L84.8142 180.614L84.8177 180.621L85.688 180.128ZM47.288 165.92V164.92H46.288V165.92H47.288ZM28.448 244V148.64H26.448V244H28.448ZM27.448 149.64H58.552V147.64H27.448V149.64ZM58.552 149.64C68.7441 149.64 77.5346 151.661 84.9573 155.664L85.9067 153.904C78.14 149.715 69.0106 147.64 58.552 147.64V149.64ZM84.9573 155.664C92.3969 159.677 98.1473 165.181 102.232 172.184L103.96 171.176C99.682 163.843 93.6564 158.083 85.9067 153.904L84.9573 155.664ZM102.232 172.184C106.315 179.182 108.368 187.197 108.368 196.256H110.368C110.368 186.883 108.24 178.514 103.96 171.176L102.232 172.184ZM108.368 196.256C108.368 205.315 106.315 213.374 102.23 220.461L103.962 221.459C108.24 214.039 110.368 205.629 110.368 196.256H108.368ZM102.232 220.456C98.1473 227.459 92.3969 232.963 84.9573 236.976L85.9067 238.736C93.6564 234.557 99.682 228.797 103.96 221.464L102.232 220.456ZM84.9573 236.976C77.5346 240.979 68.7441 243 58.552 243V245C69.0106 245 78.14 242.925 85.9067 238.736L84.9573 236.976ZM58.552 243H27.448V245H58.552V243ZM47.288 227.72H59.064V225.72H47.288V227.72ZM59.064 227.72C65.4264 227.72 70.9744 226.456 75.672 223.885L74.712 222.131C70.3642 224.51 65.1603 225.72 59.064 225.72V227.72ZM75.6846 223.878C80.3679 221.227 84.0005 217.551 86.5653 212.864L84.8107 211.904C82.4262 216.262 79.0614 219.669 74.6994 222.138L75.6846 223.878ZM86.5622 212.87C89.2174 208.09 90.528 202.542 90.528 196.256H88.528C88.528 202.258 87.2786 207.462 84.8138 211.898L86.5622 212.87ZM90.528 196.256C90.528 189.888 89.2187 184.336 86.5583 179.635L84.8177 180.621C87.2773 184.966 88.528 190.165 88.528 196.256H90.528ZM86.5653 179.648C83.9989 174.958 80.3623 171.321 75.672 168.755L74.712 170.509C79.067 172.892 82.4278 176.253 84.8107 180.608L86.5653 179.648ZM75.672 168.755C70.9744 166.184 65.4264 164.92 59.064 164.92V166.92C65.1603 166.92 70.3642 168.13 74.712 170.509L75.672 168.755ZM59.064 164.92H47.288V166.92H59.064V164.92ZM46.288 165.92V226.72H48.288V165.92H46.288ZM135.001 240.672L134.481 241.526L134.49 241.532L135.001 240.672ZM122.329 227.36L123.209 226.886L123.209 226.886L122.329 227.36ZM122.457 190.24L121.591 189.739L121.585 189.75L122.457 190.24ZM135.129 177.312L135.641 178.171L135.641 178.171L135.129 177.312ZM167.769 175.264L167.382 176.186L167.39 176.189L167.398 176.192L167.769 175.264ZM178.521 182.56L177.785 183.237L177.79 183.242L177.795 183.247L178.521 182.56ZM185.305 193.568L184.366 193.913L184.369 193.919L185.305 193.568ZM187.353 211.104L186.361 210.98L186.357 211.009L186.355 211.037L187.353 211.104ZM186.713 214.432V215.432H187.413L187.653 214.774L186.713 214.432ZM134.361 214.432H133.361V215.432H134.361V214.432ZM134.361 200.352V199.352H133.361V200.352H134.361ZM175.833 200.352L176.424 201.159L178.891 199.352H175.833V200.352ZM166.745 207.008L165.771 206.781L165.16 209.408L167.336 207.815L166.745 207.008ZM166.617 197.28L165.666 197.588L165.668 197.596L166.617 197.28ZM161.625 190.496L161.03 191.3L161.046 191.312L161.064 191.323L161.625 190.496ZM144.473 190.368L143.912 189.541L143.911 189.541L144.473 190.368ZM139.097 197.536L140.032 197.89L140.032 197.89L139.097 197.536ZM137.689 209.056L138.685 209.143L138.691 209.071L138.687 208.999L137.689 209.056ZM139.097 219.424L138.178 219.818L138.178 219.818L139.097 219.424ZM144.985 226.464L144.443 227.304L144.453 227.311L144.462 227.317L144.985 226.464ZM163.289 226.848L162.806 225.972L162.799 225.976L162.793 225.98L163.289 226.848ZM169.049 221.216L169.478 220.313L168.641 219.915L168.181 220.72L169.049 221.216ZM184.409 228.512L185.337 228.883L185.686 228.012L184.838 227.609L184.409 228.512ZM177.881 237.472L177.23 236.713L177.225 236.717L177.219 236.722L177.881 237.472ZM167.513 243.488L167.835 244.435L167.844 244.432L167.853 244.428L167.513 243.488ZM154.329 244.536C147.054 244.536 140.794 242.949 135.512 239.812L134.49 241.532C140.131 244.881 146.756 246.536 154.329 246.536V244.536ZM135.521 239.818C130.209 236.581 126.111 232.274 123.209 226.886L121.449 227.834C124.521 233.54 128.87 238.107 134.481 241.526L135.521 239.818ZM123.209 226.886C120.307 221.495 118.849 215.516 118.849 208.928H116.849C116.849 215.823 118.378 222.132 121.449 227.834L123.209 226.886ZM118.849 208.928C118.849 202.082 120.35 196.025 123.329 190.73L121.585 189.75C118.42 195.378 116.849 201.779 116.849 208.928H118.849ZM123.323 190.741C126.397 185.423 130.501 181.239 135.641 178.171L134.617 176.453C129.176 179.7 124.832 184.134 121.591 189.739L123.323 190.741ZM135.641 178.171C140.765 175.113 146.558 173.576 153.049 173.576V171.576C146.228 171.576 140.075 173.196 134.617 176.453L135.641 178.171ZM153.049 173.576C158.489 173.576 163.259 174.455 167.382 176.186L168.156 174.342C163.745 172.489 158.703 171.576 153.049 171.576V173.576ZM167.398 176.192C171.535 177.848 174.992 180.197 177.785 183.237L179.257 181.883C176.248 178.608 172.536 176.094 168.14 174.336L167.398 176.192ZM177.795 183.247C180.686 186.303 182.876 189.856 184.366 193.913L186.244 193.223C184.662 188.918 182.33 185.131 179.247 181.873L177.795 183.247ZM184.369 193.919C185.858 197.891 186.609 202.251 186.609 207.008H188.609C188.609 202.037 187.824 197.437 186.241 193.217L184.369 193.919ZM186.609 207.008C186.609 208.332 186.526 209.655 186.361 210.98L188.345 211.228C188.521 209.822 188.609 208.415 188.609 207.008H186.609ZM186.355 211.037C186.274 212.249 186.075 213.261 185.773 214.09L187.653 214.774C188.034 213.726 188.261 212.519 188.351 211.171L186.355 211.037ZM186.713 213.432H134.361V215.432H186.713V213.432ZM135.361 214.432V200.352H133.361V214.432H135.361ZM134.361 201.352H175.833V199.352H134.361V201.352ZM175.242 199.545L166.154 206.201L167.336 207.815L176.424 201.159L175.242 199.545ZM167.719 207.235C168.603 203.433 168.577 199.996 167.566 196.964L165.668 197.596C166.535 200.196 166.594 203.244 165.771 206.781L167.719 207.235ZM167.568 196.972C166.565 193.872 164.771 191.422 162.187 189.669L161.064 191.323C163.258 192.813 164.791 194.886 165.666 197.588L167.568 196.972ZM162.22 189.692C159.713 187.835 156.635 186.936 153.049 186.936V188.936C156.29 188.936 158.929 189.743 161.03 191.3L162.22 189.692ZM153.049 186.936C149.552 186.936 146.491 187.79 143.912 189.541L145.035 191.195C147.234 189.703 149.89 188.936 153.049 188.936V186.936ZM143.911 189.541C141.324 191.296 139.417 193.866 138.162 197.182L140.032 197.89C141.167 194.892 142.843 192.683 145.035 191.195L143.911 189.541ZM138.162 197.182C136.904 200.507 136.429 204.495 136.691 209.113L138.687 208.999C138.437 204.571 138.901 200.88 140.032 197.89L138.162 197.182ZM136.693 208.969C136.34 213.024 136.821 216.651 138.178 219.818L140.016 219.03C138.813 216.224 138.355 212.938 138.685 209.143L136.693 208.969ZM138.178 219.818C139.534 222.981 141.625 225.486 144.443 227.304L145.527 225.624C143.055 224.029 141.22 221.84 140.016 219.03L138.178 219.818ZM144.462 227.317C147.295 229.053 150.685 229.896 154.585 229.896V227.896C150.976 227.896 147.965 227.118 145.508 225.611L144.462 227.317ZM154.585 229.896C158.131 229.896 161.212 229.186 163.785 227.716L162.793 225.98C160.587 227.24 157.866 227.896 154.585 227.896V229.896ZM163.772 227.724C166.403 226.272 168.458 224.265 169.917 221.712L168.181 220.72C166.909 222.945 165.124 224.693 162.806 225.972L163.772 227.724ZM168.62 222.119L183.98 229.415L184.838 227.609L169.478 220.313L168.62 222.119ZM183.481 228.141C182.179 231.394 180.103 234.25 177.23 236.713L178.532 238.231C181.632 235.574 183.908 232.457 185.337 228.883L183.481 228.141ZM177.219 236.722C174.421 239.191 171.077 241.135 167.173 242.548L167.853 244.428C171.97 242.939 175.538 240.873 178.543 238.222L177.219 236.722ZM167.191 242.541C163.296 243.867 159.012 244.536 154.329 244.536V246.536C159.203 246.536 163.708 245.84 167.835 244.435L167.191 242.541ZM219.553 244L218.623 244.366L218.872 245H219.553V244ZM192.033 174.112V173.112H190.564L191.103 174.478L192.033 174.112ZM212.769 174.112L213.71 173.773L213.471 173.112H212.769V174.112ZM231.841 226.976V227.976H233.265L232.782 226.637L231.841 226.976ZM223.905 226.976L222.964 226.637L222.481 227.976H223.905V226.976ZM242.977 174.112V173.112H242.275L242.036 173.773L242.977 174.112ZM263.713 174.112L264.643 174.478L265.182 173.112H263.713V174.112ZM236.193 244V245H236.874L237.123 244.366L236.193 244ZM220.483 243.634L192.963 173.746L191.103 174.478L218.623 244.366L220.483 243.634ZM192.033 175.112H212.769V173.112H192.033V175.112ZM211.828 174.451L230.9 227.315L232.782 226.637L213.71 173.773L211.828 174.451ZM231.841 225.976H223.905V227.976H231.841V225.976ZM224.846 227.315L243.918 174.451L242.036 173.773L222.964 226.637L224.846 227.315ZM242.977 175.112H263.713V173.112H242.977V175.112ZM262.783 173.746L235.263 243.634L237.123 244.366L264.643 174.478L262.783 173.746ZM236.193 243H219.553V245H236.193V243ZM285.251 240.672L284.731 241.526L284.74 241.532L285.251 240.672ZM272.579 227.36L273.459 226.886L273.459 226.886L272.579 227.36ZM272.707 190.24L271.841 189.739L271.835 189.75L272.707 190.24ZM285.379 177.312L285.891 178.171L285.891 178.171L285.379 177.312ZM318.019 175.264L317.632 176.186L317.64 176.189L317.648 176.192L318.019 175.264ZM328.771 182.56L328.035 183.237L328.04 183.242L328.045 183.247L328.771 182.56ZM335.555 193.568L334.616 193.913L334.619 193.919L335.555 193.568ZM337.603 211.104L336.611 210.98L336.607 211.009L336.605 211.037L337.603 211.104ZM336.963 214.432V215.432H337.663L337.903 214.774L336.963 214.432ZM284.611 214.432H283.611V215.432H284.611V214.432ZM284.611 200.352V199.352H283.611V200.352H284.611ZM326.083 200.352L326.674 201.159L329.141 199.352H326.083V200.352ZM316.995 207.008L316.021 206.781L315.41 209.408L317.586 207.815L316.995 207.008ZM316.867 197.28L315.916 197.588L315.918 197.596L316.867 197.28ZM311.875 190.496L311.28 191.3L311.296 191.312L311.314 191.323L311.875 190.496ZM294.723 190.368L294.162 189.541L294.161 189.541L294.723 190.368ZM289.347 197.536L290.282 197.89L290.282 197.89L289.347 197.536ZM287.939 209.056L288.935 209.143L288.941 209.071L288.937 208.999L287.939 209.056ZM289.347 219.424L288.428 219.818L288.428 219.818L289.347 219.424ZM295.235 226.464L294.693 227.304L294.703 227.311L294.712 227.317L295.235 226.464ZM313.539 226.848L313.056 225.972L313.049 225.976L313.043 225.98L313.539 226.848ZM319.299 221.216L319.728 220.313L318.891 219.915L318.431 220.72L319.299 221.216ZM334.659 228.512L335.587 228.883L335.936 228.012L335.088 227.609L334.659 228.512ZM328.131 237.472L327.48 236.713L327.475 236.717L327.469 236.722L328.131 237.472ZM317.763 243.488L318.085 244.435L318.094 244.432L318.103 244.428L317.763 243.488ZM304.579 244.536C297.304 244.536 291.044 242.949 285.762 239.812L284.74 241.532C290.381 244.881 297.006 246.536 304.579 246.536V244.536ZM285.771 239.818C280.459 236.581 276.361 232.274 273.459 226.886L271.699 227.834C274.771 233.54 279.12 238.107 284.731 241.526L285.771 239.818ZM273.459 226.886C270.557 221.495 269.099 215.516 269.099 208.928H267.099C267.099 215.823 268.628 222.132 271.699 227.834L273.459 226.886ZM269.099 208.928C269.099 202.082 270.6 196.025 273.579 190.73L271.835 189.75C268.67 195.378 267.099 201.779 267.099 208.928H269.099ZM273.573 190.741C276.647 185.423 280.751 181.239 285.891 178.171L284.867 176.453C279.426 179.7 275.082 184.134 271.841 189.739L273.573 190.741ZM285.891 178.171C291.015 175.113 296.808 173.576 303.299 173.576V171.576C296.478 171.576 290.325 173.196 284.867 176.453L285.891 178.171ZM303.299 173.576C308.739 173.576 313.509 174.455 317.632 176.186L318.406 174.342C313.995 172.489 308.953 171.576 303.299 171.576V173.576ZM317.648 176.192C321.785 177.848 325.242 180.197 328.035 183.237L329.507 181.883C326.498 178.608 322.786 176.094 318.39 174.336L317.648 176.192ZM328.045 183.247C330.936 186.303 333.126 189.856 334.616 193.913L336.494 193.223C334.912 188.918 332.58 185.131 329.497 181.873L328.045 183.247ZM334.619 193.919C336.108 197.891 336.859 202.251 336.859 207.008H338.859C338.859 202.037 338.074 197.437 336.491 193.217L334.619 193.919ZM336.859 207.008C336.859 208.332 336.776 209.655 336.611 210.98L338.595 211.228C338.771 209.822 338.859 208.415 338.859 207.008H336.859ZM336.605 211.037C336.524 212.249 336.325 213.261 336.023 214.09L337.903 214.774C338.284 213.726 338.511 212.519 338.601 211.171L336.605 211.037ZM336.963 213.432H284.611V215.432H336.963V213.432ZM285.611 214.432V200.352H283.611V214.432H285.611ZM284.611 201.352H326.083V199.352H284.611V201.352ZM325.492 199.545L316.404 206.201L317.586 207.815L326.674 201.159L325.492 199.545ZM317.969 207.235C318.853 203.433 318.827 199.996 317.816 196.964L315.918 197.596C316.785 200.196 316.844 203.244 316.021 206.781L317.969 207.235ZM317.818 196.972C316.815 193.872 315.021 191.422 312.437 189.669L311.314 191.323C313.508 192.813 315.041 194.886 315.916 197.588L317.818 196.972ZM312.47 189.692C309.963 187.835 306.885 186.936 303.299 186.936V188.936C306.54 188.936 309.179 189.743 311.28 191.3L312.47 189.692ZM303.299 186.936C299.802 186.936 296.741 187.79 294.162 189.541L295.285 191.195C297.484 189.703 300.14 188.936 303.299 188.936V186.936ZM294.161 189.541C291.574 191.296 289.667 193.866 288.412 197.182L290.282 197.89C291.417 194.892 293.093 192.683 295.285 191.195L294.161 189.541ZM288.412 197.182C287.154 200.507 286.679 204.495 286.941 209.113L288.937 208.999C288.687 204.571 289.151 200.88 290.282 197.89L288.412 197.182ZM286.943 208.969C286.59 213.024 287.071 216.651 288.428 219.818L290.266 219.03C289.063 216.224 288.605 212.938 288.935 209.143L286.943 208.969ZM288.428 219.818C289.784 222.981 291.875 225.486 294.693 227.304L295.777 225.624C293.305 224.029 291.47 221.84 290.266 219.03L288.428 219.818ZM294.712 227.317C297.545 229.053 300.935 229.896 304.835 229.896V227.896C301.226 227.896 298.215 227.118 295.758 225.611L294.712 227.317ZM304.835 229.896C308.381 229.896 311.462 229.186 314.035 227.716L313.043 225.98C310.837 227.24 308.116 227.896 304.835 227.896V229.896ZM314.022 227.724C316.653 226.272 318.708 224.265 320.167 221.712L318.431 220.72C317.159 222.945 315.374 224.693 313.056 225.972L314.022 227.724ZM318.87 222.119L334.23 229.415L335.088 227.609L319.728 220.313L318.87 222.119ZM333.731 228.141C332.429 231.394 330.353 234.25 327.48 236.713L328.782 238.231C331.882 235.574 334.158 232.457 335.587 228.883L333.731 228.141ZM327.469 236.722C324.671 239.191 321.327 241.135 317.423 242.548L318.103 244.428C322.22 242.939 325.788 240.873 328.793 238.222L327.469 236.722ZM317.441 242.541C313.546 243.867 309.262 244.536 304.579 244.536V246.536C309.453 246.536 313.958 245.84 318.085 244.435L317.441 242.541ZM349.165 244H348.165V245H349.165V244ZM349.165 147.104V146.104H348.165V147.104H349.165ZM368.365 147.104H369.365V146.104H368.365V147.104ZM368.365 244V245H369.365V244H368.365ZM350.165 244V147.104H348.165V244H350.165ZM349.165 148.104H368.365V146.104H349.165V148.104ZM367.365 147.104V244H369.365V147.104H367.365ZM368.365 243H349.165V245H368.365V243ZM398.159 240.8L397.67 241.672L397.676 241.675L398.159 240.8ZM384.591 227.872L383.734 228.386L383.738 228.394L383.743 228.402L384.591 227.872ZM384.591 190.24L383.743 189.71L383.737 189.72L384.591 190.24ZM398.159 177.312L397.676 176.437L397.67 176.44L398.159 177.312ZM449.359 190.24L448.505 190.76L448.511 190.77L449.359 190.24ZM449.359 227.872L448.507 227.348L448.505 227.352L449.359 227.872ZM435.919 240.8L436.408 241.672L435.919 240.8ZM426.191 225.824L425.668 224.971L425.662 224.975L425.656 224.979L426.191 225.824ZM432.335 219.04L431.451 218.572L431.446 218.582L431.441 218.593L432.335 219.04ZM432.335 199.2L431.441 199.647L431.449 199.663L431.457 199.679L432.335 199.2ZM426.191 192.416L425.636 193.248L425.652 193.259L425.668 193.269L426.191 192.416ZM407.887 192.416L408.41 193.269L408.419 193.263L408.429 193.256L407.887 192.416ZM401.615 199.2L400.731 198.732L400.726 198.742L401.615 199.2ZM401.615 219.04L400.721 219.487L400.726 219.498L400.731 219.508L401.615 219.04ZM407.887 225.824L407.364 226.677L407.364 226.677L407.887 225.824ZM417.103 244.536C410.35 244.536 404.203 242.995 398.642 239.925L397.676 241.675C403.55 244.919 410.032 246.536 417.103 246.536V244.536ZM398.648 239.928C393.162 236.852 388.763 232.661 385.439 227.342L383.743 228.402C387.246 234.006 391.892 238.433 397.67 241.672L398.648 239.928ZM385.448 227.358C382.221 221.979 380.599 215.887 380.599 209.056H378.599C378.599 216.219 380.305 222.672 383.734 228.386L385.448 227.358ZM380.599 209.056C380.599 202.137 382.223 196.048 385.445 190.76L383.737 189.72C380.303 195.354 378.599 201.81 378.599 209.056H380.599ZM385.439 190.77C388.763 185.451 393.162 181.26 398.648 178.184L397.67 176.44C391.892 179.679 387.246 184.106 383.743 189.71L385.439 190.77ZM398.642 178.187C404.203 175.117 410.35 173.576 417.103 173.576V171.576C410.032 171.576 403.55 173.193 397.676 176.437L398.642 178.187ZM417.103 173.576C423.856 173.576 429.958 175.117 435.43 178.184L436.408 176.44C430.616 173.193 424.174 171.576 417.103 171.576V173.576ZM435.43 178.184C440.914 181.258 445.267 185.447 448.505 190.76L450.213 189.72C446.795 184.11 442.188 179.68 436.408 176.44L435.43 178.184ZM448.511 190.77C451.815 196.057 453.479 202.141 453.479 209.056H455.479C455.479 201.805 453.729 195.346 450.207 189.71L448.511 190.77ZM453.479 209.056C453.479 215.883 451.816 221.971 448.507 227.348L450.211 228.396C453.728 222.68 455.479 216.224 455.479 209.056H453.479ZM448.505 227.352C445.267 232.665 440.914 236.854 435.43 239.928L436.408 241.672C442.188 238.432 446.795 234.002 450.213 228.392L448.505 227.352ZM435.43 239.928C429.958 242.995 423.856 244.536 417.103 244.536V246.536C424.174 246.536 430.616 244.919 436.408 241.672L435.43 239.928ZM417.103 229.256C420.761 229.256 423.982 228.406 426.726 226.669L425.656 224.979C423.28 226.484 420.442 227.256 417.103 227.256V229.256ZM426.714 226.677C429.526 224.953 431.699 222.548 433.229 219.487L431.441 218.593C430.07 221.335 428.147 223.452 425.668 224.971L426.714 226.677ZM433.219 219.508C434.841 216.443 435.639 212.95 435.639 209.056H433.639C433.639 212.671 432.901 215.834 431.451 218.572L433.219 219.508ZM435.639 209.056C435.639 205.163 434.842 201.707 433.213 198.721L431.457 199.679C432.9 202.325 433.639 205.44 433.639 209.056H435.639ZM433.229 198.753C431.699 195.692 429.526 193.287 426.714 191.563L425.668 193.269C428.147 194.788 430.07 196.905 431.441 199.647L433.229 198.753ZM426.746 191.584C424 189.753 420.771 188.856 417.103 188.856V190.856C420.432 190.856 423.262 191.665 425.636 193.248L426.746 191.584ZM417.103 188.856C413.434 188.856 410.169 189.753 407.345 191.576L408.429 193.256C410.895 191.665 413.774 190.856 417.103 190.856V188.856ZM407.364 191.563C404.557 193.284 402.346 195.682 400.731 198.732L402.499 199.668C403.956 196.915 405.926 194.791 408.41 193.269L407.364 191.563ZM400.726 198.742C399.19 201.724 398.439 205.171 398.439 209.056H400.439C400.439 205.431 401.139 202.308 402.504 199.658L400.726 198.742ZM398.439 209.056C398.439 212.941 399.19 216.427 400.721 219.487L402.509 218.593C401.138 215.851 400.439 212.68 400.439 209.056H398.439ZM400.731 219.508C402.346 222.558 404.557 224.956 407.364 226.677L408.41 224.971C405.926 223.449 403.956 221.325 402.499 218.572L400.731 219.508ZM407.364 226.677C410.186 228.406 413.444 229.256 417.103 229.256V227.256C413.765 227.256 410.878 226.484 408.41 224.971L407.364 226.677ZM465.79 269.6H464.79V270.6H465.79V269.6ZM465.79 174.112V173.112H464.79V174.112H465.79ZM483.71 174.112H484.71V173.112H483.71V174.112ZM483.71 187.424L482.792 187.822L484.71 187.424H483.71ZM482.046 183.584L481.211 183.034L480.913 183.486L481.128 183.982L482.046 183.584ZM491.39 175.52L491.821 176.422L491.83 176.418L491.39 175.52ZM523.134 177.44L523.65 176.584L523.65 176.584L523.134 177.44ZM535.934 190.624L535.065 191.119L535.068 191.124L535.934 190.624ZM535.934 227.488L535.065 226.993L535.059 227.003L535.934 227.488ZM523.262 240.672L522.746 239.816L522.746 239.816L523.262 240.672ZM491.646 242.976L491.238 243.889L491.25 243.894L491.261 243.899L491.646 242.976ZM481.918 235.168L481.127 234.556L480.669 235.148L481.108 235.755L481.918 235.168ZM484.99 231.2H485.99V228.275L484.199 230.588L484.99 231.2ZM484.99 269.6V270.6H485.99V269.6H484.99ZM512.126 225.824L512.637 226.684L512.637 226.684L512.126 225.824ZM518.526 219.04L517.642 218.572L517.642 218.572L518.526 219.04ZM518.526 199.2L517.642 199.668L517.648 199.679L518.526 199.2ZM512.126 192.416L511.596 193.264L511.606 193.27L511.615 193.276L512.126 192.416ZM493.438 192.288L492.927 191.428L492.915 191.435L493.438 192.288ZM487.166 199.072L486.282 198.604L486.277 198.614L486.272 198.625L487.166 199.072ZM487.166 219.04L486.272 219.487L486.277 219.498L486.282 219.508L487.166 219.04ZM493.438 225.824L492.915 226.677L492.927 226.684L493.438 225.824ZM466.79 269.6V174.112H464.79V269.6H466.79ZM465.79 175.112H483.71V173.112H465.79V175.112ZM482.71 174.112V187.424H484.71V174.112H482.71ZM484.628 187.026L482.964 183.186L481.128 183.982L482.792 187.822L484.628 187.026ZM482.881 184.134C485.081 180.793 488.054 178.224 491.821 176.422L490.959 174.618C486.876 176.57 483.619 179.377 481.211 183.034L482.881 184.134ZM491.83 176.418C495.685 174.532 500.096 173.576 505.086 173.576V171.576C499.836 171.576 495.117 172.583 490.95 174.622L491.83 176.418ZM505.086 173.576C511.571 173.576 517.407 175.153 522.618 178.296L523.65 176.584C518.109 173.241 511.913 171.576 505.086 171.576V173.576ZM522.618 178.296C527.844 181.449 531.991 185.718 535.065 191.119L536.803 190.129C533.563 184.437 529.176 179.916 523.65 176.584L522.618 178.296ZM535.068 191.124C538.13 196.421 539.67 202.39 539.67 209.056H541.67C541.67 202.069 540.052 195.749 536.8 190.123L535.068 191.124ZM539.67 209.056C539.67 215.634 538.132 221.606 535.065 226.993L536.803 227.983C540.051 222.277 541.67 215.961 541.67 209.056H539.67ZM535.059 227.003C532.071 232.399 527.97 236.664 522.746 239.816L523.778 241.528C529.306 238.194 533.653 233.671 536.809 227.972L535.059 227.003ZM522.746 239.816C517.539 242.956 511.619 244.536 504.958 244.536V246.536C511.95 246.536 518.233 244.873 523.778 241.528L522.746 239.816ZM504.958 244.536C500.301 244.536 495.996 243.705 492.031 242.053L491.261 243.899C495.488 245.66 500.058 246.536 504.958 246.536V244.536ZM492.054 242.063C488.196 240.339 485.095 237.846 482.728 234.581L481.108 235.755C483.69 239.316 487.074 242.029 491.238 243.889L492.054 242.063ZM482.709 235.78L485.781 231.812L484.199 230.588L481.127 234.556L482.709 235.78ZM483.99 231.2V269.6H485.99V231.2H483.99ZM484.99 268.6H465.79V270.6H484.99V268.6ZM502.654 229.256C506.394 229.256 509.732 228.408 512.637 226.684L511.615 224.964C509.058 226.482 506.082 227.256 502.654 227.256V229.256ZM512.637 226.684C515.531 224.965 517.791 222.566 519.41 219.508L517.642 218.572C516.189 221.317 514.183 223.44 511.615 224.964L512.637 226.684ZM519.41 219.508C521.032 216.443 521.83 212.95 521.83 209.056H519.83C519.83 212.671 519.092 215.834 517.642 218.572L519.41 219.508ZM521.83 209.056C521.83 205.163 521.033 201.707 519.404 198.721L517.648 199.679C519.091 202.325 519.83 205.44 519.83 209.056H521.83ZM519.41 198.732C517.791 195.674 515.531 193.275 512.637 191.556L511.615 193.276C514.183 194.8 516.189 196.923 517.642 199.668L519.41 198.732ZM512.656 191.568C509.749 189.751 506.404 188.856 502.654 188.856V190.856C506.072 190.856 509.042 191.668 511.596 193.264L512.656 191.568ZM502.654 188.856C499.075 188.856 495.824 189.708 492.927 191.428L493.949 193.148C496.513 191.625 499.406 190.856 502.654 190.856V188.856ZM492.915 191.435C490.108 193.156 487.897 195.554 486.282 198.604L488.05 199.54C489.507 196.787 491.477 194.663 493.961 193.141L492.915 191.435ZM486.272 198.625C484.741 201.685 483.99 205.171 483.99 209.056H485.99C485.99 205.432 486.689 202.261 488.06 199.519L486.272 198.625ZM483.99 209.056C483.99 212.941 484.741 216.427 486.272 219.487L488.06 218.593C486.689 215.851 485.99 212.68 485.99 209.056H483.99ZM486.282 219.508C487.897 222.558 490.108 224.956 492.915 226.677L493.961 224.971C491.477 223.449 489.507 221.325 488.05 218.572L486.282 219.508ZM492.927 226.684C495.824 228.404 499.075 229.256 502.654 229.256V227.256C499.406 227.256 496.513 226.487 493.949 224.964L492.927 226.684ZM566.251 240.672L565.731 241.526L565.74 241.532L566.251 240.672ZM553.579 227.36L554.459 226.886L554.459 226.886L553.579 227.36ZM553.707 190.24L552.841 189.739L552.835 189.75L553.707 190.24ZM566.379 177.312L566.891 178.171L566.891 178.171L566.379 177.312ZM599.019 175.264L598.632 176.186L598.64 176.189L598.648 176.192L599.019 175.264ZM609.771 182.56L609.035 183.237L609.04 183.242L609.045 183.247L609.771 182.56ZM616.555 193.568L615.616 193.913L615.619 193.919L616.555 193.568ZM618.603 211.104L617.611 210.98L617.607 211.009L617.605 211.037L618.603 211.104ZM617.963 214.432V215.432H618.663L618.903 214.774L617.963 214.432ZM565.611 214.432H564.611V215.432H565.611V214.432ZM565.611 200.352V199.352H564.611V200.352H565.611ZM607.083 200.352L607.674 201.159L610.141 199.352H607.083V200.352ZM597.995 207.008L597.021 206.781L596.41 209.408L598.586 207.815L597.995 207.008ZM597.867 197.28L596.916 197.588L596.918 197.596L597.867 197.28ZM592.875 190.496L592.28 191.3L592.296 191.312L592.314 191.323L592.875 190.496ZM575.723 190.368L575.162 189.541L575.161 189.541L575.723 190.368ZM570.347 197.536L571.282 197.89L571.282 197.89L570.347 197.536ZM568.939 209.056L569.935 209.143L569.941 209.071L569.937 208.999L568.939 209.056ZM570.347 219.424L569.428 219.818L569.428 219.818L570.347 219.424ZM576.235 226.464L575.693 227.304L575.703 227.311L575.712 227.317L576.235 226.464ZM594.539 226.848L594.056 225.972L594.049 225.976L594.043 225.98L594.539 226.848ZM600.299 221.216L600.728 220.313L599.891 219.915L599.431 220.72L600.299 221.216ZM615.659 228.512L616.587 228.883L616.936 228.012L616.088 227.609L615.659 228.512ZM609.131 237.472L608.48 236.713L608.475 236.717L608.469 236.722L609.131 237.472ZM598.763 243.488L599.085 244.435L599.094 244.432L599.103 244.428L598.763 243.488ZM585.579 244.536C578.304 244.536 572.044 242.949 566.762 239.812L565.74 241.532C571.381 244.881 578.006 246.536 585.579 246.536V244.536ZM566.771 239.818C561.459 236.581 557.361 232.274 554.459 226.886L552.699 227.834C555.771 233.54 560.12 238.107 565.731 241.526L566.771 239.818ZM554.459 226.886C551.557 221.495 550.099 215.516 550.099 208.928H548.099C548.099 215.823 549.628 222.132 552.699 227.834L554.459 226.886ZM550.099 208.928C550.099 202.082 551.6 196.025 554.579 190.73L552.835 189.75C549.67 195.378 548.099 201.779 548.099 208.928H550.099ZM554.573 190.741C557.647 185.423 561.751 181.239 566.891 178.171L565.867 176.453C560.426 179.7 556.082 184.134 552.841 189.739L554.573 190.741ZM566.891 178.171C572.015 175.113 577.808 173.576 584.299 173.576V171.576C577.478 171.576 571.325 173.196 565.867 176.453L566.891 178.171ZM584.299 173.576C589.739 173.576 594.509 174.455 598.632 176.186L599.406 174.342C594.995 172.489 589.953 171.576 584.299 171.576V173.576ZM598.648 176.192C602.785 177.848 606.242 180.197 609.035 183.237L610.507 181.883C607.498 178.608 603.786 176.094 599.39 174.336L598.648 176.192ZM609.045 183.247C611.936 186.303 614.126 189.856 615.616 193.913L617.494 193.223C615.912 188.918 613.58 185.131 610.497 181.873L609.045 183.247ZM615.619 193.919C617.108 197.891 617.859 202.251 617.859 207.008H619.859C619.859 202.037 619.074 197.437 617.491 193.217L615.619 193.919ZM617.859 207.008C617.859 208.332 617.776 209.655 617.611 210.98L619.595 211.228C619.771 209.822 619.859 208.415 619.859 207.008H617.859ZM617.605 211.037C617.524 212.249 617.325 213.261 617.023 214.09L618.903 214.774C619.284 213.726 619.511 212.519 619.601 211.171L617.605 211.037ZM617.963 213.432H565.611V215.432H617.963V213.432ZM566.611 214.432V200.352H564.611V214.432H566.611ZM565.611 201.352H607.083V199.352H565.611V201.352ZM606.492 199.545L597.404 206.201L598.586 207.815L607.674 201.159L606.492 199.545ZM598.969 207.235C599.853 203.433 599.827 199.996 598.816 196.964L596.918 197.596C597.785 200.196 597.844 203.244 597.021 206.781L598.969 207.235ZM598.818 196.972C597.815 193.872 596.021 191.422 593.437 189.669L592.314 191.323C594.508 192.813 596.041 194.886 596.916 197.588L598.818 196.972ZM593.47 189.692C590.963 187.835 587.885 186.936 584.299 186.936V188.936C587.54 188.936 590.179 189.743 592.28 191.3L593.47 189.692ZM584.299 186.936C580.802 186.936 577.741 187.79 575.162 189.541L576.285 191.195C578.484 189.703 581.14 188.936 584.299 188.936V186.936ZM575.161 189.541C572.574 191.296 570.667 193.866 569.412 197.182L571.282 197.89C572.417 194.892 574.093 192.683 576.285 191.195L575.161 189.541ZM569.412 197.182C568.154 200.507 567.679 204.495 567.941 209.113L569.937 208.999C569.687 204.571 570.151 200.88 571.282 197.89L569.412 197.182ZM567.943 208.969C567.59 213.024 568.071 216.651 569.428 219.818L571.266 219.03C570.063 216.224 569.605 212.938 569.935 209.143L567.943 208.969ZM569.428 219.818C570.784 222.981 572.875 225.486 575.693 227.304L576.777 225.624C574.305 224.029 572.47 221.84 571.266 219.03L569.428 219.818ZM575.712 227.317C578.545 229.053 581.935 229.896 585.835 229.896V227.896C582.226 227.896 579.215 227.118 576.758 225.611L575.712 227.317ZM585.835 229.896C589.381 229.896 592.462 229.186 595.035 227.716L594.043 225.98C591.837 227.24 589.116 227.896 585.835 227.896V229.896ZM595.022 227.724C597.653 226.272 599.708 224.265 601.167 221.712L599.431 220.72C598.159 222.945 596.374 224.693 594.056 225.972L595.022 227.724ZM599.87 222.119L615.23 229.415L616.088 227.609L600.728 220.313L599.87 222.119ZM614.731 228.141C613.429 231.394 611.353 234.25 608.48 236.713L609.782 238.231C612.882 235.574 615.158 232.457 616.587 228.883L614.731 228.141ZM608.469 236.722C605.671 239.191 602.327 241.135 598.423 242.548L599.103 244.428C603.22 242.939 606.788 240.873 609.793 238.222L608.469 236.722ZM598.441 242.541C594.546 243.867 590.262 244.536 585.579 244.536V246.536C590.453 246.536 594.958 245.84 599.085 244.435L598.441 242.541ZM630.165 244H629.165V245H630.165V244ZM630.165 174.112V173.112H629.165V174.112H630.165ZM648.085 174.112H649.085V173.112H648.085V174.112ZM648.085 190.88L647.2 191.346L649.085 190.88H648.085ZM646.805 188.448L645.837 188.196L645.74 188.571L645.92 188.914L646.805 188.448ZM654.357 176.544L654.862 177.407L654.868 177.403L654.357 176.544ZM671.125 173.344H672.125V172.344H671.125V173.344ZM671.125 189.984V190.984H672.125V189.984H671.125ZM653.717 194.336L654.413 195.054L654.419 195.048L654.424 195.043L653.717 194.336ZM649.365 244V245H650.365V244H649.365ZM631.165 244V174.112H629.165V244H631.165ZM630.165 175.112H648.085V173.112H630.165V175.112ZM647.085 174.112V190.88H649.085V174.112H647.085ZM648.97 190.414L647.69 187.982L645.92 188.914L647.2 191.346L648.97 190.414ZM647.773 188.7C649.275 182.942 651.685 179.267 654.862 177.407L653.852 175.681C650.031 177.917 647.407 182.178 645.837 188.196L647.773 188.7ZM654.868 177.403C658.274 175.376 662.315 174.344 667.029 174.344V172.344C662.015 172.344 657.608 173.445 653.846 175.685L654.868 177.403ZM667.029 174.344H671.125V172.344H667.029V174.344ZM670.125 173.344V189.984H672.125V173.344H670.125ZM671.125 188.984H665.109V190.984H671.125V188.984ZM665.109 188.984C660.192 188.984 656.126 190.513 653.01 193.629L654.424 195.043C657.111 192.357 660.639 190.984 665.109 190.984V188.984ZM653.021 193.618C649.873 196.673 648.365 200.974 648.365 206.368H650.365C650.365 201.351 651.758 197.631 654.413 195.054L653.021 193.618ZM648.365 206.368V244H650.365V206.368H648.365ZM649.365 243H630.165V245H649.365V243Z" fill="#A0CECB"/>
</svg>
