<svg width="64" height="64" viewBox="0 0 64 64" fill="none" xmlns="http://www.w3.org/2000/svg">
<path d="M50.1816 35.5434C48.4683 35.554 46.9848 36.0135 45.7405 36.6972C45.2811 35.6822 44.8217 34.7955 44.7451 34.1331C44.659 33.3638 44.5537 32.8937 44.659 31.9749C44.7643 31.056 45.2428 29.7526 45.2428 29.6457C45.2333 29.5496 45.1376 29.0795 44.1517 29.0688C43.1659 29.0581 42.3141 29.2825 42.2184 29.571C42.1226 29.8594 41.9312 30.5218 41.8068 31.2056C41.6345 32.2099 39.8351 35.7677 38.811 37.6374C38.476 36.9109 38.1889 36.2699 38.1315 35.757C38.0453 34.9878 37.9401 34.5177 38.0453 33.5989C38.1506 32.68 38.6292 31.3766 38.6292 31.2697C38.6196 31.1736 38.5239 30.7035 37.5381 30.6928C36.5522 30.6821 35.7004 30.9065 35.6047 31.1949C35.509 31.4834 35.4037 32.1672 35.1931 32.8296C34.9921 33.492 32.5993 39.4324 31.9772 40.9815C31.6614 41.7722 31.3838 42.4025 31.1828 42.8299C30.9818 43.2573 31.1732 42.8619 31.1541 42.9047C30.9818 43.2679 30.8861 43.4709 30.8861 43.4709V43.4816C30.7521 43.7487 30.6086 44.0051 30.5416 44.0051C30.4937 44.0051 30.398 43.2893 30.5607 42.3064C30.9148 40.2443 31.7762 37.0284 31.7667 36.9109C31.7667 36.8575 31.9294 36.2912 31.2115 36.0028C30.5128 35.7143 30.264 36.1951 30.2066 36.1951C30.1491 36.1951 30.1013 36.366 30.1013 36.366C30.1013 36.366 30.8765 32.7441 28.6178 32.7441C27.2012 32.7441 25.2487 34.4643 24.282 36.0348C23.6695 36.4088 22.3678 37.1994 20.9895 38.0434C20.4631 38.3639 19.9176 38.7058 19.4007 39.0157L19.2955 38.8875C16.5581 35.6288 11.495 33.3211 11.7055 28.9406C11.7821 27.3487 12.2798 23.1498 21.4298 18.0642C28.924 13.8974 34.9251 15.0406 35.9684 17.5834C37.4519 21.216 32.7621 27.9683 24.9711 28.9406C22.0041 29.3145 20.444 28.0325 20.0516 27.5517C19.64 27.0495 19.5826 27.0281 19.4295 27.1243C19.1806 27.2739 19.3337 27.7226 19.4295 27.9897C19.6592 28.6628 20.6163 29.8594 22.2434 30.4577C23.6695 30.9813 27.1534 31.2697 31.3647 29.4534C36.0832 27.4128 39.7681 21.7502 38.6866 17.0172C37.5859 12.1987 30.4267 10.6174 23.6599 13.2991C19.6304 14.9017 15.266 17.4018 12.1267 20.6818C8.39392 24.5708 7.80051 27.9683 8.04936 29.3786C8.92033 34.4108 15.132 37.6909 17.6205 40.1161C17.4961 40.1909 17.3812 40.2657 17.2759 40.3298C16.0317 41.0136 11.294 43.7808 10.1072 46.7082C8.76719 50.0203 10.3177 52.4028 11.3514 52.7233C14.5482 53.717 17.8215 51.9327 19.5922 48.9946C21.3533 46.0565 21.1427 42.2423 20.3291 40.5008L20.3004 40.4367L21.2767 39.7956C21.9084 39.3789 22.5305 38.9943 23.0761 38.6631C22.7698 39.5926 22.5496 40.6931 22.4348 42.2957C22.3008 44.1761 22.9899 46.6121 23.8992 47.5736C24.3012 47.9903 24.7797 48.001 25.0764 48.001C26.1293 48.001 26.6078 47.0287 27.1342 45.8642C27.7851 44.4432 28.3593 42.7978 28.3593 42.7978C28.3593 42.7978 27.6415 47.2531 29.6036 47.2531C30.3214 47.2531 31.0393 46.2167 31.3647 45.6825V45.6932C31.3647 45.6932 31.3838 45.6612 31.4221 45.5864C31.4987 45.4582 31.537 45.3834 31.537 45.3834V45.362C31.8241 44.8064 32.4654 43.535 33.4225 41.4303C34.6571 38.7165 35.844 35.319 35.844 35.319C35.844 35.319 35.9588 36.1523 36.313 37.5199C36.5235 38.3319 36.9829 39.2187 37.3371 40.0841C37.0499 40.5328 36.8777 40.7892 36.8777 40.7892L36.8872 40.7999C36.6575 41.1418 36.3991 41.5051 36.1311 41.8683C35.1548 43.1718 33.9872 44.6569 33.834 45.0842C33.6522 45.5864 33.6905 45.9603 34.0446 46.2595C34.303 46.4732 34.7624 46.5159 35.2506 46.4732C36.1311 46.4091 36.7437 46.1633 37.0499 46.0137C37.5285 45.8214 38.074 45.533 38.6005 45.1056C39.5576 44.315 40.1414 43.1932 40.084 41.6974C40.0553 40.8747 39.816 40.0627 39.5193 39.2935C39.6054 39.1546 39.6916 39.0157 39.7777 38.8661C41.29 36.3981 42.4576 33.6843 42.4576 33.6843C42.4576 33.6843 42.5725 34.5177 42.9266 35.8852C43.1085 36.5797 43.4722 37.3383 43.7976 38.0862C42.3811 39.3789 41.4909 40.8747 41.1847 41.8576C40.62 43.6739 41.0602 44.4966 41.8929 44.6889C42.2662 44.7744 42.8022 44.5821 43.2042 44.3898C43.7019 44.2081 44.3049 43.8983 44.86 43.4389C45.8171 42.6483 46.7359 41.5478 46.6881 40.0627C46.6594 39.3789 46.4967 38.7058 46.2765 38.0648C47.4825 37.5092 49.0426 37.1887 51.0238 37.4558C55.283 38.0114 56.1252 40.9815 55.9625 42.2209C55.7998 43.4603 54.9097 44.144 54.613 44.3577C54.3163 44.5607 54.2206 44.6355 54.2493 44.7851C54.2876 45.0094 54.4216 44.9988 54.68 44.956C55.0341 44.8919 56.9196 43.941 56.9962 41.6546C57.1111 38.7165 54.613 35.5113 50.1816 35.5434ZM17.3334 47.9048C15.9264 49.625 13.9452 50.2767 13.1029 49.7211C12.1937 49.1335 12.5478 46.6014 14.2802 44.7744C15.333 43.6632 16.7017 42.6376 17.6014 42.0072C17.8024 41.8683 18.1086 41.6653 18.4723 41.4196C18.5298 41.3769 18.568 41.3555 18.568 41.3555C18.635 41.3128 18.7116 41.2593 18.7882 41.2059C19.4295 43.8128 18.8169 46.0992 17.3334 47.9048ZM27.6224 40.0948C27.1342 41.4303 26.1005 44.8599 25.4784 44.6676C24.9424 44.5073 24.617 41.9111 25.3731 39.3469C25.756 38.0541 26.5695 36.5156 27.0481 35.9173C27.8233 34.9557 28.6656 34.6352 28.8762 35.0305C29.125 35.5434 27.9286 39.2614 27.6224 40.0948ZM36.112 44.6248C35.9014 44.7423 35.71 44.8278 35.6238 44.7637C35.5568 44.721 35.71 44.5607 35.71 44.5607C35.71 44.5607 36.7724 43.2893 37.1935 42.7017C37.4328 42.3598 37.7199 41.9645 38.0262 41.5157V41.644C38.0262 43.1825 36.7054 44.2081 36.112 44.6248ZM42.6586 42.9581C42.5055 42.8299 42.5246 42.4346 43.0415 41.1952C43.2425 40.7038 43.7019 39.8811 44.4963 39.1011C44.592 39.4217 44.6494 39.7315 44.6399 40.02C44.6303 41.9431 43.4052 42.6589 42.6586 42.9581Z" fill="#CF649A"/>
</svg>
