<svg xmlns="http://www.w3.org/2000/svg" height="24" width="24"><path d="M7.625 22q-.7 0-1.162-.462Q6 21.075 6 20.375V3.625q0-.7.463-1.163Q6.925 2 7.625 2h8.75q.7 0 1.163.462.462.463.462 1.163v16.75q0 .7-.462 1.163-.463.462-1.163.462ZM7 17.55v2.825q0 .25.188.437.187.188.437.188h8.75q.25 0 .437-.188.188-.187.188-.437V17.55Zm5 2.5q.3 0 .538-.238.237-.237.237-.537 0-.325-.237-.55Q12.3 18.5 12 18.5q-.3 0-.537.225-.238.225-.238.55 0 .3.238.537.237.238.537.238Zm-5-3.5h10V5.5H7ZM7 4.5h10v-.875q0-.25-.188-.437Q16.625 3 16.375 3h-8.75q-.25 0-.437.188Q7 3.375 7 3.625Zm0 13.05V21v-.625ZM7 4.5V3v1.5Z"/></svg>