<svg width="32" height="32" viewBox="0 0 32 32" fill="none" xmlns="http://www.w3.org/2000/svg">
<path d="M13.5734 22.6773C13.7334 22.6773 13.8547 22.672 13.9347 22.6613C14.0286 22.6423 14.1132 22.592 14.1747 22.5187C14.2547 22.4347 14.2947 22.3133 14.2947 22.1533L14.2894 21.4107C14.2854 20.9373 14.284 20.5613 14.284 20.2853L14.0334 20.3293C13.8328 20.3609 13.6297 20.3734 13.4267 20.3667C13.1717 20.3622 12.9175 20.3367 12.6667 20.2907C12.4005 20.241 12.15 20.1286 11.936 19.9627C11.7117 19.793 11.5443 19.5591 11.456 19.292L11.3467 19.04C11.2547 18.8415 11.1392 18.6549 11.0027 18.484C10.8801 18.3088 10.7168 18.166 10.5267 18.068L10.4507 18.0147C10.3984 17.9761 10.3509 17.9313 10.3094 17.8813C10.2691 17.8359 10.2358 17.7847 10.2107 17.7293C10.1894 17.6787 10.2067 17.636 10.264 17.604C10.3647 17.5636 10.4732 17.5467 10.5814 17.5547L10.8 17.588C10.9467 17.616 11.1267 17.704 11.3414 17.8493C11.5547 17.996 11.732 18.184 11.8707 18.4173C12.0387 18.716 12.24 18.944 12.4774 19.1C12.6869 19.2477 12.9357 19.3295 13.192 19.3347C13.432 19.3347 13.64 19.3173 13.8147 19.2813C13.9847 19.2461 14.1499 19.1906 14.3067 19.116C14.372 18.6293 14.5494 18.2533 14.84 17.992C14.4627 17.9547 14.0887 17.8887 13.7214 17.7947C13.3627 17.6958 13.0178 17.5525 12.6947 17.368C12.3563 17.1844 12.0573 16.9362 11.8147 16.6373C11.5827 16.3453 11.392 15.964 11.2414 15.4907C11.0843 14.9589 11.0092 14.4064 11.0187 13.852C11.0187 12.972 11.3067 12.2213 11.8814 11.6027C11.612 10.94 11.6374 10.1973 11.9574 9.37466C12.1694 9.308 12.4827 9.35733 12.8974 9.52133C13.312 9.68533 13.6174 9.82533 13.8094 9.94266C14.0027 10.0587 14.156 10.156 14.2734 10.236C14.9563 10.0463 15.662 9.95123 16.3707 9.95333C17.0907 9.95333 17.7907 10.0467 18.468 10.2373L18.8814 9.97466C19.1667 9.80133 19.5014 9.64 19.8867 9.49466C20.2734 9.348 20.568 9.308 20.772 9.37466C21.1 10.1973 21.1294 10.94 20.8587 11.6013C21.4347 12.2213 21.7227 12.9707 21.7227 13.852C21.7227 14.4707 21.648 15.0187 21.4987 15.496C21.3494 15.9733 21.156 16.3547 20.92 16.6427C20.6734 16.9386 20.373 17.1851 20.0347 17.3693C19.7116 17.5539 19.3667 17.6972 19.008 17.796C18.6402 17.8897 18.2658 17.9552 17.888 17.992C18.2667 18.3187 18.456 18.836 18.456 19.5427V22.152C18.456 22.276 18.4747 22.376 18.5107 22.4533C18.5276 22.4902 18.5518 22.5232 18.5819 22.5505C18.6119 22.5777 18.6471 22.5987 18.6854 22.612C18.7654 22.64 18.8374 22.6587 18.8987 22.6653C18.9614 22.6733 19.0494 22.6773 19.1654 22.6773H16.544H13.5734Z" fill="#1E293B"/>
<path d="M16 26.6667C18.8289 26.6667 21.542 25.5429 23.5424 23.5425C25.5428 21.5421 26.6666 18.829 26.6666 16C26.6666 13.171 25.5428 10.4579 23.5424 8.45753C21.542 6.45715 18.8289 5.33334 16 5.33334C13.171 5.33334 10.4579 6.45715 8.45749 8.45753C6.4571 10.4579 5.33329 13.171 5.33329 16C5.33329 18.829 6.4571 21.5421 8.45749 23.5425C10.4579 25.5429 13.171 26.6667 16 26.6667ZM16 29.3333C8.63596 29.3333 2.66663 23.364 2.66663 16C2.66663 8.63601 8.63596 2.66667 16 2.66667C23.364 2.66667 29.3333 8.63601 29.3333 16C29.3333 23.364 23.364 29.3333 16 29.3333Z" fill="#1E293B"/>
</svg>
