<svg width="32" height="32" viewBox="0 0 32 32" fill="none" xmlns="http://www.w3.org/2000/svg">
<path d="M22.6666 17.5067V22.436H19.8093V17.836C19.8093 16.6813 19.396 15.8933 18.3613 15.8933C17.572 15.8933 17.1013 16.424 16.8946 16.9387C16.82 17.1227 16.8 17.3787 16.8 17.6347V22.436H13.9413C13.9413 22.436 13.98 14.6467 13.9413 13.84H16.8V15.0573L16.7813 15.0853H16.8V15.0573C17.18 14.4707 17.8573 13.6373 19.376 13.6373C21.256 13.6373 22.6666 14.8667 22.6666 17.5067ZM10.9506 9.69467C9.97331 9.69467 9.33331 10.3373 9.33331 11.18C9.33331 12.0067 9.95465 12.6667 10.9133 12.6667H10.932C11.9293 12.6667 12.5493 12.0053 12.5493 11.18C12.5306 10.3373 11.9293 9.69467 10.9506 9.69467ZM9.50265 22.436H12.3613V13.84H9.50265V22.436Z" fill="#1E293B"/>
<path d="M16 26.6667C18.829 26.6667 21.5421 25.5429 23.5425 23.5425C25.5429 21.5421 26.6667 18.829 26.6667 16C26.6667 13.171 25.5429 10.4579 23.5425 8.45753C21.5421 6.45714 18.829 5.33334 16 5.33334C13.171 5.33334 10.4579 6.45714 8.45755 8.45753C6.45716 10.4579 5.33335 13.171 5.33335 16C5.33335 18.829 6.45716 21.5421 8.45755 23.5425C10.4579 25.5429 13.171 26.6667 16 26.6667ZM16 29.3333C8.63602 29.3333 2.66669 23.364 2.66669 16C2.66669 8.63601 8.63602 2.66667 16 2.66667C23.364 2.66667 29.3334 8.63601 29.3334 16C29.3334 23.364 23.364 29.3333 16 29.3333Z" fill="#1E293B"/>
</svg>
