<svg width="16" height="16" viewBox="0 0 16 16" fill="none" xmlns="http://www.w3.org/2000/svg">
<path d="M12 0.571411H4.00003C3.36886 0.571411 2.85718 1.08309 2.85718 1.71427V14.2857C2.85718 14.9169 3.36886 15.4286 4.00003 15.4286H12C12.6312 15.4286 13.1429 14.9169 13.1429 14.2857V1.71427C13.1429 1.08309 12.6312 0.571411 12 0.571411Z" fill="#F3F4F6"/>
<path d="M12 0.571411H4.00003C3.36886 0.571411 2.85718 1.08309 2.85718 1.71427V14.2857C2.85718 14.9169 3.36886 15.4286 4.00003 15.4286H12C12.6312 15.4286 13.1429 14.9169 13.1429 14.2857V1.71427C13.1429 1.08309 12.6312 0.571411 12 0.571411Z" stroke="#9CA3AF" stroke-linecap="round" stroke-linejoin="round"/>
<path d="M7.42847 12.5714H8.57132" stroke="#9CA3AF" stroke-linecap="round" stroke-linejoin="round"/>
</svg>
