<svg width="32" height="32" viewBox="0 0 64 64" fill="none" xmlns="http://www.w3.org/2000/svg">
<path d="M32 5.33334C46.7276 5.33334 58.6667 17.2724 58.6667 32C58.6667 46.7276 46.7276 58.6667 32 58.6667C17.2724 58.6667 5.33337 46.7276 5.33337 32C5.33337 17.2724 17.2724 5.33334 32 5.33334ZM43.8441 21.3333C42.8282 21.3514 41.2695 21.8864 33.7684 24.9667C31.1413 26.0455 25.8906 28.2784 18.0166 31.6653C16.7379 32.1673 16.0681 32.6584 16.0071 33.1386C15.8901 34.0605 17.2345 34.3475 18.926 34.8903C20.3051 35.3329 22.1603 35.8507 23.1247 35.8713C23.9995 35.8899 24.9759 35.5339 26.0538 34.8031C33.4108 29.9001 37.2086 27.4219 37.447 27.3685C37.6152 27.3308 37.8483 27.2834 38.0062 27.422C38.1642 27.5606 38.1486 27.8231 38.1319 27.8935C37.9982 28.4565 31.0871 34.6626 30.6894 35.0704L30.4986 35.2622C29.0331 36.7096 27.5519 37.6547 30.1076 39.3174C32.4151 40.8187 33.7582 41.7764 36.1354 43.3149C37.6546 44.298 38.8457 45.4639 40.4143 45.3214C41.136 45.2559 41.8816 44.5858 42.2602 42.5875C43.155 37.8648 44.9138 27.6323 45.3203 23.4157C45.3559 23.0462 45.3111 22.5734 45.2752 22.3659C45.2392 22.1584 45.164 21.8626 44.8907 21.6437C44.5671 21.3845 44.0675 21.3298 43.8441 21.3333Z" fill="#1E293B"/>
</svg>
