<svg width="32" height="32" viewBox="0 0 32 32" fill="none" xmlns="http://www.w3.org/2000/svg">
<path d="M15.3547 2.68266C8.27469 3.01599 2.68936 8.86933 2.71069 15.9053C2.7142 17.9764 3.21006 20.0169 4.15736 21.8587L2.74669 28.66C2.72948 28.745 2.73399 28.833 2.7598 28.9159C2.78561 28.9987 2.83188 29.0737 2.89435 29.1339C2.95682 29.1941 3.03346 29.2376 3.11718 29.2603C3.20091 29.2831 3.28902 29.2843 3.37336 29.264L10.0854 27.6853C11.8631 28.5638 13.8146 29.0339 15.7974 29.0613C23.0334 29.172 29.0654 23.468 29.2907 16.288C29.5334 8.58799 23.1347 2.31333 15.3547 2.68133V2.68266ZM23.364 23.172C22.3967 24.1359 21.2486 24.8994 19.9856 25.4188C18.7227 25.9382 17.3696 26.2032 16.004 26.1987C14.3974 26.2036 12.8116 25.8348 11.372 25.1213L10.4374 24.6587L6.32136 25.6267L7.18803 21.452L6.72669 20.556C5.97883 19.1063 5.59101 17.4979 5.59603 15.8667C5.59603 13.1067 6.67869 10.5107 8.64403 8.55999C10.603 6.62093 13.2477 5.53285 16.004 5.53199C18.7854 5.53199 21.3987 6.60666 23.364 8.55866C24.3323 9.51284 25.1007 10.6505 25.6243 11.905C26.1478 13.1596 26.4161 14.5059 26.4134 15.8653C26.4134 18.6013 25.3134 21.2387 23.364 23.1733V23.172Z" fill="#1E293B"/>
<path d="M22.456 18.7267L19.8813 17.9933C19.7152 17.9456 19.5393 17.9435 19.372 17.9871C19.2048 18.0308 19.0523 18.1186 18.9306 18.2413L18.3013 18.8787C18.1711 19.0106 18.0049 19.1011 17.8235 19.1391C17.6421 19.177 17.4535 19.1607 17.2813 19.092C16.064 18.6027 13.5013 16.3413 12.8466 15.2093C12.7549 15.0494 12.713 14.8658 12.7263 14.6819C12.7396 14.4981 12.8075 14.3223 12.9213 14.1773L13.4706 13.4707C13.5764 13.3353 13.6433 13.1737 13.6642 13.0031C13.6851 12.8326 13.6592 12.6596 13.5893 12.5027L12.5066 10.0707C12.4454 9.93474 12.3535 9.81486 12.2381 9.72046C12.1227 9.62606 11.987 9.55972 11.8416 9.52664C11.6962 9.49356 11.5452 9.49465 11.4003 9.52982C11.2554 9.56499 11.1207 9.63328 11.0066 9.72933C10.288 10.3333 9.43465 11.2493 9.33198 12.2667C9.14931 14.0573 9.92265 16.3147 12.848 19.0267C16.228 22.1587 18.936 22.5733 20.6973 22.148C21.6973 21.908 22.4973 20.944 23 20.156C23.0804 20.0308 23.1303 19.8885 23.1457 19.7406C23.161 19.5926 23.1415 19.4431 23.0886 19.3041C23.0357 19.1651 22.9509 19.0404 22.841 18.9401C22.7311 18.8398 22.5993 18.7667 22.456 18.7267Z" fill="#1E293B"/>
</svg>

