<?xml version="1.0" encoding="utf-8"?>
<!-- Generator: Adobe Illustrator 16.0.3, SVG Export Plug-In . SVG Version: 6.00 Build 0)  -->
<!DOCTYPE svg PUBLIC "-//W3C//DTD SVG 1.1//EN" "http://www.w3.org/Graphics/SVG/1.1/DTD/svg11.dtd">
<svg version="1.1" xmlns="http://www.w3.org/2000/svg" xmlns:xlink="http://www.w3.org/1999/xlink" x="0px" y="0px" width="500px"
	 height="500px" viewBox="0 0 500 500" enable-background="new 0 0 500 500" xml:space="preserve">
<g id="Background_Simple">
</g>
<g id="Plants">
</g>
<g id="Keyboard">
</g>
<g id="Hands">
</g>
<g id="Coffee">
</g>
<g id="Monitor">
</g>
<g id="Code_1_">
</g>
<g id="Mouse">
	<g>
		<path fill="#E5CFC1" d="M481.43,226.992c0,9.61-1.05,19.18-3.33,28.48c-0.75,3.061-1.649,6.109-2.68,9.109
			c-0.3,0.861-0.6,1.721-0.92,2.57c-0.26,0.701-0.53,1.4-0.8,2.09c-0.08,0.189-0.15,0.381-0.23,0.57
			c-0.29,0.721-0.58,1.439-0.89,2.15c-0.05,0.109-0.101,0.23-0.15,0.35c-0.3,0.699-0.609,1.4-0.92,2.09
			c-0.14,0.311-0.28,0.609-0.42,0.91c-0.28,0.619-0.57,1.23-0.87,1.84c-0.31,0.65-0.63,1.291-0.95,1.93
			c-0.119,0.23-0.229,0.461-0.35,0.68c-0.28,0.551-0.57,1.102-0.85,1.65c-0.23,0.43-0.46,0.85-0.69,1.27
			c-1.06,1.961-2.17,3.891-3.33,5.801c-0.47,0.779-0.95,1.561-1.439,2.33c-0.11,0.189-0.23,0.381-0.351,0.57
			c-0.56,0.879-1.13,1.76-1.71,2.641c-0.47,0.709-0.939,1.42-1.43,2.129c-0.42,0.621-0.84,1.23-1.271,1.85
			c-0.09,0.131-0.18,0.26-0.279,0.391c-0.44,0.641-0.9,1.279-1.351,1.92c-0.56,0.791-1.13,1.561-1.7,2.34
			c-0.119,0.16-0.229,0.32-0.35,0.471c-0.65,0.889-1.32,1.77-1.979,2.639c-0.4,0.521-0.801,1.051-1.211,1.561
			c-0.72,0.951-1.46,1.891-2.21,2.83c-0.71,0.9-1.43,1.791-2.159,2.68c-0.08,0.1-0.16,0.191-0.24,0.291
			c-0.72,0.889-1.44,1.77-2.18,2.65c-0.211,0.27-0.44,0.539-0.66,0.799c-0.67,0.811-1.351,1.621-2.03,2.42
			c-1.96,2.32-3.94,4.621-5.93,6.9c-4.051,4.66-8.19,9.289-12.41,13.891c-3.51,3.799-7.07,7.58-10.7,11.289
			c-17.42,17.891-36.28,34.58-56.79,47.881c-2.55,1.65-5.12,3.26-7.72,4.789c-0.95,0.561-1.9,1.121-2.851,1.67
			c-0.159,0.09-0.33,0.191-0.489,0.281c-0.98,0.559-1.96,1.109-2.95,1.648c-1.01,0.561-2.021,1.111-3.04,1.641
			c-0.46,0.24-0.92,0.48-1.38,0.721c-1.99,1.039-4,2.039-6.03,3c-1.09,0.52-2.18,1.02-3.28,1.51c-1.01,0.459-2.029,0.91-3.05,1.35
			c-0.42,0.18-0.83,0.359-1.25,0.529c-0.93,0.4-1.87,0.781-2.81,1.16c-1.811,0.73-3.641,1.43-5.48,2.09
			c-0.7,0.262-1.41,0.512-2.12,0.762c-0.399,0.139-0.8,0.27-1.2,0.408c-0.659,0.221-1.319,0.441-1.979,0.65
			c-0.57,0.191-1.15,0.371-1.72,0.551c-0.021,0.01-0.04,0.01-0.061,0.02c-1.13,0.35-2.26,0.689-3.39,1.02
			c-1.79,0.521-3.58,1-5.38,1.461c-1.19,0.299-2.38,0.58-3.58,0.85c-1.13,0.26-2.26,0.5-3.4,0.74c-0.09,0.02-0.18,0.039-0.27,0.051
			c-1.181,0.238-2.37,0.469-3.561,0.68c-0.609,0.109-1.21,0.209-1.819,0.309c-0.61,0.102-1.221,0.201-1.841,0.291
			c-0.55,0.09-1.109,0.17-1.659,0.24c-0.67,0.1-1.351,0.189-2.021,0.279c-7.11,0.91-14.24,1.291-21.37,1.211
			c-0.43,0-0.85-0.01-1.279-0.021c-6.461-0.119-12.92-0.619-19.351-1.449c-0.47-0.061-0.94-0.119-1.409-0.189
			c-0.811-0.111-1.621-0.221-2.431-0.34c-0.63-0.102-1.261-0.201-1.89-0.301c-2.67-0.42-5.32-0.9-7.971-1.439
			c-0.59-0.111-1.17-0.23-1.75-0.361c-1.779-0.369-3.57-0.77-5.34-1.189c-1.189-0.279-2.369-0.57-3.55-0.869
			c-0.59-0.15-1.181-0.301-1.771-0.461c-0.59-0.15-1.18-0.311-1.77-0.469c-2.35-0.631-4.689-1.311-7.02-2.021
			c-2.711-0.82-5.4-1.689-8.08-2.609c-0.971-0.33-1.95-0.67-2.92-1.01c-3.01-1.07-6.021-2.201-8.99-3.371
			c-0.53-0.209-1.07-0.43-1.631-0.658c-0.43-0.182-0.859-0.371-1.31-0.57c-0.29-0.131-0.579-0.26-0.88-0.4
			c-1.939-0.881-4.05-1.91-6.32-3.07c-0.379-0.199-0.77-0.4-1.16-0.6c-1.39-0.73-2.84-1.5-4.33-2.32
			c-3.129-1.721-6.479-3.619-10-5.689C118.81,375.912,57.56,331.732,43.18,314.982c-0.73-0.85-1.44-1.709-2.15-2.58
			c-0.55-0.68-1.1-1.369-1.63-2.07c-0.49-0.629-0.97-1.26-1.44-1.91c-0.42-0.559-0.83-1.129-1.23-1.709
			c-0.38-0.531-0.76-1.07-1.13-1.609c-0.02-0.041-0.05-0.08-0.08-0.121c-0.45-0.67-0.9-1.34-1.34-2.02
			c-0.42-0.65-0.84-1.301-1.24-1.961c-0.2-0.309-0.39-0.629-0.58-0.949c-0.45-0.74-0.89-1.48-1.32-2.221c0-0.01,0-0.01-0.01-0.02
			c-0.46-0.82-0.92-1.641-1.37-2.471c-0.78-1.449-1.53-2.91-2.23-4.389c-0.18-0.381-0.36-0.771-0.54-1.15
			c-1.42-3.041-2.67-6.141-3.74-9.291c-0.39-1.1-0.74-2.209-1.08-3.318c-0.43-1.432-0.82-2.871-1.18-4.311
			c-0.07-0.291-0.14-0.57-0.2-0.859c-0.18-0.75-0.35-1.512-0.5-2.271c-0.23-1.059-0.42-2.119-0.6-3.189
			c-0.04-0.26-0.09-0.52-0.12-0.779c-0.09-0.551-0.17-1.102-0.24-1.66c-0.09-0.66-0.17-1.33-0.24-1.99
			c-0.03-0.23-0.05-0.451-0.07-0.67c-0.06-0.57-0.1-1.141-0.15-1.701c0-0.049,0-0.1-0.01-0.139c-0.05-0.68-0.09-1.35-0.11-2.02
			c-0.01-0.07-0.01-0.131-0.01-0.191c-0.03-0.709-0.05-1.42-0.06-2.129c-0.005-0.266,0.003-0.529,0.002-0.793
			c-0.002-0.416-0.003-0.832,0.003-1.248c0.014-1.045,0.044-2.088,0.105-3.13c0.04-0.681,0.09-1.36,0.15-2.03
			c0.12-1.34,0.28-2.68,0.48-4.01c0.1-0.68,0.21-1.36,0.34-2.03c0.24-1.35,0.53-2.7,0.87-4.05c0.9-3.55,2.05-6.971,3.45-10.25
			c1.06-2.53,2.26-4.96,3.59-7.34c0.1-0.2,0.22-0.41,0.34-0.61c5.39-9.489,12.72-17.909,20.98-25.71c0.88-0.84,1.77-1.66,2.68-2.47
			c0.95-0.87,1.91-1.72,2.88-2.58c0.06-0.05,0.12-0.11,0.18-0.16c1.55-1.36,3.12-2.7,4.71-4.03c2.45-2.05,4.94-4.06,7.45-6.06
			c0.08-0.07,0.17-0.13,0.25-0.2c2.15-1.699,4.32-3.391,6.48-5.07c3.4-2.629,6.81-5.25,10.15-7.859c0.89-0.69,1.77-1.381,2.64-2.07
			c0.97-0.76,1.92-1.52,2.87-2.279c8.96-7.181,16.68-14.821,23.86-22.641c1.39-1.52,2.77-3.05,4.14-4.59
			c0.65-0.74,1.3-1.47,1.94-2.21c9.13-10.4,17.62-20.92,27.07-30.85c2.25-2.37,4.549-4.7,6.92-6.99c2-1.91,4.029-3.79,6.14-5.63
			c2.41-2.12,4.89-4.19,7.489-6.19c3.551-2.76,7.291-5.41,11.291-7.94c0.979-0.63,1.949-1.24,2.93-1.84
			c99.71-61.97,173.1-41.74,222.06,0c3.69,3.13,7.25,6.4,10.66,9.78c2.08,2.01,4.09,4.09,6.04,6.19c0.221,0.22,0.42,0.45,0.63,0.69
			c1.37,1.46,2.7,2.93,4,4.41c0.391,0.44,0.771,0.88,1.15,1.32c0.57,0.66,1.14,1.32,1.7,1.99c0.689,0.81,1.37,1.63,2.05,2.45
			c0.43,0.52,0.85,1.04,1.27,1.56c2.73,3.36,5.33,6.77,7.811,10.2c0.5,0.68,0.99,1.37,1.479,2.06c3.42,4.8,6.601,9.65,9.551,14.47
			c0.42,0.69,0.84,1.38,1.25,2.06c0.42,0.69,0.83,1.38,1.229,2.07c0.4,0.68,0.8,1.37,1.19,2.05c0.399,0.69,0.79,1.37,1.17,2.05
			c0.38,0.68,0.76,1.37,1.14,2.05c0.39,0.68,0.76,1.36,1.11,2.03c0.37,0.68,0.729,1.36,1.09,2.03c0.36,0.67,0.71,1.35,1.06,2.02
			c0.341,0.67,0.69,1.34,1.03,2c0.34,0.67,0.67,1.34,1,2c1.311,2.64,2.55,5.25,3.73,7.82c0.58,1.299,1.159,2.59,1.71,3.859
			c2.489,5.721,4.62,11.189,6.359,16.28c0.011,0.021,0.021,0.05,0.021,0.069c0.17,0.49,0.33,0.971,0.49,1.451
			c0.17,0.5,0.329,0.989,0.489,1.479c0.12,0.38,0.25,0.75,0.36,1.13c0.18,0.561,0.36,1.12,0.53,1.689
			c0.189,0.61,0.37,1.221,0.54,1.83c0.33,1.121,0.649,2.24,0.949,3.371c0.261,0.949,0.511,1.899,0.75,2.859
			c0.051,0.18,0.101,0.35,0.141,0.529c0.04,0.15,0.069,0.301,0.109,0.451c0.141,0.56,0.28,1.119,0.41,1.689
			c0.36,1.49,0.69,2.99,1,4.49c0.17,0.82,0.34,1.63,0.49,2.449c0.03,0.15,0.06,0.301,0.09,0.461c0.15,0.77,0.29,1.539,0.42,2.31
			c0.181,1.03,0.351,2.069,0.5,3.101c0.13,0.779,0.24,1.569,0.351,2.359c0.01,0.109,0.029,0.23,0.05,0.35
			c0.07,0.521,0.14,1.051,0.2,1.58c0.06,0.44,0.109,0.881,0.159,1.311c0.181,1.59,0.341,3.17,0.471,4.76
			c0.029,0.359,0.06,0.721,0.09,1.08c0.04,0.6,0.08,1.21,0.12,1.811c0.04,0.67,0.08,1.34,0.109,2.02
			c0.03,0.52,0.051,1.029,0.07,1.55c0.03,0.761,0.05,1.53,0.061,2.29C481.42,225.212,481.43,226.102,481.43,226.992z"/>
		<g opacity="0.7">
			<path fill="#FFFFFF" d="M481.43,226.992c0,9.61-1.05,19.18-3.33,28.48c-0.75,3.061-1.649,6.109-2.68,9.109
				c-0.3,0.861-0.6,1.721-0.92,2.57c-0.26,0.701-0.53,1.4-0.8,2.09c-0.08,0.189-0.15,0.381-0.23,0.57
				c-0.29,0.721-0.58,1.439-0.89,2.15c-0.05,0.109-0.101,0.23-0.15,0.35c-0.3,0.699-0.609,1.4-0.92,2.09
				c-0.14,0.311-0.28,0.609-0.42,0.91c-0.28,0.619-0.57,1.23-0.87,1.84c-0.31,0.65-0.63,1.291-0.95,1.93
				c-0.119,0.23-0.229,0.461-0.35,0.68c-0.28,0.551-0.57,1.102-0.85,1.65c-0.23,0.43-0.46,0.85-0.69,1.27
				c-1.06,1.961-2.17,3.891-3.33,5.801c-0.47,0.779-0.95,1.561-1.439,2.33c-0.11,0.189-0.23,0.381-0.351,0.57
				c-0.56,0.879-1.13,1.76-1.71,2.641c-0.47,0.709-0.939,1.42-1.43,2.129c-0.42,0.621-0.84,1.23-1.271,1.85
				c-0.09,0.131-0.18,0.26-0.279,0.391c-0.44,0.641-0.9,1.279-1.351,1.92c-0.56,0.791-1.13,1.561-1.7,2.34
				c-0.119,0.16-0.229,0.32-0.35,0.471c-0.65,0.889-1.32,1.77-1.979,2.639c-0.4,0.521-0.801,1.051-1.211,1.561
				c-0.72,0.951-1.46,1.891-2.21,2.83c-0.71,0.9-1.43,1.791-2.159,2.68c-0.08,0.1-0.16,0.191-0.24,0.291
				c-0.72,0.889-1.44,1.77-2.18,2.65c-0.211,0.27-0.44,0.539-0.66,0.799c-0.67,0.811-1.351,1.621-2.03,2.42
				c-1.96,2.32-3.94,4.621-5.93,6.9c-4.051,4.66-8.19,9.289-12.41,13.891c-3.51,3.799-7.07,7.58-10.7,11.289
				c-17.42,17.891-36.28,34.58-56.79,47.881c-2.55,1.65-5.12,3.26-7.72,4.789c-0.95,0.561-1.9,1.121-2.851,1.67
				c-0.159,0.09-0.33,0.191-0.489,0.281c-0.98,0.559-1.96,1.109-2.95,1.648c-1.01,0.561-2.021,1.111-3.04,1.641
				c-0.46,0.24-0.92,0.48-1.38,0.721c-1.99,1.039-4,2.039-6.03,3c-1.09,0.52-2.18,1.02-3.28,1.51c-1.01,0.459-2.029,0.91-3.05,1.35
				c-0.42,0.18-0.83,0.359-1.25,0.529c-0.93,0.4-1.87,0.781-2.81,1.16c-1.811,0.73-3.641,1.43-5.48,2.09
				c-0.7,0.262-1.41,0.512-2.12,0.762c-0.399,0.139-0.8,0.27-1.2,0.408c-0.659,0.221-1.319,0.441-1.979,0.65
				c-0.57,0.191-1.15,0.371-1.72,0.551c-0.021,0.01-0.04,0.01-0.061,0.02c-1.13,0.35-2.26,0.689-3.39,1.02
				c-1.79,0.521-3.58,1-5.38,1.461c-1.19,0.299-2.38,0.58-3.58,0.85c-1.13,0.26-2.26,0.5-3.4,0.74c-0.09,0.02-0.18,0.039-0.27,0.051
				c-1.181,0.238-2.37,0.469-3.561,0.68c-0.609,0.109-1.21,0.209-1.819,0.309c-0.61,0.102-1.221,0.201-1.841,0.291
				c-0.55,0.09-1.109,0.17-1.659,0.24c-0.67,0.1-1.351,0.189-2.021,0.279c-7.11,0.91-14.24,1.291-21.37,1.211
				c-0.43,0-0.85-0.01-1.279-0.021c-6.461-0.119-12.92-0.619-19.351-1.449c-0.47-0.061-0.94-0.119-1.409-0.189
				c-0.811-0.111-1.621-0.221-2.431-0.34c-0.63-0.102-1.261-0.201-1.89-0.301c-2.67-0.42-5.32-0.9-7.971-1.439
				c-0.59-0.111-1.17-0.23-1.75-0.361c-1.779-0.369-3.57-0.77-5.34-1.189c-1.189-0.279-2.369-0.57-3.55-0.869
				c-0.59-0.15-1.181-0.301-1.771-0.461c-0.59-0.15-1.18-0.311-1.77-0.469c-2.35-0.631-4.689-1.311-7.02-2.021
				c-2.711-0.82-5.4-1.689-8.08-2.609c-0.971-0.33-1.95-0.67-2.92-1.01c-3.01-1.07-6.021-2.201-8.99-3.371
				c-0.53-0.209-1.07-0.43-1.631-0.658c-0.43-0.182-0.859-0.371-1.31-0.57c-0.29-0.131-0.579-0.26-0.88-0.4
				c-1.939-0.881-4.05-1.91-6.32-3.07c-0.379-0.199-0.77-0.4-1.16-0.6c-1.39-0.73-2.84-1.5-4.33-2.32
				c-3.129-1.721-6.479-3.619-10-5.689C118.81,375.912,57.56,331.732,43.18,314.982c-0.73-0.85-1.44-1.709-2.15-2.58
				c-0.55-0.68-1.1-1.369-1.63-2.07c-0.49-0.629-0.97-1.26-1.44-1.91c-0.42-0.559-0.83-1.129-1.23-1.709
				c-0.38-0.531-0.76-1.07-1.13-1.609c-0.02-0.041-0.05-0.08-0.08-0.121c-0.45-0.67-0.9-1.34-1.34-2.02
				c-0.42-0.65-0.84-1.301-1.24-1.961c-0.2-0.309-0.39-0.629-0.58-0.949c-0.45-0.74-0.89-1.48-1.32-2.221c0-0.01,0-0.01-0.01-0.02
				c-0.46-0.82-0.92-1.641-1.37-2.471c-0.78-1.449-1.53-2.91-2.23-4.389c-0.18-0.381-0.36-0.771-0.54-1.15
				c-1.42-3.041-2.67-6.141-3.74-9.291c-0.39-1.1-0.74-2.209-1.08-3.318c-0.43-1.432-0.82-2.871-1.18-4.311
				c-0.07-0.291-0.14-0.57-0.2-0.859c-0.18-0.75-0.35-1.512-0.5-2.271c-0.23-1.059-0.43-2.119-0.6-3.189
				c-0.04-0.26-0.09-0.52-0.12-0.779c-0.09-0.551-0.17-1.102-0.24-1.66c-0.09-0.66-0.17-1.33-0.24-1.99
				c-0.03-0.23-0.05-0.451-0.07-0.67c-0.06-0.57-0.1-1.141-0.15-1.701c0-0.049,0-0.1-0.01-0.139c-0.05-0.68-0.09-1.35-0.11-2.02
				c-0.01-0.07-0.01-0.131-0.01-0.191c-0.03-0.709-0.05-1.42-0.06-2.129c-0.03-1.73,0.01-3.451,0.11-5.171
				c0.04-0.681,0.09-1.36,0.15-2.03c0.12-1.34,0.28-2.68,0.48-4.01c0.1-0.68,0.21-1.36,0.34-2.03c0.24-1.35,0.53-2.7,0.87-4.05
				c0.9-3.55,2.05-6.971,3.45-10.25c1.06-2.53,2.26-4.96,3.59-7.34c0.1-0.2,0.22-0.41,0.34-0.61
				c5.39-9.489,12.72-17.909,20.98-25.71c0.47-0.449,0.94-0.891,1.42-1.33c0.42-0.38,0.84-0.76,1.26-1.14
				c0.95-0.87,1.91-1.72,2.88-2.58c0.06-0.05,0.12-0.11,0.18-0.16c1.55-1.36,3.12-2.7,4.71-4.03c2.45-2.05,4.94-4.06,7.45-6.06
				c0.08-0.07,0.17-0.13,0.25-0.2c2.15-1.699,4.32-3.391,6.48-5.07c1.09-0.84,2.17-1.68,3.26-2.52c2.31-1.78,4.62-3.561,6.89-5.34
				c0.89-0.69,1.77-1.381,2.64-2.07c0.97-0.76,1.92-1.52,2.87-2.279c8.96-7.181,16.68-14.821,23.86-22.641
				c1.39-1.52,2.77-3.05,4.14-4.59c0.65-0.74,1.3-1.47,1.94-2.21c9.13-10.4,17.62-20.92,27.07-30.85c2.25-2.37,4.549-4.7,6.92-6.99
				c2-1.91,4.029-3.79,6.14-5.63c2.41-2.12,4.89-4.19,7.489-6.19c3.551-2.76,7.291-5.41,11.291-7.94
				c0.979-0.63,1.949-1.24,2.93-1.84c99.71-61.97,173.1-41.74,222.06,0c3.69,3.13,7.25,6.4,10.66,9.78
				c2.08,2.01,4.09,4.09,6.04,6.19c0.221,0.22,0.42,0.45,0.63,0.69c1.37,1.46,2.7,2.93,4,4.41c0.391,0.44,0.771,0.88,1.15,1.32
				c0.57,0.66,1.14,1.32,1.7,1.99c0.689,0.81,1.37,1.63,2.05,2.45c0.43,0.52,0.85,1.04,1.27,1.56c2.73,3.36,5.33,6.77,7.811,10.2
				c0.5,0.68,0.99,1.37,1.479,2.06c3.42,4.8,6.601,9.65,9.551,14.47c0.42,0.69,0.84,1.38,1.25,2.06c0.42,0.69,0.83,1.38,1.229,2.07
				c0.4,0.68,0.8,1.37,1.19,2.05c0.399,0.69,0.79,1.37,1.17,2.05c0.38,0.68,0.76,1.37,1.14,2.05c0.39,0.68,0.76,1.36,1.11,2.03
				c0.37,0.68,0.729,1.36,1.09,2.03c0.36,0.67,0.71,1.35,1.06,2.02c0.341,0.67,0.69,1.34,1.03,2c0.34,0.67,0.67,1.34,1,2
				c1.32,2.64,2.561,5.25,3.73,7.82c0.58,1.299,1.159,2.59,1.71,3.859c2.489,5.721,4.62,11.189,6.359,16.28
				c0.011,0.021,0.021,0.05,0.021,0.069c0.17,0.49,0.33,0.971,0.49,1.451c0.17,0.5,0.329,0.989,0.489,1.479
				c0.12,0.38,0.25,0.75,0.36,1.13c0.18,0.561,0.36,1.12,0.53,1.689c0.189,0.61,0.37,1.221,0.54,1.83
				c0.33,1.121,0.649,2.24,0.949,3.371c0.261,0.949,0.511,1.899,0.75,2.859c0.051,0.18,0.101,0.35,0.141,0.529
				c0.04,0.15,0.069,0.301,0.109,0.451c0.141,0.56,0.28,1.119,0.41,1.689c0.36,1.49,0.69,2.99,1,4.49
				c0.17,0.82,0.34,1.63,0.49,2.449c0.03,0.15,0.06,0.301,0.09,0.461c0.15,0.77,0.29,1.539,0.42,2.31
				c0.181,1.03,0.351,2.069,0.5,3.101c0.13,0.779,0.24,1.569,0.351,2.359c0.01,0.109,0.029,0.23,0.05,0.35
				c0.07,0.521,0.14,1.051,0.2,1.58c0.06,0.44,0.109,0.881,0.159,1.311c0.181,1.59,0.341,3.17,0.471,4.76
				c0.029,0.359,0.06,0.721,0.09,1.08c0.04,0.6,0.08,1.21,0.12,1.811c0.04,0.67,0.08,1.34,0.109,2.02
				c0.03,0.52,0.051,1.029,0.07,1.55c0.03,0.761,0.05,1.53,0.061,2.29C481.42,225.212,481.43,226.102,481.43,226.992z"/>
		</g>
	</g>
	<path opacity="0.2" fill="#263238" d="M31.85,243.422C31.65,243.292,31.7,243.202,31.85,243.422L31.85,243.422z"/>
	<g>
		<path opacity="0.2" d="M125.38,234.603c-1.02,6.8-6.04,12.329-12.57,14.47l-2.48,0.81c-8.92,12.63-24.56,18.021-37.89,10.19
			l-3.9-2.289l-10.92-12.981c-0.04,0.011-0.09,0.021-0.13,0.03c-3.46,0.72-7.37,0.19-9.93-2.25c-0.41,2.14-3.2,3.4-5.07,2.3
			c-1.87-1.1-2.11-4.16-0.44-5.55c-2.2,1.94-5.6,1.05-7.72-1.07c-0.09-5.79,0.52-11.58,1.95-17.289c0.9-3.551,2.05-6.971,3.45-10.25
			c1.06-2.531,2.26-4.961,3.59-7.34c0.1-0.201,0.22-0.41,0.34-0.611c1.97-3.479,4.2-6.81,6.65-10.02c0.42-0.38,0.84-0.76,1.26-1.14
			c0.95-0.87,1.91-1.72,2.88-2.58c0.06-0.05,0.12-0.11,0.18-0.16c1.55-1.36,3.12-2.7,4.71-4.03c2.45-2.05,4.94-4.06,7.45-6.06
			c0.08-0.07,0.17-0.13,0.25-0.2c2.15-1.699,4.32-3.391,6.48-5.07c1.09-0.84,2.17-1.68,3.26-2.52c0.66,0.08,1.3,0.23,1.92,0.449
			c2.67,0.931,3.13,3.381,4.98,5.061c2.46,2.25,4.82-1.529,8.61-1.41c11.65,0.36,7.13,12.311,12.82,10.811
			c24.57-6.48,20.44,24.949,9.76,31.85C121.17,222.973,126.6,226.422,125.38,234.603z"/>
		<g>
			<ellipse fill="#FFFFFF" stroke="#263238" stroke-miterlimit="10" cx="72.547" cy="223.551" rx="41.439" ry="40.926"/>
			<ellipse fill="#263238" stroke="#FFFFFF" stroke-miterlimit="10" cx="72.547" cy="221.895" rx="37.784" ry="37.316"/>
		</g>
		<g>
			<g>
				<g>
					<g>
						<g>
							<g>
								<path fill="#FFAA71" d="M31.946,236.604c-2.379,1.477-3.061,6.451-1.184,8.606c1.877,2.143,5.458,0.487,6.191-2.869
									c0.346,0.939,1.451,1.092,2.02,0.281c0.401-0.58,0.417-1.484,0.138-2.104c-0.179-0.15-0.113-0.259,0,0
									c1.217,0.968,3.316-0.087,3.608-2.154c-0.891,5.497,4.106,10.297,7.79,7.501c-1.087,2.336,0.337,5.41,2.242,6
									c1.896,0.59,3.941-0.531,5.762-1.777s3.681-2.669,5.671-2.756c1.736-0.083,3.344,0.896,4.995,1.478
									c5.261,1.831,11.417-0.596,15.44-6.11c2.659,4.55,9.209,2.875,10.966-2.791c0.369,2.652,2.185,4.672,4.209,4.698
									s4.067-1.939,4.76-4.576l0,0.035c0.045,2.51,2.283,3.739,3.884,2.124c2.045-2.059,3.313-5.842,2.306-8.871
									c2.726-0.109,5.363-3.27,5.775-6.932c0.421-3.661-1.428-7.334-4.057-8.053c4.511-1.875,8.047-8.02,8.217-14.294
									c0.16-6.263-3.057-12.087-7.489-13.552c-1.688-0.557-3.661-0.447-5.086,1.063c-0.525-3.569-2.146-6.758-4.533-8.36
									c-3.803-2.568-9.093-0.809-11.923,3.973c1.38-2.47,1.473-6.042,0.217-8.385c-1.256-2.332-3.754-3.268-5.872-2.165
									c-0.457-3.827-3.412-6.554-6.305-5.809c-2.883,0.744-5.219,4.835-4.972,8.711c-0.27-3.122-3.951-3.892-5.28-1.274
									c0.114,0.236-0.056,0.096,0,0c-1.836-3.859-5.578-5.842-9.049-4.715c-3.691,1.211-6.791,5.847-7.265,10.901
									c-2.545-2.322-6.261-2.222-8.995,0.25c-2.733,2.46-4.308,7.142-3.831,11.327c-2.872-2.835-7.704-1.288-9.673,3.094
									c-1.969,4.381-0.611,10.586,2.715,12.42c-2.295,0.35-4.312,3.391-4.314,6.471c0.007,3.091,2.029,5.723,4.328,5.641
									c-2.319,0.199-4.503,2.938-4.842,6.051C28.175,232.806,29.725,235.918,31.946,236.604z"/>
							</g>
						</g>
						<g opacity="0.2">
							<g>
								<path fill="#FFFFFF" d="M70.042,222.264c-1.158-0.971-2.635-1.441-4.047-0.997c-1.413,0.444-2.71,1.907-3.032,3.716
									s0.515,3.805,1.901,4.149c1.686,0.419,3.416-1.468,5.138-1.262c0.614,0.073,1.175,0.411,1.772,0.579
									c2.466,0.693,4.964-1.523,7.06-3.607c0.737-0.733,1.491-1.49,1.993-2.493c0.502-1.003,0.706-2.321,0.268-3.288
									c-0.609-1.348-2.107-1.46-3.362-1.201c-2.516,0.52-4.961,1.959-6.965,4.1c0.073-0.505,0.147-1.011,0.221-1.516
									L70.042,222.264z"/>
							</g>
							<g>
								<path fill="#FFFFFF" d="M106.161,217.337c-0.663-0.56-1.346-1.13-2.142-1.321s-1.741,0.084-2.262,0.941
									c-0.714,1.174-0.307,2.918,0.557,3.76c0.864,0.842,2.028,1.021,3.137,1.172c1.14,0.156,2.581,0.121,3.17-1.201
									c0.429-0.964,0.121-2.184-0.481-2.882c-0.602-0.698-1.426-0.997-2.223-1.276L106.161,217.337z"/>
							</g>
							<g>
								<path fill="#FFFFFF" d="M49.617,196.904c-2.32,1.365-4.144,4.184-4.736,7.316c-0.179,0.945-0.177,2.121,0.456,2.578
									c0.45,0.325,1.034,0.144,1.556-0.045c2.213-0.801,4.427-1.603,6.64-2.404c-1.063,0.582-2.152,1.185-3.011,2.196
									c-0.859,1.012-1.452,2.536-1.202,3.916c0.294,1.62,1.685,2.542,3.011,2.438c1.327-0.105,2.576-1.021,3.672-2.073
									c1.169-1.121,2.32-2.647,2.375-4.453c0.055-1.805-1.696-3.369-2.804-2.146c2.532-1.025,4.962-2.568,7.164-4.549
									c0.797-0.717,1.583-1.518,2.096-2.572s0.707-2.42,0.271-3.445c-2.162-5.091-5.153,2.753-6.555,3.521
									C55.892,198.637,52.992,194.919,49.617,196.904z"/>
								<path fill="#FFFFFF" d="M38.945,219.851c-0.251,1.037-0.114,2.26,0.526,2.884c0.64,0.625,1.8,0.33,2.119-0.682
									c-1.484,0.678-3.071,1.449-4.019,3.088s-0.771,4.393,0.685,4.914c0.909,0.326,1.897-0.308,2.754-0.949
									c2.422-1.814,4.742-3.873,6.927-6.149c-0.69,1.97,0.847,4.062,2.485,4.14c1.639,0.078,3.195-1.146,4.624-2.324
									c1.752-1.445,3.771-3.609,3.362-6.094c-0.355-2.162-2.531-2.996-4.229-2.252c-1.698,0.745-2.998,2.558-4.21,4.293
									c0.958-1.777-0.312-4.251-1.927-4.432c-1.571-0.174-3.165,1.146-4.174,2.685c1.859-1.397,2.332-4.772-0.12-5.009
									C42.152,213.807,39.363,218.127,38.945,219.851z"/>
								<path fill="#FFFFFF" d="M89.475,209.248c-1.375-0.576-3.133,0.68-3.54,2.53c-0.407,1.85,0.631,3.87,2.088,4.066
									c-1.077,0.184-2.121,0.933-2.832,2.031c-0.396,0.612-0.7,1.384-0.626,2.137c0.108,1.126,1.041,1.812,1.938,1.798
									c0.896-0.014,1.761-0.551,2.587-1.076c-0.889,0.16-1.83,0.35-2.546,1.088c-0.716,0.739-1.048,2.23-0.431,2.992
									c0.516,0.637,1.387,0.472,2.108,0.172c1.62-0.674,3.136-1.84,4.383-3.37c0.892,1.237,2.233,2.087,3.587,1.724
									s2.533-2.266,2.141-3.896c-0.279-1.164-1.236-1.85-2.202-1.94s-1.942,0.308-2.877,0.747
									c0.964-0.918,1.989-1.938,2.362-3.377c0.373-1.438-0.343-3.295-1.507-3.109c-1.309,0.21-2.017,2.518-3.063,3.396
									C89.801,213.717,92.241,210.405,89.475,209.248z"/>
								<g>
									<path fill="#FFFFFF" d="M66.074,203.764c-1.508,1.373-2.069,3.934-2.008,6.211c0.068,2.515,0.917,5.153,2.714,6.055
										c2.362,1.185,5.391-1.53,5.889-4.832c0.498-3.301-1.126-6.527-3.41-7.918C69.259,203.279,67.583,202.39,66.074,203.764z"/>
								</g>
								<g>
									<path fill="#FFFFFF" d="M82.791,200.021c0.201,0.214,0.402,0.426,0.602,0.639c-0.983-1.571-3.116-1.656-4.343-0.171
										c-1.228,1.484-1.285,4.218-0.117,5.566s3.31,1.021,4.361-0.667c1.704,0.914,3.983,0.378,5.23-1.563
										c1.246-1.938,1.031-5.174-0.599-6.268s-4.176,0.854-4.045,3.255c-0.232-0.325-0.465-0.649-0.698-0.974L82.791,200.021z"/>
								</g>
								<g>
									<path fill="#FFFFFF" d="M101.118,202.682c-1.207,1.554-2.463,3.211-2.933,5.275c-0.47,2.063,0.197,4.614,1.792,5.036
										c1.585,0.419,3.127-1.351,4.069-3.153c0.85-1.628,1.512-3.633,1.073-5.398c-0.439-1.767-2.449-2.705-3.488-1.261
										L101.118,202.682z"/>
								</g>
								<path fill="#FFFFFF" d="M74.833,191.996c-0.571-1.672-2.463-2.152-3.728-1.087c-1.265,1.066-1.765,3.323-1.252,5.03
									c0.512,1.706,1.891,2.8,3.348,2.914c1.804,0.142,3.975-1.852,3.609-4.088c0.756,1.262,2.147,1.695,3.434,1.456
									s2.492-1.056,3.625-1.944c1.539-1.207,3.189-3.029,3.07-5.242c-0.095-1.766-1.415-3.047-2.801-3.125
									c-1.387-0.08-2.77,0.826-3.853,2.047c-0.85,0.96-1.564,2.122-2.48,2.973c-0.917,0.852-2.151,1.352-3.105,0.749
									L74.833,191.996z"/>
							</g>
						</g>
					</g>
				</g>
			</g>
		</g>
	</g>
	<g>
		<g>
			<rect x="145.393" y="253.924" fill="#FFAA71" width="230.667" height="97.148"/>
			<g>
				<rect x="150.212" y="259.803" fill="#FFFFFF" stroke="#263238" stroke-miterlimit="10" width="21.703" height="12.014"/>
				<rect x="336.541" y="318.365" fill="#FFFFFF" stroke="#263238" stroke-miterlimit="10" width="34.184" height="12.016"/>
				<rect x="349.625" y="274.805" fill="#FFFFFF" stroke="#263238" stroke-miterlimit="10" width="21.1" height="12.016"/>
				<rect x="150.212" y="303.553" fill="#FFFFFF" stroke="#263238" stroke-miterlimit="10" width="21.703" height="12.014"/>
				<rect x="150.212" y="289.084" fill="#FFFFFF" stroke="#263238" stroke-miterlimit="10" width="17.569" height="12.014"/>
				<g>
					<rect x="150.212" y="274.443" fill="#FFFFFF" stroke="#263238" stroke-miterlimit="10" width="12.013" height="12.014"/>
					<rect x="165.546" y="274.443" fill="#FFFFFF" stroke="#263238" stroke-miterlimit="10" width="12.014" height="12.014"/>
					<rect x="180.88" y="274.443" fill="#FFFFFF" stroke="#263238" stroke-miterlimit="10" width="12.014" height="12.014"/>
					<rect x="196.214" y="274.443" fill="#FFFFFF" stroke="#263238" stroke-miterlimit="10" width="12.014" height="12.014"/>
					<rect x="211.547" y="274.443" fill="#FFFFFF" stroke="#263238" stroke-miterlimit="10" width="12.014" height="12.014"/>
					<rect x="226.88" y="274.443" fill="#FFFFFF" stroke="#263238" stroke-miterlimit="10" width="12.015" height="12.014"/>
					<rect x="242.214" y="274.443" fill="#FFFFFF" stroke="#263238" stroke-miterlimit="10" width="12.015" height="12.014"/>
					<rect x="257.548" y="274.443" fill="#FFFFFF" stroke="#263238" stroke-miterlimit="10" width="12.014" height="12.014"/>
					<rect x="272.881" y="274.443" fill="#FFFFFF" stroke="#263238" stroke-miterlimit="10" width="12.015" height="12.014"/>
					<rect x="288.215" y="274.443" fill="#FFFFFF" stroke="#263238" stroke-miterlimit="10" width="12.014" height="12.014"/>
					<rect x="303.549" y="274.443" fill="#FFFFFF" stroke="#263238" stroke-miterlimit="10" width="12.014" height="12.014"/>
					<rect x="318.882" y="274.443" fill="#FFFFFF" stroke="#263238" stroke-miterlimit="10" width="12.015" height="12.014"/>
					<rect x="334.216" y="274.443" fill="#FFFFFF" stroke="#263238" stroke-miterlimit="10" width="12.014" height="12.014"/>
				</g>
				<g>
					<rect x="150.212" y="333.18" fill="#FFFFFF" stroke="#263238" stroke-miterlimit="10" width="12.013" height="12.014"/>
					<rect x="165.546" y="333.18" fill="#FFFFFF" stroke="#263238" stroke-miterlimit="10" width="12.014" height="12.014"/>
					<rect x="180.88" y="333.18" fill="#FFFFFF" stroke="#263238" stroke-miterlimit="10" width="12.014" height="12.014"/>
					<rect x="196.214" y="333.18" fill="#FFFFFF" stroke="#263238" stroke-miterlimit="10" width="14.658" height="12.014"/>
					<rect x="214.191" y="333.18" fill="#FFFFFF" stroke="#263238" stroke-miterlimit="10" width="73.349" height="12.014"/>
					<rect x="312.2" y="333.18" fill="#FFFFFF" stroke="#263238" stroke-miterlimit="10" width="12.014" height="12.014"/>
					<rect x="327.533" y="333.18" fill="#FFFFFF" stroke="#263238" stroke-miterlimit="10" width="12.015" height="12.014"/>
					<rect x="342.893" y="333.18" fill="#FFFFFF" stroke="#263238" stroke-miterlimit="10" width="12.015" height="12.014"/>
					<rect x="290.54" y="333.18" fill="#FFFFFF" stroke="#263238" stroke-miterlimit="10" width="18.653" height="12.014"/>
					<rect x="358.711" y="333.18" fill="#FFFFFF" stroke="#263238" stroke-miterlimit="10" width="12.014" height="12.014"/>
				</g>
				<g>
					<rect x="171.19" y="289.084" fill="#FFFFFF" stroke="#263238" stroke-miterlimit="10" width="12.014" height="12.014"/>
					<rect x="186.524" y="289.084" fill="#FFFFFF" stroke="#263238" stroke-miterlimit="10" width="12.014" height="12.014"/>
					<rect x="201.858" y="289.084" fill="#FFFFFF" stroke="#263238" stroke-miterlimit="10" width="12.014" height="12.014"/>
					<rect x="217.191" y="289.084" fill="#FFFFFF" stroke="#263238" stroke-miterlimit="10" width="12.015" height="12.014"/>
					<rect x="232.524" y="289.084" fill="#FFFFFF" stroke="#263238" stroke-miterlimit="10" width="12.015" height="12.014"/>
					<rect x="247.858" y="289.084" fill="#FFFFFF" stroke="#263238" stroke-miterlimit="10" width="12.015" height="12.014"/>
					<rect x="263.192" y="289.084" fill="#FFFFFF" stroke="#263238" stroke-miterlimit="10" width="12.014" height="12.014"/>
					<rect x="278.526" y="289.084" fill="#FFFFFF" stroke="#263238" stroke-miterlimit="10" width="12.014" height="12.014"/>
					<rect x="293.859" y="289.084" fill="#FFFFFF" stroke="#263238" stroke-miterlimit="10" width="12.015" height="12.014"/>
					<rect x="309.193" y="289.084" fill="#FFFFFF" stroke="#263238" stroke-miterlimit="10" width="12.014" height="12.014"/>
					<rect x="324.526" y="289.084" fill="#FFFFFF" stroke="#263238" stroke-miterlimit="10" width="12.015" height="12.014"/>
					<rect x="339.86" y="289.084" fill="#FFFFFF" stroke="#263238" stroke-miterlimit="10" width="12.014" height="12.014"/>
					<polygon fill="#FFFFFF" stroke="#263238" stroke-miterlimit="10" points="370.725,289.086 370.725,315.74 358.714,315.74 
						358.714,301.098 355.19,301.098 355.19,289.086 					"/>
				</g>
				<g>
					<rect x="174.708" y="303.725" fill="#FFFFFF" stroke="#263238" stroke-miterlimit="10" width="12.014" height="12.014"/>
					<rect x="190.041" y="303.725" fill="#FFFFFF" stroke="#263238" stroke-miterlimit="10" width="12.015" height="12.014"/>
					<rect x="205.374" y="303.725" fill="#FFFFFF" stroke="#263238" stroke-miterlimit="10" width="12.015" height="12.014"/>
					<rect x="220.708" y="303.725" fill="#FFFFFF" stroke="#263238" stroke-miterlimit="10" width="12.014" height="12.014"/>
					<rect x="236.042" y="303.725" fill="#FFFFFF" stroke="#263238" stroke-miterlimit="10" width="12.014" height="12.014"/>
					<rect x="251.375" y="303.725" fill="#FFFFFF" stroke="#263238" stroke-miterlimit="10" width="12.015" height="12.014"/>
					<rect x="266.709" y="303.725" fill="#FFFFFF" stroke="#263238" stroke-miterlimit="10" width="12.014" height="12.014"/>
					<rect x="282.043" y="303.725" fill="#FFFFFF" stroke="#263238" stroke-miterlimit="10" width="12.014" height="12.014"/>
					<rect x="297.376" y="303.725" fill="#FFFFFF" stroke="#263238" stroke-miterlimit="10" width="12.015" height="12.014"/>
					<rect x="312.71" y="303.725" fill="#FFFFFF" stroke="#263238" stroke-miterlimit="10" width="12.014" height="12.014"/>
					<rect x="328.044" y="303.725" fill="#FFFFFF" stroke="#263238" stroke-miterlimit="10" width="12.014" height="12.014"/>
					<rect x="343.377" y="303.725" fill="#FFFFFF" stroke="#263238" stroke-miterlimit="10" width="12.015" height="12.014"/>
				</g>
				<g>
					<rect x="168.19" y="318.365" fill="#FFFFFF" stroke="#263238" stroke-miterlimit="10" width="12.014" height="12.016"/>
					<rect x="183.524" y="318.365" fill="#FFFFFF" stroke="#263238" stroke-miterlimit="10" width="12.014" height="12.016"/>
					<rect x="198.857" y="318.365" fill="#FFFFFF" stroke="#263238" stroke-miterlimit="10" width="12.015" height="12.016"/>
					<rect x="214.191" y="318.365" fill="#FFFFFF" stroke="#263238" stroke-miterlimit="10" width="12.014" height="12.016"/>
					<rect x="229.524" y="318.365" fill="#FFFFFF" stroke="#263238" stroke-miterlimit="10" width="12.015" height="12.016"/>
					<rect x="244.858" y="318.365" fill="#FFFFFF" stroke="#263238" stroke-miterlimit="10" width="12.014" height="12.016"/>
					<rect x="260.192" y="318.365" fill="#FFFFFF" stroke="#263238" stroke-miterlimit="10" width="12.014" height="12.016"/>
					<rect x="275.525" y="318.365" fill="#FFFFFF" stroke="#263238" stroke-miterlimit="10" width="12.015" height="12.016"/>
					<rect x="290.859" y="318.365" fill="#FFFFFF" stroke="#263238" stroke-miterlimit="10" width="12.014" height="12.016"/>
					<rect x="306.193" y="318.365" fill="#FFFFFF" stroke="#263238" stroke-miterlimit="10" width="12.014" height="12.016"/>
					<rect x="321.526" y="318.365" fill="#FFFFFF" stroke="#263238" stroke-miterlimit="10" width="12.015" height="12.016"/>
				</g>
				<g>
					<rect x="174.708" y="260.527" fill="#FFFFFF" stroke="#263238" stroke-miterlimit="10" width="12.014" height="12.014"/>
					<rect x="190.041" y="260.527" fill="#FFFFFF" stroke="#263238" stroke-miterlimit="10" width="12.015" height="12.014"/>
					<rect x="205.374" y="260.527" fill="#FFFFFF" stroke="#263238" stroke-miterlimit="10" width="12.015" height="12.014"/>
					<rect x="220.708" y="260.527" fill="#FFFFFF" stroke="#263238" stroke-miterlimit="10" width="12.014" height="12.014"/>
					<rect x="236.042" y="260.527" fill="#FFFFFF" stroke="#263238" stroke-miterlimit="10" width="12.014" height="12.014"/>
					<rect x="251.375" y="260.527" fill="#FFFFFF" stroke="#263238" stroke-miterlimit="10" width="12.015" height="12.014"/>
					<rect x="266.709" y="260.527" fill="#FFFFFF" stroke="#263238" stroke-miterlimit="10" width="12.014" height="12.014"/>
					<rect x="282.043" y="260.527" fill="#FFFFFF" stroke="#263238" stroke-miterlimit="10" width="12.014" height="12.014"/>
					<rect x="297.376" y="260.527" fill="#FFFFFF" stroke="#263238" stroke-miterlimit="10" width="12.015" height="12.014"/>
					<rect x="312.71" y="260.527" fill="#FFFFFF" stroke="#263238" stroke-miterlimit="10" width="12.014" height="12.014"/>
					<rect x="328.044" y="260.527" fill="#FFFFFF" stroke="#263238" stroke-miterlimit="10" width="12.014" height="12.014"/>
					<rect x="343.377" y="260.527" fill="#FFFFFF" stroke="#263238" stroke-miterlimit="10" width="12.015" height="12.014"/>
					<rect x="358.711" y="260.527" fill="#FFFFFF" stroke="#263238" stroke-miterlimit="10" width="12.014" height="12.014"/>
				</g>
				<rect x="150.212" y="318.365" fill="#FFFFFF" stroke="#263238" stroke-miterlimit="10" width="14.554" height="12.016"/>
			</g>
		</g>
		<polygon fill="#263238" points="145.393,254.547 150.212,252.939 372.928,252.939 376.102,254.525 		"/>
	</g>
	<g>
		<path opacity="0.2" d="M310.04,421.162l-4.69-28.25c-1.029-4.209-3.239-8.039-6.35-11.059c-9.33-9-21.66-18.24-22.19-30.041
			c-0.81-18.029-3.619-17.49-3.319-21.939c0.01-0.16,1.399-2.15,3.21-6.6c0.58-1.441,0.97-3.58,1.359-5.342
			c0.4-1.85,2.16-3.109,4.04-2.85c1.261,0.17,2.5,0.74,3.391,1.59c1.71,1.66,2.47,4.111,2.54,6.5c0.069,2.381-0.46,4.74-1,7.061
			c1.68,3.76,2.47,8.33,3.01,12.41c1.07-3.301,1.88-6.631,2.95-9.92c0.22-0.119,0.14-0.381,0.35-0.5
			c-1.51-3.24-0.229-3.061-3.22-10.189c-5.03-12-10.641-23.57-14.65-38.65c-0.319-1.17-0.3-3.09,0.09-4.24
			c1.45-4.311,5.891-3.32,7.83-0.811c0.521,0.66,0.9,1.4,1.2,2.18c2.05,5.371,6.42,13.65,9.57,18.451l10.89,16.6
			c0,0,3.79-3.109,4.37-4.5l0.01-0.01c0.57-1.4,0.851-12.67,0.851-12.67s-0.86,2.109-2.771,1.99c-1.38-0.1-4.18,0.699-6.17-1.541
			c-1.63-1.83-1.63-4.58-0.18-6.539l4.93-6.66c0,0,3.311-2.9,7.74-0.93c4.42,1.979,8.71,6.1,8.71,6.1s4.1-0.211,7.58,1.459
			c3.49,1.682,7.149,6.5,7.149,6.5s4.07,0.25,5.9,1.58c0.46,0.33,6.67,10,4.43,17.531c-1.33,4.49-2.149,11.01-2.75,12.76
			l-3.05,44.09l6.15,29.02l-13.149,7.33c-4.835,2.695-9.899,4.961-15.132,6.768L310.04,421.162z"/>
		<g>
			<g>
				<g>
					<g>
						<g>
							<defs>
								<path id="XMLID_2_" d="M347.382,369.641l0.117-44.203c0.482-1.787,0.867-8.346,1.895-12.916
									c1.733-7.66-5.104-16.895-5.586-17.195c-1.915-1.197-5.992-1.178-5.992-1.178s-3.97-4.568-7.565-6.014
									c-3.584-1.434-7.661-0.951-7.661-0.951s-4.548-3.83-9.096-5.512c-4.548-1.668-7.661,1.445-7.661,1.445l-4.473,6.967
									c-1.316,2.053-1.135,4.805,0.609,6.516c2.141,2.107,4.88,1.123,6.26,1.123c1.915,0,2.633-2.16,2.633-2.16
									s0.471,11.256,0,12.689l-0.011,0.012c-0.492,1.434-4.066,4.783-4.066,4.783l-11.963-15.838
									c-3.467-4.58-8.379-12.551-10.775-17.773c-0.354-0.76-0.781-1.477-1.349-2.096c-2.098-2.377-6.592-3.072-7.758,1.326
									c-0.311,1.178-0.203,3.092,0.192,4.236c5.008,14.777,11.375,25.949,17.186,37.592c3.456,6.912,2.172,6.826,3.895,9.951
									c-0.203,0.139-0.106,0.396-0.32,0.525c-0.846,3.359-1.435,6.73-2.279,10.09c-0.813-4.035-1.905-8.539-3.831-12.178
									c0.385-2.354,0.76-4.74,0.524-7.115c-0.225-2.375-1.146-4.773-2.964-6.314c-0.942-0.791-2.216-1.271-3.488-1.357
									c-1.895-0.141-3.563,1.24-3.842,3.113c-0.268,1.775-0.514,3.938-1.006,5.414c-1.509,4.559-2.761,6.635-2.761,6.795
									c0,4.463,2.761,3.734,4.772,21.68c1.563,13.975,19.561,23.209,29.362,33.299l10.443,32.852
									c12.124-4.857,23.723-11.076,34.852-18.299L347.382,369.641z"/>
							</defs>
							<use xlink:href="#XMLID_2_"  overflow="visible" fill="#FFFFFF"/>
							<clipPath id="XMLID_6_">
								<use xlink:href="#XMLID_2_"  overflow="visible"/>
							</clipPath>
							<g clip-path="url(#XMLID_6_)">
								<g>
									<path fill="#F9BD95" d="M342.256,309.576c0.531-1.299,1.162-2.637,2.296-3.465c1.135-0.828,2.916-0.934,3.827,0.137
										c-0.746-2.295-1.539-4.572-2.377-6.834c-0.638-1.723-1.358-3.516-2.78-4.678c-1.421-1.162-3.764-1.406-4.982-0.033
										c0.869,5.217,0.964,10.561,0.28,15.805c-0.37,2.84-0.848,6.105,1.065,8.236c0.526,0.43,1.44-0.342,1.107-0.934
										c-0.158-0.279-0.725-0.299-0.97-0.273C340.337,314.822,341.202,312.152,342.256,309.576z"/>
									<path fill="#F9BD95" d="M342.256,309.576c0.531-1.299,1.162-2.637,2.296-3.465c1.135-0.828,2.916-0.934,3.827,0.137
										c-0.746-2.295-1.539-4.572-2.377-6.834c-0.638-1.723-1.358-3.516-2.78-4.678c-1.421-1.162-3.764-1.406-4.982-0.033
										c0.869,5.217,0.964,10.561,0.28,15.805c-0.37,2.84-0.848,6.105,1.065,8.236c0.526,0.43,1.44-0.342,1.107-0.934
										c-0.158-0.279-0.725-0.299-0.97-0.273C340.337,314.822,341.202,312.152,342.256,309.576z"/>
									<path opacity="0.5" fill="#F9BD95" d="M342.256,309.576c0.531-1.299,1.162-2.637,2.296-3.465
										c1.135-0.828,2.916-0.934,3.827,0.137c-0.746-2.295-1.539-4.572-2.377-6.834c-0.638-1.723-1.358-3.516-2.78-4.678
										c-1.421-1.162-3.764-1.406-4.982-0.033c0.869,5.217,0.964,10.561,0.28,15.805c-0.37,2.84-0.848,6.105,1.065,8.236
										c0.526,0.43,1.44-0.342,1.107-0.934c-0.158-0.279-0.725-0.299-0.97-0.273C340.337,314.822,341.202,312.152,342.256,309.576
										z"/>
								</g>
								<g>
									<path fill="#F9BD95" d="M326.303,304.832c0.075,1.924,0.063,3.871,0.537,5.736s1.512,3.684,3.195,4.617
										c-0.991-3.727-0.456-7.668,0.087-11.486c0.329-2.318,0.658-4.639,0.988-6.959c0.114-0.805,0.241-1.645,0.705-2.314
										c0.464-0.668,1.374-1.105,2.114-0.766c-0.988,0.586-2.271-0.199-2.867-1.182c-0.596-0.98-0.831-2.168-1.536-3.074
										c-1.337-1.719-4.196-2.098-6.174-1.641C323.952,293.475,326.072,298.93,326.303,304.832z"/>
									<g>
										<path fill="#F9BD95" d="M326.303,304.832c0.075,1.924,0.063,3.871,0.537,5.736s1.512,3.684,3.195,4.617
											c-0.991-3.727-0.456-7.668,0.087-11.486c0.329-2.318,0.658-4.639,0.988-6.959c0.114-0.805,0.241-1.645,0.705-2.314
											c0.464-0.668,1.374-1.105,2.114-0.766c-0.988,0.586-2.271-0.199-2.867-1.182c-0.596-0.98-0.831-2.168-1.536-3.074
											c-1.337-1.719-4.196-2.098-6.174-1.641C323.952,293.475,326.072,298.93,326.303,304.832z"/>
									</g>
									<g opacity="0.5">
										<path fill="#F9BD95" d="M326.303,304.832c0.075,1.924,0.063,3.871,0.537,5.736s1.512,3.684,3.195,4.617
											c-0.991-3.727-0.456-7.668,0.087-11.486c0.329-2.318,0.658-4.639,0.988-6.959c0.114-0.805,0.241-1.645,0.705-2.314
											c0.464-0.668,1.374-1.105,2.114-0.766c-0.988,0.586-2.271-0.199-2.867-1.182c-0.596-0.98-0.831-2.168-1.536-3.074
											c-1.337-1.719-4.196-2.098-6.174-1.641C323.952,293.475,326.072,298.93,326.303,304.832z"/>
									</g>
								</g>
								<g>
									<g>
										<path fill="#F9BD95" d="M309.976,289.416c-0.646-0.475-0.86-1.326-1.055-2.104c-0.195-0.775-0.473-1.625-1.171-2.018
											c-3.071,1.947-1.393,7.656-4.497,9.551c-0.602,0.367-1.37,0.574-1.705,1.193c-0.303,0.563-0.11,1.297,0.328,1.762
											c0.438,0.463,1.071,0.693,1.699,0.807c2.47,0.443,5.072-0.818,6.547-2.848c1.216-1.676,2.058-4.381,1.457-6.367
											C311.108,289.654,310.436,289.754,309.976,289.416z"/>
										<path fill="#F9BD95" d="M278.052,326.801c-0.056,0.213-0.096,0.48,0.075,0.621c0.263,0.217,0.614-0.119,0.81-0.398
											c1.288-1.832,3.839-2.66,5.957-1.934c0.81-0.016,1.084-1.246,0.554-1.859c-0.529-0.611-1.43-0.717-2.239-0.721
											c-0.809-0.002-1.675,0.041-2.36-0.389c-0.844-0.527-1.175-1.6-0.96-2.52C279.344,322.01,278.672,324.404,278.052,326.801z
											"/>
									</g>
									<g opacity="0.5">
										<path fill="#F9BD95" d="M309.976,289.416c-0.646-0.475-0.86-1.326-1.055-2.104c-0.195-0.775-0.473-1.625-1.171-2.018
											c-3.071,1.947-1.393,7.656-4.497,9.551c-0.602,0.367-1.37,0.574-1.705,1.193c-0.303,0.563-0.11,1.297,0.328,1.762
											c0.438,0.463,1.071,0.693,1.699,0.807c2.47,0.443,5.072-0.818,6.547-2.848c1.216-1.676,2.058-4.381,1.457-6.367
											C311.108,289.654,310.436,289.754,309.976,289.416z"/>
										<path fill="#F9BD95" d="M278.052,326.801c-0.056,0.213-0.096,0.48,0.075,0.621c0.263,0.217,0.614-0.119,0.81-0.398
											c1.288-1.832,3.839-2.66,5.957-1.934c0.81-0.016,1.084-1.246,0.554-1.859c-0.529-0.611-1.43-0.717-2.239-0.721
											c-0.809-0.002-1.675,0.041-2.36-0.389c-0.844-0.527-1.175-1.6-0.96-2.52C279.344,322.01,278.672,324.404,278.052,326.801z
											"/>
									</g>
								</g>
								<g>
									<path fill="#F9BD95" d="M318.766,288.654c-1.75-0.234-3.6-0.277-5.122-1.17c-1.908-1.117-3.215-3.506-5.425-3.602
										c-1.963-0.086-3.424,1.713-4.54,3.332c-0.128-2.441,1.667-4.723,3.937-5.631s4.88-0.619,7.151,0.283
										s4.266,2.375,6.205,3.861c0.78,0.598,1.571,1.219,2.098,2.047C325.536,291.66,320.31,288.861,318.766,288.654z"/>
									<path opacity="0.5" fill="#F9BD95" d="M318.766,288.654c-1.75-0.234-3.6-0.277-5.122-1.17
										c-1.908-1.117-3.215-3.506-5.425-3.602c-1.963-0.086-3.424,1.713-4.54,3.332c-0.128-2.441,1.667-4.723,3.937-5.631
										s4.88-0.619,7.151,0.283s4.266,2.375,6.205,3.861c0.78,0.598,1.571,1.219,2.098,2.047
										C325.536,291.66,320.31,288.861,318.766,288.654z"/>
								</g>
							</g>
							<g clip-path="url(#XMLID_6_)">
								<path fill="#F9BD95" d="M287.485,345.447c0.121-0.219,0.226-0.445,0.329-0.67
									C287.604,344.938,287.466,345.16,287.485,345.447z"/>
								<path fill="#F9BD95" d="M290.456,329.957c-0.196-2.465,0.155-4.943,0.052-7.414c-0.103-2.471-0.748-5.072-2.548-6.768
									c-2.58-2.432-9.646-1.189-7.276,3.428c0.656,1.279,2.351,1.945,3.668,1.367c1.317-0.576,1.966-2.369,1.245-3.613
									c2.856,4.334,2.602,10.486-0.605,14.566c3.664,3.176,4.828,8.859,2.823,13.254c0.428-0.328,1.175-0.373,1.645-0.018
									c0.699,0.529,0.935,1.451,1.275,2.26s1.003,1.65,1.878,1.59c1.202-2.943,0.803-6.295,0.022-9.377
									C291.854,336.148,290.709,333.127,290.456,329.957z"/>
								<path fill="#F9BD95" d="M316.329,283.584c-1.376-1.055-3.009-1.771-4.729-1.994L316.329,283.584z"/>
								<path fill="#F9BD95" d="M328.087,314.873c-0.379-1.699-1.164-3.283-1.632-4.961c-1.091-3.91-0.407-8.088-0.906-12.117
									c-0.646-5.209-3.365-10.133-7.43-13.455l-1.79-0.756c1.714,1.314,3.027,3.156,3.604,5.238
									c1.384,4.775,1.818,9.764,2.433,14.697c0.947,7.609,2.336,15.164,4.157,22.611
									C327.716,322.484,328.921,318.619,328.087,314.873z"/>
								<path fill="#F9BD95" d="M309.047,297.09c1.237-0.979,1.9-2.545,2.111-4.107c0.189-1.4,0.055-2.816-0.112-4.221
									c-0.118,0.602-0.903,1.105-1.572,0.947c-0.851-0.201-1.411-0.99-1.893-1.721c-0.121,0.42-0.243,0.84-0.365,1.26
									c-0.049-0.229-0.098-0.455-0.147-0.682l-0.475,0.604c0.709,2.008,1.392,4.338,0.298,6.164
									c-0.53,0.883-1.404,1.496-2.252,2.084C305.935,298.32,307.809,298.07,309.047,297.09z"/>
								<path fill="#F9BD95" d="M310.987,288.264c0.021,0.164,0.039,0.332,0.059,0.498
									C311.077,288.598,311.07,288.43,310.987,288.264z"/>
								<path fill="#F9BD95" d="M305.763,308.5c-3.507-6.887-7.016-13.779-10.871-20.479c-2.253-3.918-4.641-7.789-7.646-11.164
									c-1.331-1.496-5.159-4.957-7.267-2.678c-1.406,1.521,0.443,4.287-1.287,5.934c0.396,0.023,2.351-0.191,2.558,0.064
									c4.393,5.426,6.812,12.416,6.713,19.395c1.412-1.107,3.344,0.43,4.445,1.846c6.774,8.707,13.108,17.756,18.968,27.102
									c-1.135-4.131-1.163-8.512-2.389-12.617C308.215,313.32,306.985,310.902,305.763,308.5z"/>
								<path fill="#F9BD95" d="M346.497,325.289c1.676-4.484,2.984-9.078,3.133-13.84c0.135-4.324-0.854-8.818-3.14-12.523
									c-0.578-0.938-2.98-4.77-4.295-4.459c-2.348,0.557,0.734,4.637,1.271,5.656c2.028,3.85,4.111,7.92,3.981,12.268
									c-0.101,3.352-1.51,6.5-2.637,9.656c-0.785,2.201-1.425,4.555-1.409,6.861c-0.173,0.256-0.331,0.521-0.519,0.77
									c-1.559,2.043-3.746,3.727-6.283,4.141c0.967-2.984,1.934-5.967,2.899-8.951c0.346-1.064,0.47-2.521-0.149-3.262
									c0.2-0.408,0.323-0.84,0.306-1.303c-0.032-0.822-0.502-1.551-0.848-2.297c-1.339-2.883-0.885-6.23-0.56-9.393
									c0.401-3.898,0.553-7.914-0.591-11.664c-1.144-3.748-3.79-7.225-7.507-8.469c0.318,0.342,0.637,0.686,0.954,1.029
									l-1.26-0.918c0.781,1.625,1.563,3.25,2.344,4.875c-0.288,0.412-0.576,0.824-0.863,1.234
									c1.289-0.676,2.943,0.305,3.534,1.635c0.59,1.332,0.429,2.857,0.293,4.307c-0.76,8.088-0.352,16.279,1.18,24.258
									c-0.146,1.861-0.469,3.748-1.439,5.336c-1.048,1.713-3.014,3.002-5.001,2.711c0.439-1.922-0.302-4.195-1.929-5.332
									c-2.016,2.801-0.828,7.15-0.521,10.338c0.466,4.83,1.241,9.631,2.322,14.361c0.311-4.102,1.172-8.162,2.552-12.037
									c1.088,3.947,2.176,7.896,3.264,11.846c0.034-1.105,0.08-2.258,0.616-3.227c0.536-0.967,1.726-1.67,2.76-1.279
									c0.848,0.32,1.306,1.219,1.654,2.057c2.827,6.787,3.539,14.439,2.012,21.633c1.343,0.746,3.119-0.156,3.864-1.498
									c0.745-1.344,0.737-2.961,0.71-4.496C346.963,351.971,346.73,338.631,346.497,325.289z"/>
								<path fill="#F9BD95" d="M312.597,329.521c-0.641,1.125,1.979,5.584,2.413,6.645c2.204,5.381,4.408,10.762,6.612,16.143
									c-0.73-7.086-2.461-14.068-5.126-20.674C316.046,330.52,313.869,327.291,312.597,329.521z"/>
								<path fill="#F9BD95" d="M316.02,301.002c-0.375,0.568-0.913,1.268-1.564,1.068c-0.607-0.186-0.711-0.988-0.7-1.623
									c0.061-3.744,0.121-7.488,0.183-11.232c-3.022,2.166-2.635,5.006-2.847,8.238c-0.123,1.871,0.418,10.795-0.858,11.889
									c2.987-2.549,5.52-5.629,7.441-9.055C317.149,299.852,316.395,300.432,316.02,301.002z"/>
								<g opacity="0.5">
									<path fill="#F9BD95" d="M287.485,345.447c0.121-0.219,0.226-0.445,0.329-0.67
										C287.604,344.938,287.466,345.16,287.485,345.447z"/>
									<path fill="#F9BD95" d="M290.456,329.957c-0.196-2.465,0.155-4.943,0.052-7.414c-0.103-2.471-0.748-5.072-2.548-6.768
										c-2.58-2.432-9.646-1.189-7.276,3.428c0.656,1.279,2.351,1.945,3.668,1.367c1.317-0.576,1.966-2.369,1.245-3.613
										c2.856,4.334,2.602,10.486-0.605,14.566c3.664,3.176,4.828,8.859,2.823,13.254c0.428-0.328,1.175-0.373,1.645-0.018
										c0.699,0.529,0.935,1.451,1.275,2.26s1.003,1.65,1.878,1.59c1.202-2.943,0.803-6.295,0.022-9.377
										C291.854,336.148,290.709,333.127,290.456,329.957z"/>
									<path fill="#F9BD95" d="M316.329,283.584c-1.376-1.055-3.009-1.771-4.729-1.994L316.329,283.584z"/>
									<path fill="#F9BD95" d="M328.087,314.873c-0.379-1.699-1.164-3.283-1.632-4.961c-1.091-3.91-0.407-8.088-0.906-12.117
										c-0.646-5.209-3.365-10.133-7.43-13.455l-1.79-0.756c1.714,1.314,3.027,3.156,3.604,5.238
										c1.384,4.775,1.818,9.764,2.433,14.697c0.947,7.609,2.336,15.164,4.157,22.611
										C327.716,322.484,328.921,318.619,328.087,314.873z"/>
									<path fill="#F9BD95" d="M309.047,297.09c1.237-0.979,1.9-2.545,2.111-4.107c0.189-1.4,0.055-2.816-0.112-4.221
										c-0.118,0.602-0.903,1.105-1.572,0.947c-0.851-0.201-1.411-0.99-1.893-1.721c-0.121,0.42-0.243,0.84-0.365,1.26
										c-0.049-0.229-0.098-0.455-0.147-0.682l-0.475,0.604c0.709,2.008,1.392,4.338,0.298,6.164
										c-0.53,0.883-1.404,1.496-2.252,2.084C305.935,298.32,307.809,298.07,309.047,297.09z"/>
									<path fill="#F9BD95" d="M310.987,288.264c0.021,0.164,0.039,0.332,0.059,0.498
										C311.077,288.598,311.07,288.43,310.987,288.264z"/>
									<path fill="#F9BD95" d="M305.763,308.5c-3.507-6.887-7.016-13.779-10.871-20.479c-2.253-3.918-4.641-7.789-7.646-11.164
										c-1.331-1.496-5.159-4.957-7.267-2.678c-1.406,1.521,0.443,4.287-1.287,5.934c0.396,0.023,2.351-0.191,2.558,0.064
										c4.393,5.426,6.812,12.416,6.713,19.395c1.412-1.107,3.344,0.43,4.445,1.846c6.774,8.707,13.108,17.756,18.968,27.102
										c-1.135-4.131-1.163-8.512-2.389-12.617C308.215,313.32,306.985,310.902,305.763,308.5z"/>
									<path fill="#F9BD95" d="M346.497,325.289c1.676-4.484,2.984-9.078,3.133-13.84c0.135-4.324-0.854-8.818-3.14-12.523
										c-0.578-0.938-2.98-4.77-4.295-4.459c-2.348,0.557,0.734,4.637,1.271,5.656c2.028,3.85,4.111,7.92,3.981,12.268
										c-0.101,3.352-1.51,6.5-2.637,9.656c-0.785,2.201-1.425,4.555-1.409,6.861c-0.173,0.256-0.331,0.521-0.519,0.77
										c-1.559,2.043-3.746,3.727-6.283,4.141c0.967-2.984,1.934-5.967,2.899-8.951c0.346-1.064,0.47-2.521-0.149-3.262
										c0.2-0.408,0.323-0.84,0.306-1.303c-0.032-0.822-0.502-1.551-0.848-2.297c-1.339-2.883-0.885-6.23-0.56-9.393
										c0.401-3.898,0.553-7.914-0.591-11.664c-1.144-3.748-3.79-7.225-7.507-8.469c0.318,0.342,0.637,0.686,0.954,1.029
										l-1.26-0.918c0.781,1.625,1.563,3.25,2.344,4.875c-0.288,0.412-0.576,0.824-0.863,1.234
										c1.289-0.676,2.943,0.305,3.534,1.635c0.59,1.332,0.429,2.857,0.293,4.307c-0.76,8.088-0.352,16.279,1.18,24.258
										c-0.146,1.861-0.469,3.748-1.439,5.336c-1.048,1.713-3.014,3.002-5.001,2.711c0.439-1.922-0.302-4.195-1.929-5.332
										c-2.016,2.801-0.828,7.15-0.521,10.338c0.466,4.83,1.241,9.631,2.322,14.361c0.311-4.102,1.172-8.162,2.552-12.037
										c1.088,3.947,2.176,7.896,3.264,11.846c0.034-1.105,0.08-2.258,0.616-3.227c0.536-0.967,1.726-1.67,2.76-1.279
										c0.848,0.32,1.306,1.219,1.654,2.057c2.827,6.787,3.539,14.439,2.012,21.633c1.343,0.746,3.119-0.156,3.864-1.498
										c0.745-1.344,0.737-2.961,0.71-4.496C346.963,351.971,346.73,338.631,346.497,325.289z"/>
									<path fill="#F9BD95" d="M312.597,329.521c-0.641,1.125,1.979,5.584,2.413,6.645c2.204,5.381,4.408,10.762,6.612,16.143
										c-0.73-7.086-2.461-14.068-5.126-20.674C316.046,330.52,313.869,327.291,312.597,329.521z"/>
									<path fill="#F9BD95" d="M316.02,301.002c-0.375,0.568-0.913,1.268-1.564,1.068c-0.607-0.186-0.711-0.988-0.7-1.623
										c0.061-3.744,0.121-7.488,0.183-11.232c-3.022,2.166-2.635,5.006-2.847,8.238c-0.123,1.871,0.418,10.795-0.858,11.889
										c2.987-2.549,5.52-5.629,7.441-9.055C317.149,299.852,316.395,300.432,316.02,301.002z"/>
								</g>
							</g>
						</g>
						<g>
							<g>
								<g>
									<path fill="none" d="M323.676,288.754c1.766,6.52,2.686,13.268,2.729,20.021c0.007,1.131-0.006,2.287,0.356,3.357
										c0.361,1.07,1.186,2.061,2.293,2.285"/>
									<path fill="none" d="M337.819,295.324c2.97,6.262-0.069,20.244,0.154,21.23c0.225,0.984,0.786,1.941,1.686,2.4"/>
									<g>
										<path fill="none" d="M312.037,287.898c-0.349,1.99-0.641,4.297-0.99,6.287c-2.324-1.977-3.805-4.916-4.009-7.961"/>
										<path fill="none" d="M292.879,341.254c-0.719,0.318-1.438,0.635-2.158,0.951"/>
										<path fill="none" d="M293.432,342.986c-0.352,1.662-0.359,3.395-0.022,5.059"/>
										<path fill="none" d="M306.068,324.297c0.798,1.438,1.597,2.875,2.395,4.311"/>
										<path fill="none" d="M310.665,308.527c0.793-1.121,1.586-2.242,2.38-3.363"/>
										<path fill="none" d="M344.142,324.297c-0.24,0.879-0.479,1.756-0.719,2.635"/>
										<path fill="none" d="M338.32,317.092c0.702-2.24,1.403-4.48,2.105-6.721"/>
										<path fill="none" d="M345.357,305.174c1.235-0.715,3.029-0.158,3.64,1.133"/>
										<path fill="none" d="M330.985,293.695c1.651-0.48,3.539-0.049,4.818,1.102"/>
										<path fill="none" d="M286.445,300.363c1.536-1.707,3.925-2.607,6.206-2.336"/>
									</g>
								</g>
								<path fill="none" d="M277.424,281.502c1.43-1.047,3.291-1.482,5.036-1.18"/>
								<path fill="#FFFFFF" d="M279.279,326.25c-1.158,0.918-2.155,2.039-2.933,3.297L279.279,326.25z"/>
							</g>
							<path fill="none" d="M280.24,321.709c1.581-1.129,4.1,1.398,5.554,0.107c0.578-0.514,0.622-1.402,0.488-2.166
								c-0.135-0.762-0.402-1.525-0.289-2.291"/>
						</g>
					</g>
				</g>
				<path fill="none" d="M324.83,314.775c1.92,3.943,2.318,8.604,1.098,12.816"/>
				<path fill="none" d="M336.445,320.941c0.315,1.875-0.046,3.855-1.003,5.496"/>
			</g>
		</g>
		<g>
			<g>
				<g>
					<g>
						<g>
							<path fill="none" stroke="#263238" stroke-miterlimit="10" d="M320.823,417.248l-10.443-32.852
								c-9.802-10.09-27.8-19.324-29.362-33.299c-2.012-17.945-4.772-17.217-4.772-21.68c0-0.16,1.252-2.236,2.761-6.795
								c0.492-1.477,0.738-3.639,1.006-5.414c0.278-1.873,1.947-3.254,3.842-3.113c1.272,0.086,2.546,0.566,3.488,1.357
								c1.818,1.541,2.739,3.939,2.964,6.314c0.235,2.375-0.14,4.762-0.524,7.115c1.926,3.639,3.018,8.143,3.831,12.178
								c0.845-3.359,1.434-6.73,2.278-10.09c0.215-0.129,0.118-0.387,0.321-0.525c-1.723-3.125-0.438-3.039-3.895-9.951
								c-5.811-11.643-12.178-22.814-17.186-37.592c-0.396-1.145-0.503-3.059-0.192-4.236c1.167-4.398,5.66-3.703,7.758-1.326
								c0.567,0.619,0.995,1.336,1.349,2.096c2.396,5.223,7.309,13.195,10.775,17.773l11.963,15.838c0,0,3.574-3.35,4.066-4.783
								l0.011-0.012c0.471-1.434,0-12.689,0-12.689s-0.717,2.16-2.633,2.16c-1.38,0-4.119,0.984-6.26-1.123
								c-1.744-1.711-1.926-4.463-0.609-6.516l4.473-6.967c0,0,3.113-3.113,7.661-1.445c4.548,1.682,9.096,5.512,9.096,5.512
								s4.077-0.482,7.661,0.953c3.596,1.443,7.565,6.012,7.565,6.012s4.077-0.02,5.992,1.178c0.481,0.301,7.319,9.535,5.586,17.195
								c-1.027,4.57-1.412,11.129-1.895,12.916l-0.117,44.203l8.293,29.309"/>
						</g>
						<g>
							<g>
								<g>
									<path fill="none" stroke="#263238" stroke-miterlimit="10" d="M323.676,288.754c1.766,6.52,2.686,13.268,2.729,20.021
										c0.007,1.131-0.006,2.287,0.356,3.357c0.361,1.07,1.186,2.061,2.293,2.285"/>
									<path fill="none" stroke="#263238" stroke-miterlimit="10" d="M337.819,295.324c2.97,6.262-0.069,20.244,0.154,21.23
										c0.225,0.984,0.786,1.941,1.686,2.4"/>
									<g>
										<path fill="none" stroke="#263238" stroke-miterlimit="10" d="M312.037,287.898c-0.349,1.99-0.641,4.297-0.99,6.287
											c-2.324-1.977-3.805-4.916-4.009-7.961"/>
										<path fill="none" stroke="#263238" stroke-miterlimit="10" d="M292.879,341.254c-0.719,0.318-1.438,0.635-2.158,0.951"/>
										<path fill="none" stroke="#263238" stroke-miterlimit="10" d="M293.432,342.986c-0.352,1.662-0.359,3.395-0.022,5.059"/>
										<path fill="none" stroke="#263238" stroke-miterlimit="10" d="M306.068,324.297c0.798,1.438,1.597,2.875,2.395,4.311"/>
										<path fill="none" stroke="#263238" stroke-miterlimit="10" d="M310.665,308.527c0.793-1.121,1.586-2.242,2.38-3.363"/>
										<path fill="none" stroke="#263238" stroke-miterlimit="10" d="M344.142,324.297c-0.24,0.879-0.479,1.756-0.719,2.635"/>
										<path fill="none" stroke="#263238" stroke-miterlimit="10" d="M338.32,317.092c0.702-2.24,1.403-4.48,2.105-6.721"/>
										<path fill="none" stroke="#263238" stroke-miterlimit="10" d="M345.357,305.174c1.235-0.715,3.029-0.158,3.64,1.133"/>
										<path fill="none" stroke="#263238" stroke-miterlimit="10" d="M330.985,293.695c1.651-0.48,3.539-0.049,4.818,1.102"/>
										<path fill="none" stroke="#263238" stroke-miterlimit="10" d="M286.445,300.363c1.536-1.707,3.925-2.607,6.206-2.336"/>
									</g>
								</g>
								<path fill="none" stroke="#263238" stroke-miterlimit="10" d="M277.424,281.502c1.43-1.047,3.291-1.482,5.036-1.18"/>
								<path fill="none" stroke="#263238" stroke-miterlimit="10" d="M279.279,326.25c-1.158,0.918-2.155,2.039-2.933,3.297"/>
							</g>
							<path fill="none" stroke="#263238" stroke-miterlimit="10" d="M280.24,321.709c1.581-1.129,4.1,1.398,5.554,0.107
								c0.578-0.514,0.622-1.402,0.488-2.166c-0.135-0.762-0.402-1.525-0.289-2.291"/>
						</g>
					</g>
				</g>
				<path fill="none" stroke="#263238" stroke-miterlimit="10" d="M324.83,314.775c1.92,3.943,2.318,8.604,1.098,12.816"/>
				<path fill="none" stroke="#263238" stroke-miterlimit="10" d="M336.445,320.941c0.315,1.875-0.046,3.855-1.003,5.496"/>
			</g>
		</g>
		<path opacity="0.2" d="M239.76,335.953c0.091,0.689,0.06,1.4-0.09,2.08c-0.649,3.01-2.53,11.779-3.22,16.58
			c-0.82,5.859-10.29,24-10.29,24s-8.72,10.84-13.16,16.479c-2.181,2.771-5.63,13.98-8.56,24.66c-3.701-1.119-7.36-2.33-11-3.619
			c-3.01-1.07-6.021-2.201-8.99-3.371c-4.18-1.648-9.51-4.27-15.631-7.619c1.66-6.029,2.771-10.67,2.75-10.939
			c-0.049-0.631,3.561-7.58,3.561-7.58l-3.15-41.441l-1.859-6.309c-0.971-3.26-1.58-6.621-1.83-9.98
			c-0.391-5.131,0.04-10.301,1.29-15.33l5.43-8.061l2.54-0.189l7.86-10.98c0,0,4.25-1.279,5.34,1.92c1.09,3.211-3.54,9.18-3.54,9.18
			l-1.59,9.871l3.779,9.24l1.961,0.719c0,0,0.66-16.27,0.209-19.52l4.181-14.85c0,0,2.489-4.961,3.26-7.461
			c0.761-2.488,5.229-4.959,7.8-0.59c0,0,1.43,2.221,0.4,5.271c-1.05,3.049-1.92,5.449-1.92,5.449s-0.95,12.58-1.25,12.93
			c-0.301,0.33,1.85,18.73,1.85,18.73l1.641,0.73l0.58-17.551l3.41-16.49c0,0-0.281-7.93,5.31-6.969c0,0,2.62-0.301,4.11,2.559
			c1.49,2.852,0.069,21.83,0.069,21.83l1.38,19.621l2.211,15.129l2.6-10.369c0,0,0.15-14.859,9.529-16.131c0,0,2.791-0.5,3.36,1.441
			c0.57,1.93-1.39,5.898-1.11,9.699C239.19,331.393,239.569,334.402,239.76,335.953z"/>
		<g>
			<g>
				<defs>
					<path id="XMLID_1_" d="M236.91,317.584c-0.429-1.98-3.242-1.691-3.242-1.691c-9.448,0.557-10.722,15.365-10.722,15.365
						l-3.382,10.145l-1.06-15.258l0.107-19.668c0,0,2.857-18.822,1.584-21.775c-1.264-2.965-3.906-2.857-3.906-2.857
						c-5.5-1.381-5.82,6.549-5.82,6.549l-4.645,16.18l-1.904,17.451l-1.584-0.844c0,0-0.749-18.514-0.428-18.822
						c0.32-0.322,2.226-12.799,2.226-12.799s1.048-2.322,2.321-5.285c1.264-2.965,0-5.287,0-5.287c-2.225-4.547-6.869-2.428-7.822,0
						c-0.951,2.43-3.809,7.191-3.809,7.191l-5.297,14.488c0.203,3.273-1.68,19.453-1.68,19.453l-1.904-0.867l-3.072-9.502
						l2.334-9.727c0,0,5.071-5.596,4.227-8.881c-0.846-3.273-5.18-2.322-5.18-2.322l-8.668,10.357h-2.546l-6.024,7.619
						c-1.627,4.922-2.451,10.049-2.451,15.195c0,3.371,0.354,6.762,1.07,10.09l1.381,6.432v41.561c0,0-4.119,6.656-4.119,7.287
						c0,0.289-1.702,5.543-4.078,12.092c10.369,6.1,19.305,10.818,25.629,13.311c2.975,1.178,5.98,2.301,8.998,3.371
						c3.799-10.668,8.24-22.086,10.69-24.75c4.858-5.287,14.37-15.441,14.37-15.441s10.818-17.367,12.081-23.145
						c1.049-4.74,3.585-13.344,4.462-16.297c0.203-0.664,0.289-1.369,0.246-2.064c-0.074-1.563-0.225-4.592-0.225-7.266
						C235.069,323.361,237.327,319.553,236.91,317.584z"/>
				</defs>
				<use xlink:href="#XMLID_1_"  overflow="visible" fill="#FFFFFF"/>
				<clipPath id="XMLID_7_">
					<use xlink:href="#XMLID_1_"  overflow="visible"/>
				</clipPath>
				<path clip-path="url(#XMLID_7_)" fill="#F9E0CF" d="M172.015,313.4c1.614-2.014,4.936-2.787,6.813-1.018
					c1.077,1.016,1.44,2.559,1.713,4.014c0.273,1.455,0.544,2.996,1.509,4.119s2.891,1.563,3.905,0.486
					c0.134,2.189,0.269,4.379,0.403,6.568c2.336-4.057,3.541-8.756,3.443-13.436c-0.047-2.273-0.39-4.586,0.137-6.799
					c0.527-2.213,2.246-4.367,4.518-4.471c2.521-0.113,4.514,2.34,4.998,4.816s-0.084,5.02-0.237,7.537
					c-0.234,3.842,0.519,7.738,2.165,11.215c0.529-1.072,1.059-2.145,1.588-3.217c0.478,2.15,0.955,4.303,1.432,6.455
					c0.413-4.736,0.826-9.471,1.24-14.207c0.116-1.338,0.244-2.715,0.868-3.904c0.623-1.189,1.874-2.154,3.21-2.021
					c1.803,0.18,2.838,2.102,3.441,3.807c4.505,12.742,2.649,26.742,0.739,40.121c1.253,0.223,2.306-1.035,2.618-2.27
					c0.313-1.232,0.201-2.564,0.669-3.748s1.917-2.158,2.993-1.48c1.575,0.992,0.475,4.064,2.131,4.914
					c0.514-3.957,2.093-7.771,4.527-10.934c1.108-1.439,2.774-2.867,4.533-2.412c1.313,0.342,2.17,1.684,2.363,3.025
					s2.13-4.201,1.797-2.887c0.757-7.713-0.759-8.527-0.002-16.24c0.137-1.393,2.389-3.807,1.432-4.828
					c-0.911-0.971-3.631-2.391-4.838-1.832c-1.208,0.559-5.139,2.514-5.919,3.59c-4.913,6.785-4.579,16.611-6.106,24.848
					c-1.305-12.561-2.602-25.328-0.299-37.744c1.27-6.848,3.61-13.982,1.398-20.586c-1.009-3.016-3.688-6.031-6.814-5.459
					c-2.523,0.463-4.05,3.006-5.074,5.359c-3.443,7.9-4.973,16.479-6.476,24.967c1.879-8.541,3.759-17.082,5.638-25.623
					c0.488-2.221,0.979-4.51,0.574-6.746c-0.402-2.236-1.932-4.432-4.154-4.898c-2.207-0.465-4.399,0.842-6.063,2.363
					c-5.944,5.438-8.157,13.734-10.095,21.553c0.68-2.041,1.369-4.158,1.159-6.301s-1.573-4.33-3.677-4.791
					c-2.722-0.598-5.195,1.834-6.392,4.352s-1.785,5.412-3.69,7.447c-1.391-1.564-4.001-1.473-5.746-0.318
					c-1.744,1.156-2.797,3.09-3.649,5.002c-3.128,7.018-4.471,14.822-3.867,22.48c1.378-3.074,4.864-5.059,8.212-4.674
					c-0.199-1.703-0.398-3.408-0.597-5.111"/>
				<g opacity="0.5" clip-path="url(#XMLID_7_)">
					<g>
						<path fill="#5D5D5D" d="M178.598,329.67c-0.085,1.264-0.169,2.525-0.253,3.787c0.387-1.051,1.93-1.443,2.77-0.703
							c-0.186-0.801,0.313-1.58,0.63-2.34s0.351-1.84-0.39-2.201c-0.879-0.43-1.748,0.58-2.211,1.443
							c-0.039-0.313-0.078-0.627-0.117-0.939L178.598,329.67z"/>
					</g>
					<g>
						<path fill="#5D5D5D" d="M192.942,327.408c-1.031,1.18-1.736,2.641-2.018,4.182c0.435-0.428,0.889-0.865,1.461-1.072
							c0.572-0.209,1.3-0.119,1.662,0.369c0.227,0.307,0.307,0.744,0.643,0.92c0.34,0.176,0.775-0.037,0.978-0.361
							c0.202-0.322,0.231-0.721,0.255-1.102c0.046-0.729,0.089-1.475-0.121-2.174c-0.211-0.697-0.732-1.35-1.445-1.504
							s-1.559,0.369-1.564,1.1L192.942,327.408z"/>
					</g>
					<g>
						<path fill="#5D5D5D" d="M206.829,330.855c-1.096,1.473-1.822,3.219-2.096,5.035c0.736-0.107,1.354-0.59,1.942-1.045
							s1.229-0.918,1.97-0.975c0.742-0.059,1.578,0.477,1.555,1.221c-0.141-0.838-0.006-1.695,0.083-2.541s0.129-1.73-0.187-2.52
							c-0.316-0.789-1.077-1.459-1.927-1.414c-0.849,0.047-1.579,1.039-1.182,1.791L206.829,330.855z"/>
					</g>
					<g>
						<path fill="#5D5D5D" d="M168.619,335.871c-0.769,1.441-1.173,3.074-1.165,4.705c0.01-0.752,0.719-1.359,1.463-1.465
							c0.744-0.107,1.491,0.182,2.137,0.568c0.148-0.758,0.297-1.539,0.139-2.293s-0.705-1.482-1.467-1.605
							c-0.761-0.123-1.603,0.611-1.394,1.354c-0.079-0.191-0.157-0.385-0.235-0.576L168.619,335.871z"/>
					</g>
				</g>
				<path id="XMLID_3_" opacity="0.5" clip-path="url(#XMLID_7_)" fill="#FFFFFF" d="M172.015,313.4
					c1.614-2.014,4.936-2.787,6.813-1.018c1.077,1.016,1.44,2.559,1.713,4.014c0.273,1.455,0.544,2.996,1.509,4.119
					s2.891,1.563,3.905,0.486c0.134,2.189,0.269,4.379,0.403,6.568c2.336-4.057,3.541-8.756,3.443-13.436
					c-0.047-2.273-0.39-4.586,0.137-6.799c0.527-2.213,2.246-4.367,4.518-4.471c2.521-0.113,4.514,2.34,4.998,4.816
					s-0.084,5.02-0.237,7.537c-0.234,3.842,0.519,7.738,2.165,11.215c0.529-1.072,1.059-2.145,1.588-3.217
					c0.478,2.15,0.955,4.303,1.432,6.455c0.413-4.736,0.826-9.471,1.24-14.207c0.116-1.338,0.244-2.715,0.868-3.904
					c0.623-1.189,1.874-2.154,3.21-2.021c1.803,0.18,2.838,2.102,3.441,3.807c4.505,12.742,2.649,26.742,0.739,40.121
					c1.253,0.223,2.306-1.035,2.618-2.27c0.313-1.232,0.201-2.564,0.669-3.748s1.917-2.158,2.993-1.48
					c1.575,0.992,0.475,4.064,2.131,4.914c0.514-3.957,2.093-7.771,4.527-10.934c1.108-1.439,2.774-2.867,4.533-2.412
					c1.313,0.342,2.17,1.684,2.363,3.025s2.13-4.201,1.797-2.887c0.757-7.713-0.759-8.527-0.002-16.24
					c0.137-1.393,2.389-3.807,1.432-4.828c-0.911-0.971-3.631-2.391-4.838-1.832c-1.208,0.559-5.139,2.514-5.919,3.59
					c-4.913,6.785-4.579,16.611-6.106,24.848c-1.305-12.561-2.602-25.328-0.299-37.744c1.27-6.848,3.61-13.982,1.398-20.586
					c-1.009-3.016-3.688-6.031-6.814-5.459c-2.523,0.463-4.05,3.006-5.074,5.359c-3.443,7.9-4.973,16.479-6.476,24.967
					c1.879-8.541,3.759-17.082,5.638-25.623c0.488-2.221,0.979-4.51,0.574-6.746c-0.402-2.236-1.932-4.432-4.154-4.898
					c-2.207-0.465-4.399,0.842-6.063,2.363c-5.944,5.438-8.157,13.734-10.095,21.553c0.68-2.041,1.369-4.158,1.159-6.301
					s-1.573-4.33-3.677-4.791c-2.722-0.598-5.195,1.834-6.392,4.352s-1.785,5.412-3.69,7.447c-1.391-1.564-4.001-1.473-5.746-0.318
					c-1.744,1.156-2.797,3.09-3.649,5.002c-3.128,7.018-4.471,14.822-3.867,22.48c1.378-3.074,4.864-5.059,8.212-4.674
					c-0.199-1.703-0.398-3.408-0.597-5.111"/>
				<g opacity="0.5" clip-path="url(#XMLID_7_)">
					<g>
						<path fill="#FFFFFF" d="M178.598,329.67c-0.085,1.264-0.169,2.525-0.253,3.787c0.387-1.051,1.93-1.443,2.77-0.703
							c-0.186-0.801,0.313-1.58,0.63-2.34s0.351-1.84-0.39-2.201c-0.879-0.43-1.748,0.58-2.211,1.443
							c-0.039-0.313-0.078-0.627-0.117-0.939L178.598,329.67z"/>
					</g>
					<g>
						<path fill="#FFFFFF" d="M192.942,327.408c-1.031,1.18-1.736,2.641-2.018,4.182c0.435-0.428,0.889-0.865,1.461-1.072
							c0.572-0.209,1.3-0.119,1.662,0.369c0.227,0.307,0.307,0.744,0.643,0.92c0.34,0.176,0.775-0.037,0.978-0.361
							c0.202-0.322,0.231-0.721,0.255-1.102c0.046-0.729,0.089-1.475-0.121-2.174c-0.211-0.697-0.732-1.35-1.445-1.504
							s-1.559,0.369-1.564,1.1L192.942,327.408z"/>
					</g>
					<g>
						<path fill="#FFFFFF" d="M206.829,330.855c-1.096,1.473-1.822,3.219-2.096,5.035c0.736-0.107,1.354-0.59,1.942-1.045
							s1.229-0.918,1.97-0.975c0.742-0.059,1.578,0.477,1.555,1.221c-0.141-0.838-0.006-1.695,0.083-2.541s0.129-1.73-0.187-2.52
							c-0.316-0.789-1.077-1.459-1.927-1.414c-0.849,0.047-1.579,1.039-1.182,1.791L206.829,330.855z"/>
					</g>
					<g>
						<path fill="#FFFFFF" d="M168.619,335.871c-0.769,1.441-1.173,3.074-1.165,4.705c0.01-0.752,0.719-1.359,1.463-1.465
							c0.744-0.107,1.491,0.182,2.137,0.568c0.148-0.758,0.297-1.539,0.139-2.293s-0.705-1.482-1.467-1.605
							c-0.761-0.123-1.603,0.611-1.394,1.354c-0.079-0.191-0.157-0.385-0.235-0.576L168.619,335.871z"/>
					</g>
				</g>
			</g>
			<g>
				<path fill="none" stroke="#263238" stroke-miterlimit="10" d="M158.817,399.453c2.376-6.549,4.078-11.803,4.078-12.092
					c0-0.631,4.119-7.287,4.119-7.287v-41.561l-1.381-6.432c-0.717-3.328-1.07-6.719-1.07-10.09c0-5.146,0.824-10.273,2.451-15.195
					l6.024-7.619h2.546l8.668-10.357c0,0,4.334-0.951,5.18,2.322c0.845,3.285-4.227,8.881-4.227,8.881l-2.334,9.727l3.072,9.502
					l1.904,0.867c0,0,1.883-16.18,1.68-19.453l5.297-14.488c0,0,2.857-4.762,3.809-7.191c0.953-2.428,5.598-4.547,7.822,0
					c0,0,1.264,2.322,0,5.287c-1.273,2.963-2.322,5.285-2.322,5.285s-1.904,12.477-2.225,12.799
					c-0.321,0.309,0.428,18.822,0.428,18.822l1.584,0.844l1.904-17.451l4.645-16.18c0,0,0.32-7.93,5.82-6.549
					c0,0,2.643-0.107,3.906,2.857c1.273,2.953-1.584,21.775-1.584,21.775l-0.107,19.668l1.06,15.258l3.382-10.145
					c0,0,1.273-14.809,10.722-15.365c0,0,2.813-0.289,3.242,1.691c0.417,1.969-1.841,5.777-1.841,9.588
					c0,2.674,0.15,5.703,0.225,7.266c0.043,0.695-0.043,1.4-0.246,2.064c-0.877,2.953-3.413,11.557-4.462,16.297
					c-1.263,5.777-12.081,23.145-12.081,23.145s-9.512,10.154-14.371,15.441c-2.449,2.664-6.891,14.082-10.689,24.75"/>
			</g>
			<path fill="#FFFFFF" stroke="#263238" stroke-miterlimit="10" d="M187.675,321.686c0.553,1.971-0.008,4.215-1.422,5.695"/>
			<path fill="#FFFFFF" stroke="#263238" stroke-miterlimit="10" d="M171.548,335.666c1.377-2.127,2.712-5.049,2.344-7.557
				c-0.723-4.908-2.96-10.559-1.953-15.416c0.643-3.104,1.286-6.207,1.93-9.311"/>
			<path fill="none" stroke="#263238" stroke-miterlimit="10" d="M211.419,289.285c1.625-0.428,3.363-0.422,4.986,0.014
				c0.02-0.463,0.039-0.928,0.057-1.391"/>
			<path fill="none" stroke="#263238" stroke-miterlimit="10" d="M198.288,283.039c0.957,0.688,2.309,0.779,3.35,0.229
				c1.043-0.553,1.728-1.719,1.699-2.898"/>
			<path fill="none" stroke="#263238" stroke-miterlimit="10" d="M234.431,317.752c-2.775,0.633-4.854,3.5-4.591,6.334
				c0.817,0.244,1.635,0.488,2.452,0.732"/>
			<path fill="#FFFFFF" stroke="#263238" stroke-miterlimit="10" d="M202.247,318.975c0.111,1.676-0.094,5.688,0.018,7.365"/>
			<path fill="#FFFFFF" stroke="#263238" stroke-miterlimit="10" d="M204.09,321.299c-0.202,2.748-0.404,5.496-0.606,8.244
				c0.016-0.35,0.032-0.699,0.049-1.049"/>
			<path fill="#FFFFFF" stroke="#263238" stroke-miterlimit="10" d="M219.347,344.473c0.732,3.008,0.396,6.266-0.936,9.061"/>
			<path fill="none" stroke="#263238" stroke-miterlimit="10" d="M193.997,330.064c-2.179,2.391-1.859,8.123-0.32,11.279"/>
			<path fill="none" stroke="#263238" stroke-miterlimit="10" d="M210.109,334.01c0.054,2.58-0.888,5.168-2.669,7.334"/>
			<path fill="none" stroke="#263238" stroke-miterlimit="10" d="M178.119,331.207c-0.36,2.4,0.18,4.928,1.491,6.969"/>
			<path fill="none" stroke="#263238" stroke-miterlimit="10" d="M168.843,338.672c-0.105,1.887,0.446,3.803,1.54,5.342"/>
			<path fill="none" stroke="#263238" stroke-miterlimit="10" d="M181.558,292.568c1.131-0.547,2.594-0.313,3.498,0.561
				c0.412-0.543,0.824-1.086,1.236-1.631"/>
			<path fill="none" stroke="#263238" stroke-miterlimit="10" d="M191.818,299.91c1.653-1.053,4.073-0.641,5.286,0.896"/>
			<path fill="none" stroke="#263238" stroke-miterlimit="10" d="M207.845,304.912c1.784-0.809,3.934-0.764,5.683,0.119"/>
			<path fill="none" stroke="#263238" stroke-miterlimit="10" d="M172.186,313.301c1.035-1.787,3.19-2.857,5.241-2.6"/>
			<path fill="none" stroke="#263238" stroke-miterlimit="10" d="M165.479,322.867c0.026-1.293,1.09-2.486,2.371-2.662"/>
		</g>
	</g>
	<g>
		
			<circle fill="none" stroke="#263238" stroke-linecap="round" stroke-linejoin="round" stroke-miterlimit="10" cx="423.145" cy="209.555" r="41.447"/>
		<g>
			<g>
				<g>
					<path opacity="0.2" d="M470.07,210.64c-8.837,14.495-11.98,12.536-42.125,26.978c-15.303,7.33-30.092-16.236-20.087-40.426
						c0.488-1.18,4.812-7.149,4.812-7.149c1.82-8,8.46-14.7,16.45-16.58c7.979-1.89,16.92,1.12,22.13,7.46
						c5.66-5.01,13.87-6.869,21.18-5.06c0.351,1.021,0.681,2.021,1,3c0.12,0.38,0.25,0.75,0.36,1.13c0.38,1.17,0.74,2.34,1.07,3.52
						c0.659,2.24,1.27,4.49,1.84,6.76c-3.33-0.93-6.681-0.949-9.84,0.591c-2.21,1.079-4.061,2.86-6.36,3.739
						c-2.3,0.871-5.48,0.381-6.36-1.92c1.11,4.621,5.958,3.239,10.615,4.154C471.965,198.251,473.79,204.539,470.07,210.64z"/>
				</g>
				<g>
					<path fill="#FFFFFF" stroke="#263238" stroke-linecap="round" stroke-linejoin="round" stroke-miterlimit="10" d="
						M456.455,203.496c0,0,7.42-1.006,10.945-0.479c2.237,0.335,3.61,1.637,4.267,2.449c0.305,0.376,0.479,0.84,0.513,1.322
						l0.397,5.798c0.046,0.662-0.179,1.319-0.639,1.798c-1.447,1.506-5.818,4.256-18.754,5.245
						C434.994,221.021,456.455,203.496,456.455,203.496z"/>
					<g>
						<path fill="#FFFFFF" stroke="#263238" stroke-linecap="round" stroke-linejoin="round" stroke-miterlimit="10" d="
							M451.035,188.506c2.088,2.596,6.073,8.486,6.073,17.631c0,6.91-8.003,30.511-28.493,33.383
							c-21.688,3.041-39.125-15.521-35.401-37.858C395.79,186.211,433.623,166.865,451.035,188.506z"/>
						<ellipse fill="#FFFFFF" cx="424.534" cy="204.576" rx="31.47" ry="29.787"/>
						<ellipse fill="#263238" cx="424.469" cy="206.137" rx="25.835" ry="24.453"/>
						<path fill="none" stroke="#263238" stroke-linecap="round" stroke-linejoin="round" stroke-miterlimit="10" d="
							M456.004,204.576c0-16.45-14.09-29.786-31.47-29.786c-17.381,0-31.471,13.336-31.471,29.786"/>
						<path fill="none" stroke="#263238" stroke-linecap="round" stroke-linejoin="round" stroke-miterlimit="10" d="M447.7,224.737
							c5.155-5.305,8.304-12.385,8.304-20.161"/>
						<path fill="none" stroke="#263238" stroke-linecap="round" stroke-linejoin="round" stroke-miterlimit="10" d="
							M402.489,225.834c5.678,5.275,13.46,8.529,22.045,8.529c5.271,0,10.241-1.228,14.606-3.396"/>
						<path fill="none" stroke="#263238" stroke-linecap="round" stroke-linejoin="round" stroke-miterlimit="10" d="
							M397.949,220.523c0.412,0.615,0.848,1.215,1.306,1.797"/>
						<path fill="none" stroke="#263238" stroke-linecap="round" stroke-linejoin="round" stroke-miterlimit="10" d="
							M393.063,204.576c0,4.546,1.076,8.854,3,12.708"/>
					</g>
					<path fill="#FFFFFF" stroke="#263238" stroke-linecap="round" stroke-linejoin="round" stroke-miterlimit="10" d="
						M470.717,212.729c0,0-5.611-3.922-14.713-0.367"/>
					<path fill="#FFFFFF" stroke="#263238" stroke-linecap="round" stroke-linejoin="round" stroke-miterlimit="10" d="
						M465.887,215.455c-2.146,0.637-5.747,1.372-11.638,1.828"/>
					<path fill="#FFFFFF" stroke="#263238" stroke-linecap="round" stroke-linejoin="round" stroke-miterlimit="10" d="
						M468.804,214.217c0,0-0.339,0.299-1.403,0.723"/>
				</g>
			</g>
			<g>
				<g>
					<path fill="#FFFFFF" d="M473.79,179.992c-0.11-0.38-0.24-0.75-0.36-1.13c-1.91-5.921-4.37-12.421-7.359-19.28
						c-0.551-1.27-1.13-2.561-1.71-3.859c-0.23,0.02-0.45,0.039-0.67,0.06c-2.87,0.29-5.891,0.649-8.25,2.28
						c-2.37,1.66-3.771,5.07-2.24,7.52c1.5,2.43,5.43,3.78,4.81,6.551c-6.41,3.609-14.229,3.189-21.359,5.01
						c-4.29,1.09-8.351,3.02-11.91,5.619c-0.011,0-0.011,0.01-0.021,0.01c-1.13,0.851-2.22,1.75-3.24,2.721
						c-0.449,0.43-0.92,0.9-1.319,1.42c-0.01,0.01-0.01,0.01-0.01,0.02c-0.591,0.75-1.04,1.59-1.131,2.541
						c-0.25,2.67,2.181,4.489,4.771,5.649c0.479,0.22,0.45,0.91-0.04,1.08c-1.69,0.681-3.34,1.47-4.67,2.7
						c-0.01,0-0.021,0.01-0.03,0.02c-0.82,0.74-0.149,2.131,0.97,1.98c0.12-0.02,0.271-0.03,0.4-0.04c1.1-0.08,2.13,0.05,3.021,0.36
						c1.529,0.539,2.6,1.58,2.71,2.859c0.159,2.03-2.15,3.859-5.15,4.09c-0.73,0.07-0.17,0.94,0.9,1.12
						c2.13,0.38,4.3-0.03,6.399-0.521c2.51-0.6,5.19-1.469,6.61-3.619c0.6-0.91,0.78-2.1,0.6-3.18c-0.25-1.48-1.18-2.771-2.66-2.92
						c4.641-0.551,9.24-1.471,13.721-2.75h0.01l1.41-0.431c1.34-0.399,2.75-0.89,3.87-1.69c0.699-0.5,1.279-1.09,1.689-1.859
						c1.04-2.01-0.43-5.189-2.649-4.77c6.449-2.531,13.27-4.011,19.79-6.341C471.729,180.832,472.77,180.432,473.79,179.992z"/>
				</g>
			</g>
		</g>
	</g>
	<g>
		<path opacity="0.2" d="M424.35,93.492c-6.04,5.37-12.939,9.93-19.899,14.04c-36.41,21.54-77.54,34.44-119.38,40.73
			c-41.831,6.291-84.44,6.1-126.601,2.63c-8.28-0.68-16.7-1.52-24.31-4.86c-6.45-2.84-12.3-7.78-15.04-14.17
			c9.13-10.4,17.62-20.92,27.07-30.85c2.25-2.37,4.549-4.7,6.92-6.99c2-1.91,4.029-3.79,6.14-5.63c2.41-2.12,4.89-4.19,7.489-6.19
			c3.551-2.76,7.291-5.41,11.291-7.94c0.979-0.63,1.949-1.24,2.93-1.84c99.71-61.97,173.1-41.74,222.06,0
			c3.69,3.13,7.25,6.4,10.66,9.78c2.08,2.01,4.09,4.09,6.04,6.19c0.221,0.22,0.42,0.45,0.63,0.69
			C421.72,90.542,423.05,92.012,424.35,93.492z"/>
		<path fill="#FFFFFF" stroke="#263238" stroke-linecap="round" stroke-linejoin="round" stroke-miterlimit="10" d="M428.286,83.548
			L92.82,85.079l5.074-7.603c2.44-3.656,6.544-5.852,10.94-5.852H412.39c3.981,0,7.748,1.803,10.245,4.905L428.286,83.548z"/>
		<g>
			<g>
				<path fill="#757575" stroke="#263238" stroke-linecap="round" stroke-linejoin="round" stroke-miterlimit="10" d="
					M266.4,220.521h-18.382c-18.861,0-34.151-15.291-34.151-34.152v-18.381c0-18.861,15.29-34.151,34.151-34.151h18.381
					c18.862,0,34.152,15.29,34.152,34.151v18.381C300.552,205.23,285.262,220.521,266.4,220.521z"/>
				<path fill="#999999" stroke="#263238" stroke-linecap="round" stroke-linejoin="round" stroke-miterlimit="10" d="
					M229.624,184.499v12.323c0,3.867,3.134,7.002,7,7.002h42.267c3.848,0,6.965-3.105,7.001-6.953
					c0.053-5.544,0.35-12.372,0.35-12.372H229.624z"/>
				<g>
					<g>
						<path fill="#BFBFBF" stroke="#263238" stroke-linecap="round" stroke-linejoin="round" stroke-miterlimit="10" d="
							M384.326,188.617H137.122c-2.61,0-4.954-1.602-5.901-4.033L93.09,86.725c-0.998-2.56,0.891-5.322,3.638-5.322H424.72
							c2.747,0,4.636,2.762,3.639,5.322l-38.131,97.859C389.279,187.016,386.937,188.617,384.326,188.617z"/>
						<polygon fill="#263238" points="386.161,180.088 134.692,180.088 100.089,87.602 420.601,87.602 						"/>
					</g>
				</g>
			</g>
			<rect x="229.894" y="188.483" fill="#263238" width="56.061" height="3.837"/>
			<g>
				<g>
					<path fill="#FFAA71" d="M349.427,176.115H171.852c-0.976,0-1.906-0.442-2.079-0.991l-25.258-80.248
						c-0.284-0.9,0.504-1.633,1.761-1.633h228.726c1.257,0,2.045,0.733,1.762,1.633l-25.259,80.248
						C351.333,175.673,350.402,176.115,349.427,176.115z"/>
					<polygon fill="#263238" points="348.772,174.297 172.506,174.297 151.041,103.787 370.236,103.787 					"/>
					<g>
						<path fill="#FFFFFF" d="M197.806,121.292h-33.369c-0.824,0-1.365,0.445-1.209,0.991c0.154,0.545,0.944,0.986,1.764,0.986
							h33.178c0.818,0,1.404-0.441,1.307-0.986C199.377,121.736,198.63,121.292,197.806,121.292z"/>
						<path fill="#FFFFFF" d="M198.923,127.384h-28.379c-0.811,0-1.35,0.429-1.205,0.957c0.143,0.525,0.91,0.951,1.715,0.951h28.219
							c0.805,0,1.382-0.425,1.287-0.951C200.466,127.813,199.732,127.384,198.923,127.384z"/>
						<path opacity="0.5" fill="#FFFFFF" d="M200.002,133.264h-32.203c-0.796,0-1.321,0.414-1.177,0.923
							c0.145,0.507,0.902,0.918,1.693,0.918h32.023c0.791,0,1.359-0.411,1.268-0.918
							C201.516,133.678,200.797,133.264,200.002,133.264z"/>
						<path fill="#FFFFFF" d="M201.044,138.941h-18.916c-0.781,0-1.316,0.4-1.195,0.892c0.121,0.491,0.848,0.887,1.625,0.887h18.813
							c0.776,0,1.336-0.396,1.248-0.887C202.53,139.341,201.825,138.941,201.044,138.941z"/>
						<path fill="#FFFFFF" d="M202.05,144.427h-31.115c-0.77,0-1.281,0.386-1.146,0.862c0.136,0.474,0.864,0.857,1.629,0.857h30.947
							c0.765,0,1.316-0.383,1.23-0.857C203.51,144.813,202.817,144.427,202.05,144.427z"/>
						<path fill="#FFFFFF" d="M203.022,149.73h-25.127c-0.756,0-1.268,0.374-1.145,0.833c0.123,0.458,0.831,0.829,1.582,0.829
							h24.994c0.752,0,1.295-0.371,1.213-0.829C204.458,150.104,203.778,149.73,203.022,149.73z"/>
						<path fill="#FFFFFF" d="M203.964,154.86h-24.717c-0.743,0-1.249,0.361-1.129,0.807c0.118,0.443,0.813,0.802,1.553,0.802
							h24.588c0.739,0,1.274-0.358,1.195-0.802C205.374,155.222,204.706,154.86,203.964,154.86z"/>
						<path fill="#FFFFFF" d="M204.874,159.826h-26.967c-0.731,0-1.228,0.35-1.108,0.78c0.118,0.43,0.805,0.776,1.532,0.776h26.829
							c0.728,0,1.255-0.347,1.179-0.776C206.261,160.176,205.605,159.826,204.874,159.826z"/>
						<path opacity="0.5" fill="#FFFFFF" d="M205.757,164.634h-17.42c-0.719,0-1.219,0.339-1.116,0.757
							c0.103,0.416,0.765,0.752,1.481,0.752h17.331c0.716,0,1.236-0.336,1.161-0.752
							C207.12,164.973,206.476,164.634,205.757,164.634z"/>
						<path opacity="0.5" fill="#FFFFFF" d="M196.647,114.975h-24.869c-0.84,0-1.4,0.461-1.253,1.028
							c0.146,0.565,0.94,1.022,1.775,1.022h24.722c0.834,0,1.43-0.457,1.328-1.022C198.249,115.436,197.485,114.975,196.647,114.975
							z"/>
						<path fill="#FFFFFF" d="M195.444,108.42h-34.623c-0.855,0-1.412,0.479-1.244,1.067c0.168,0.586,0.992,1.061,1.842,1.061
							h34.416c0.85,0,1.453-0.474,1.349-1.061C197.078,108.899,196.3,108.42,195.444,108.42z"/>
						<path fill="#FFFFFF" d="M206.61,169.292h-28.692c-0.708,0-1.189,0.329-1.073,0.733c0.114,0.403,0.779,0.729,1.484,0.729
							h28.551c0.704,0,1.217-0.326,1.146-0.729C207.952,169.621,207.319,169.292,206.61,169.292z"/>
						<polygon opacity="0.5" fill="#FFFFFF" points="209.526,123.514 216,123.514 215.676,121.043 209.155,121.043 						"/>
						<polygon opacity="0.5" fill="#FFFFFF" points="210.431,129.528 216.789,129.528 216.476,127.144 210.072,127.144 						"/>
						<polygon opacity="0.5" fill="#FFFFFF" points="211.302,135.333 217.55,135.333 217.249,133.032 210.956,133.032 						"/>
						<polygon opacity="0.5" fill="#FFFFFF" points="212.144,140.94 218.286,140.94 217.994,138.717 211.81,138.717 						"/>
						<polygon opacity="0.5" fill="#FFFFFF" points="212.958,146.359 218.997,146.359 218.715,144.21 212.636,144.21 						"/>
						<polygon opacity="0.5" fill="#FFFFFF" points="213.745,151.6 219.685,151.6 219.411,149.521 213.433,149.521 						"/>
						<polygon opacity="0.5" fill="#FFFFFF" points="214.507,156.67 220.349,156.67 220.085,154.658 214.204,154.658 						"/>
						<polygon opacity="0.5" fill="#FFFFFF" points="215.243,161.577 220.993,161.577 220.737,159.629 214.951,159.629 						"/>
						<polygon opacity="0.5" fill="#FFFFFF" points="215.958,166.33 221.616,166.33 221.369,164.443 215.675,164.443 						"/>
						<polygon opacity="0.5" fill="#FFFFFF" points="208.591,117.279 215.183,117.279 214.847,114.717 208.206,114.717 						"/>
						<polygon opacity="0.5" fill="#FFFFFF" points="207.619,110.812 214.334,110.812 213.985,108.153 207.22,108.153 						"/>
						<polygon opacity="0.5" fill="#FFFFFF" points="216.649,170.937 222.221,170.937 221.981,169.108 216.375,169.108 						"/>
						<path fill="#FFFFFF" d="M250.756,160.606c-0.015-0.431,0.567-0.78,1.299-0.78h95.818c0.73,0,1.222,0.35,1.097,0.78
							c-0.125,0.43-0.816,0.776-1.544,0.776h-95.327C251.371,161.383,250.77,161.036,250.756,160.606z"/>
						<path fill="#FFFFFF" d="M348.836,156.469h-53.055c-0.739,0-1.299-0.358-1.25-0.802c0.049-0.445,0.691-0.807,1.435-0.807
							h53.332c0.743,0,1.24,0.361,1.11,0.807C350.279,156.11,349.575,156.469,348.836,156.469z"/>
						<path opacity="0.5" fill="#FFFFFF" d="M283.189,156.469h-16.505c-0.739,0-1.333-0.358-1.326-0.802
							c0.007-0.445,0.615-0.807,1.358-0.807h16.591c0.743,0,1.317,0.361,1.283,0.807
							C284.557,156.11,283.929,156.469,283.189,156.469z"/>
						<path fill="#FFFFFF" d="M317.634,151.393h-74.841c-0.751,0-1.384-0.371-1.411-0.83c-0.029-0.459,0.561-0.833,1.316-0.833
							h75.239c0.755,0,1.298,0.374,1.212,0.833C319.063,151.021,318.386,151.393,317.634,151.393z"/>
						<path opacity="0.5" fill="#FFFFFF" d="M227.145,149.729h5.335c0.755,0,1.399,0.374,1.439,0.833
							c0.039,0.458-0.539,0.83-1.291,0.83h-5.307c-0.751,0-1.401-0.371-1.452-0.83C225.817,150.104,226.39,149.729,227.145,149.729z
							"/>
						<path fill="#FFFFFF" d="M328.459,145.288c-0.101,0.474-0.802,0.857-1.566,0.857h-70.525c-0.764,0-1.39-0.383-1.398-0.857
							c-0.009-0.476,0.607-0.862,1.376-0.862h70.906C328.02,144.426,328.561,144.813,328.459,145.288z"/>
						<path fill="#FFFFFF" d="M226.579,144.426h20.016c0.768,0,1.406,0.386,1.425,0.862c0.019,0.474-0.585,0.857-1.35,0.857h-19.907
							c-0.765,0-1.426-0.383-1.479-0.857C225.231,144.813,225.811,144.426,226.579,144.426z"/>
						<path fill="#FFFFFF" d="M225.994,138.94h76.931c0.781,0,1.361,0.4,1.295,0.892c-0.065,0.49-0.749,0.887-1.526,0.887h-76.51
							c-0.776,0-1.451-0.396-1.505-0.887C224.624,139.34,225.212,138.94,225.994,138.94z"/>
						<path fill="#FFFFFF" d="M275.941,135.104c-0.79,0-1.414-0.411-1.393-0.918c0.021-0.509,0.684-0.923,1.479-0.923h40.595
							c0.795,0,1.367,0.414,1.279,0.923c-0.088,0.507-0.801,0.918-1.592,0.918H275.941z"/>
						<path fill="#FFFFFF" d="M225.389,133.263h35.135c0.795,0,1.438,0.414,1.436,0.923c-0.002,0.507-0.645,0.918-1.435,0.918
							h-34.939c-0.791,0-1.477-0.411-1.533-0.918C223.995,133.677,224.593,133.263,225.389,133.263z"/>
						<path fill="#FFFFFF" d="M356.635,129.291h-96.7c-0.805,0-1.46-0.425-1.464-0.951c-0.003-0.528,0.65-0.957,1.46-0.957h97.252
							c0.809,0,1.34,0.429,1.187,0.957C358.216,128.866,357.439,129.291,356.635,129.291z"/>
						<path fill="#FFFFFF" d="M358.363,123.269h-85.092c-0.819,0-1.469-0.441-1.451-0.986c0.018-0.546,0.7-0.991,1.524-0.991h85.586
							c0.824,0,1.362,0.445,1.203,0.991C359.975,122.828,359.183,123.269,358.363,123.269z"/>
						<path opacity="0.5" fill="#FFFFFF" d="M360.155,117.024h-17.818c-0.834,0-1.405-0.457-1.274-1.021
							c0.131-0.567,0.918-1.028,1.757-1.028h17.924c0.839,0,1.386,0.461,1.22,1.028
							C361.799,116.568,360.989,117.024,360.155,117.024z"/>
						<path fill="#FFFFFF" d="M329.87,117.024h-65.43c-0.835,0-1.508-0.457-1.504-1.021c0.004-0.567,0.687-1.028,1.526-1.028h65.816
							c0.839,0,1.426,0.461,1.31,1.028C331.474,116.568,330.704,117.024,329.87,117.024z"/>
						<path fill="#FFFFFF" d="M228.733,164.634h60.423c0.719,0,1.269,0.339,1.228,0.757c-0.042,0.416-0.655,0.752-1.372,0.752
							h-60.116c-0.717,0-1.334-0.336-1.381-0.752C227.469,164.973,228.015,164.634,228.733,164.634z"/>
						<path fill="#FFFFFF" d="M229.231,169.292h92.834c0.708,0,1.213,0.329,1.127,0.733c-0.086,0.403-0.728,0.729-1.432,0.729
							h-92.374c-0.705,0-1.313-0.326-1.357-0.729C227.984,169.621,228.522,169.292,229.231,169.292z"/>
						<path fill="#FFFFFF" d="M326.624,110.548h-47.261c-0.85,0-1.516-0.474-1.487-1.061c0.028-0.588,0.745-1.067,1.6-1.067h47.546
							c0.854,0,1.456,0.479,1.344,1.067C328.253,110.074,327.474,110.548,326.624,110.548z"/>
						<path opacity="0.5" fill="#FFFFFF" d="M265.956,110.548h-42.99c-0.85,0-1.591-0.474-1.656-1.061
							c-0.064-0.588,0.574-1.067,1.43-1.067h43.249c0.855,0,1.539,0.479,1.527,1.067
							C267.504,110.074,266.807,110.548,265.956,110.548z"/>
						<path opacity="0.5" fill="#FFFFFF" d="M302.563,164.634c0.72,0,1.254,0.339,1.193,0.757c-0.061,0.416-0.689,0.752-1.405,0.752
							h-4.67c-0.716,0-1.257-0.336-1.206-0.752c0.05-0.418,0.674-0.757,1.394-0.757H302.563z"/>
						<path opacity="0.5" fill="#FFFFFF" d="M245.247,160.606c0.021,0.43-0.551,0.776-1.277,0.776h-6.363
							c-0.727,0-1.345-0.347-1.379-0.776c-0.035-0.431,0.529-0.78,1.261-0.78h6.396
							C244.614,159.826,245.226,160.176,245.247,160.606z"/>
						<path opacity="0.5" fill="#FFFFFF" d="M322.003,139.833c-0.093,0.49-0.798,0.887-1.575,0.887h-7.438
							c-0.776,0-1.344-0.396-1.267-0.887c0.077-0.492,0.773-0.892,1.556-0.892h7.479C321.538,138.94,322.096,139.34,322.003,139.833
							z"/>
						<path opacity="0.5" fill="#FFFFFF" d="M345.211,144.426c0.769,0,1.287,0.386,1.159,0.862c-0.128,0.474-0.85,0.857-1.614,0.857
							h-5.929c-0.765,0-1.291-0.383-1.177-0.857c0.115-0.476,0.831-0.862,1.6-0.862H345.211z"/>
						<path opacity="0.5" fill="#FFFFFF" d="M248.222,129.291c-0.805,0-1.476-0.425-1.497-0.951
							c-0.022-0.528,0.616-0.957,1.426-0.957h6.312c0.81,0,1.472,0.429,1.479,0.957c0.007,0.525-0.64,0.951-1.444,0.951H248.222z"/>
					</g>
				</g>
				<g>
					<path fill="#FFFFFF" d="M162.282,98.5c0.489,1.638-0.456,2.95-2.105,2.95c-1.648,0-3.408-1.313-3.937-2.95
						c-0.535-1.66,0.395-3.021,2.083-3.021C160.011,95.479,161.786,96.841,162.282,98.5z"/>
					<path fill="#FFFFFF" d="M170.421,98.549c0.437,1.637-0.551,2.949-2.199,2.949s-3.366-1.312-3.842-2.949
						c-0.481-1.659,0.492-3.02,2.18-3.02C168.248,95.529,169.979,96.89,170.421,98.549z"/>
					<path fill="#FFFFFF" d="M178.654,98.5c0.383,1.638-0.647,2.95-2.296,2.95c-1.649,0-3.324-1.313-3.746-2.95
						c-0.428-1.66,0.59-3.021,2.278-3.021S178.267,96.841,178.654,98.5z"/>
				</g>
			</g>
			<g>
				<polygon opacity="0.1" fill="#FFFFFF" points="100.089,87.602 127.038,159.629 159.548,87.602 				"/>
				<polygon opacity="0.1" fill="#FFFFFF" points="145.557,180.088 199.485,87.602 255.941,87.602 176.571,180.088 				"/>
				<polygon opacity="0.1" fill="#FFFFFF" points="280.27,87.147 196.214,180.088 209.155,180.088 296.229,87.602 				"/>
				<polygon opacity="0.1" fill="#FFFFFF" points="296.866,180.088 389.25,87.602 402.286,87.602 307.038,180.088 				"/>
			</g>
		</g>
	</g>
	<g>
		<g>
			<g>
				<g>
					<path fill="#FFFFFF" stroke="#263238" stroke-linecap="round" stroke-linejoin="round" stroke-miterlimit="10" d="
						M171.612,220.229h-21.097c-2.739,0-4.959,2.221-4.959,4.959v10.265c0,2.738,2.22,4.959,4.959,4.959h5.515l4.178,9.47
						l5.891-9.47h5.514c2.738,0,4.959-2.221,4.959-4.959v-10.265C176.571,222.449,174.351,220.229,171.612,220.229z"/>
				</g>
			</g>
			<g>
				<path fill="#263238" d="M158.132,226.1c0-0.539,0.438-0.963,1.027-0.963c0.592,0,1.028,0.397,1.028,0.924
					c0,0.566-0.424,1.003-1.028,1.003C158.569,227.063,158.132,226.639,158.132,226.1z M158.351,228.193h1.605v6.861h-1.605V228.193
					z"/>
				<path fill="#263238" d="M163.835,227.834v0.411h1.889v1.285h-1.838v5.524h-1.605v-5.524h-1.131v-1.285h1.131v-0.437
					c0-1.439,0.86-2.377,2.453-2.377c0.553,0,1.092,0.115,1.452,0.373l-0.45,1.207c-0.244-0.167-0.552-0.282-0.887-0.282
					C164.181,226.729,163.835,227.102,163.835,227.834z"/>
			</g>
		</g>
		<g>
			<g>
				<g>
					<path fill="#FFFFFF" stroke="#263238" stroke-linecap="round" stroke-linejoin="round" stroke-miterlimit="10" d="
						M235.828,221.666h-21.097c-2.738,0-4.959,2.221-4.959,4.959v10.264c0,2.739,2.221,4.959,4.959,4.959h5.515l4.179,9.471
						l5.89-9.471h5.514c2.739,0,4.96-2.22,4.96-4.959v-10.264C240.788,223.887,238.567,221.666,235.828,221.666z"/>
				</g>
			</g>
			<g>
				<path fill="#263238" d="M219.166,233.576h-5.384c0.193,1.002,1.028,1.645,2.223,1.645c0.771,0,1.375-0.244,1.863-0.746
					l0.861,0.99c-0.617,0.731-1.58,1.117-2.763,1.117c-2.3,0-3.79-1.478-3.79-3.521c0-2.042,1.503-3.507,3.546-3.507
					c2.005,0,3.469,1.4,3.469,3.546C219.191,233.229,219.179,233.422,219.166,233.576z M213.771,232.51h3.893
					c-0.129-0.99-0.887-1.671-1.94-1.671C214.683,230.839,213.924,231.508,213.771,232.51z"/>
				<path fill="#263238" d="M220.729,226.959h1.605v9.533h-1.605V226.959z"/>
				<path fill="#263238" d="M223.655,235.812l0.617-1.221c0.604,0.398,1.529,0.681,2.39,0.681c1.015,0,1.438-0.282,1.438-0.758
					c0-1.311-4.239-0.077-4.239-2.814c0-1.297,1.169-2.145,3.019-2.145c0.912,0,1.953,0.219,2.57,0.591l-0.617,1.22
					c-0.654-0.385-1.311-0.514-1.965-0.514c-0.977,0-1.439,0.322-1.439,0.771c0,1.388,4.24,0.154,4.24,2.839
					c0,1.285-1.183,2.12-3.109,2.12C225.415,236.582,224.272,236.248,223.655,235.812z"/>
				<path fill="#263238" d="M237.477,233.576h-5.384c0.193,1.002,1.028,1.645,2.223,1.645c0.771,0,1.375-0.244,1.863-0.746
					l0.861,0.99c-0.617,0.731-1.58,1.117-2.763,1.117c-2.3,0-3.79-1.478-3.79-3.521c0-2.042,1.503-3.507,3.546-3.507
					c2.005,0,3.469,1.4,3.469,3.546C237.502,233.229,237.489,233.422,237.477,233.576z M232.081,232.51h3.893
					c-0.129-0.99-0.887-1.671-1.94-1.671C232.993,230.839,232.234,231.508,232.081,232.51z"/>
			</g>
		</g>
		<g>
			<g>
				<g>
					<path fill="#FFFFFF" stroke="#263238" stroke-linecap="round" stroke-linejoin="round" stroke-miterlimit="10" d="
						M298.088,221.057h-21.097c-2.738,0-4.959,2.221-4.959,4.959v10.265c0,2.738,2.221,4.959,4.959,4.959h5.515l4.178,9.47
						l5.891-9.47h5.514c2.739,0,4.959-2.221,4.959-4.959v-10.265C303.047,223.277,300.827,221.057,298.088,221.057z"/>
				</g>
			</g>
			<g>
				<path fill="#263238" d="M281.83,228.663v0.411h1.889v1.285h-1.837v5.524h-1.606v-5.524h-1.13v-1.285h1.13v-0.437
					c0-1.438,0.861-2.377,2.454-2.377c0.553,0,1.093,0.116,1.452,0.372l-0.45,1.208c-0.243-0.167-0.552-0.282-0.886-0.282
					C282.178,227.559,281.83,227.932,281.83,228.663z"/>
				<path fill="#263238" d="M284.128,232.453c0-2.055,1.542-3.508,3.648-3.508c2.133,0,3.662,1.453,3.662,3.508
					c0,2.056-1.529,3.521-3.662,3.521C285.67,235.974,284.128,234.509,284.128,232.453z M289.819,232.453
					c0-1.311-0.873-2.146-2.043-2.146c-1.156,0-2.029,0.835-2.029,2.146s0.873,2.146,2.029,2.146
					C288.946,234.599,289.819,233.764,289.819,232.453z"/>
				<path fill="#263238" d="M296.944,228.945v1.529c-0.142-0.025-0.257-0.038-0.372-0.038c-1.221,0-1.992,0.72-1.992,2.12v3.327
					h-1.605v-6.86h1.528v1.002C294.966,229.306,295.801,228.945,296.944,228.945z"/>
			</g>
		</g>
		<g>
			<g>
				<g>
					<path fill="#FFFFFF" stroke="#263238" stroke-linecap="round" stroke-linejoin="round" stroke-miterlimit="10" d="
						M359.448,220.229h-21.097c-2.739,0-4.959,2.221-4.959,4.959v10.265c0,2.738,2.22,4.959,4.959,4.959h5.514l4.179,9.47l5.89-9.47
						h5.515c2.738,0,4.959-2.221,4.959-4.959v-10.265C364.407,222.449,362.187,220.229,359.448,220.229z"/>
				</g>
			</g>
			<g>
				<path fill="#263238" d="M346.159,227.855h5.923v1.285h-5.923V227.855z M346.159,230.965h5.923v1.285h-5.923V230.965z"/>
			</g>
		</g>
		<g>
			<g>
				<g>
					<path fill="#FFFFFF" stroke="#263238" stroke-linecap="round" stroke-linejoin="round" stroke-miterlimit="10" d="
						M203.769,208.351h-21.097c-2.739,0-4.958,2.22-4.958,4.958v10.265c0,2.739,2.219,4.959,4.958,4.959h5.515l4.178,9.47
						l5.891-9.47h5.514c2.738,0,4.959-2.22,4.959-4.959v-10.265C208.728,210.57,206.507,208.351,203.769,208.351z"/>
				</g>
			</g>
			<g>
				<path fill="#263238" d="M188.257,212.616h3.071v1.284h-1.465v9.457h1.465v1.285h-3.071V212.616z"/>
				<path fill="#263238" d="M195.306,224.643v-1.285h1.453V213.9h-1.453v-1.284h3.059v12.026H195.306z"/>
			</g>
		</g>
		<g>
			<g>
				<g>
					<path fill="#FFFFFF" stroke="#263238" stroke-linecap="round" stroke-linejoin="round" stroke-miterlimit="10" d="
						M266.489,207.301h-21.096c-2.739,0-4.959,2.221-4.959,4.959v10.264c0,2.739,2.22,4.959,4.959,4.959h5.514l4.178,9.471
						l5.891-9.471h5.514c2.739,0,4.959-2.22,4.959-4.959V212.26C271.448,209.521,269.229,207.301,266.489,207.301z"/>
				</g>
			</g>
			<g>
				<path fill="#263238" d="M251.647,217.537c0.514,0.167,0.758,0.514,0.758,1.311v2.441c0,0.617,0.309,0.977,0.951,0.977h0.27
					v1.285h-0.643c-1.451,0-2.184-0.732-2.184-2.095v-2.647c0-0.424-0.219-0.616-0.578-0.616h-0.424v-1.311h0.424
					c0.359,0,0.578-0.192,0.578-0.616v-2.646c0-1.362,0.732-2.095,2.184-2.095h0.643v1.284h-0.27c-0.643,0-0.951,0.36-0.951,0.977
					v2.441C252.405,217.023,252.161,217.37,251.647,217.537z"/>
				<path fill="#263238" d="M261.445,216.882v1.311h-0.437c-0.347,0-0.565,0.192-0.565,0.616v2.647c0,1.362-0.745,2.095-2.197,2.095
					h-0.642v-1.285h0.27c0.655,0,0.964-0.359,0.964-0.977v-2.441c0-0.797,0.23-1.144,0.745-1.311
					c-0.515-0.167-0.745-0.514-0.745-1.311v-2.441c0-0.616-0.309-0.977-0.964-0.977h-0.27v-1.284h0.642
					c1.452,0,2.197,0.732,2.197,2.095v2.646c0,0.424,0.219,0.616,0.565,0.616H261.445z"/>
			</g>
		</g>
		<g>
			<g>
				<g>
					<path fill="#FFFFFF" stroke="#263238" stroke-linecap="round" stroke-linejoin="round" stroke-miterlimit="10" d="
						M328.545,205.221h-21.096c-2.739,0-4.959,2.221-4.959,4.959v10.264c0,2.739,2.22,4.959,4.959,4.959h5.514l4.178,9.471
						l5.891-9.471h5.514c2.739,0,4.959-2.22,4.959-4.959V210.18C333.504,207.441,331.284,205.221,328.545,205.221z"/>
				</g>
			</g>
			<g>
				<path fill="#263238" d="M317.158,212.818c0-0.643,0.476-1.066,1.054-1.066s1.054,0.424,1.054,1.066
					c0,0.616-0.476,1.066-1.054,1.066S317.158,213.435,317.158,212.818z M319.266,217.713c0,0.283-0.064,0.514-0.296,1.105
					l-0.655,1.811h-1.04l0.514-1.965c-0.359-0.154-0.604-0.488-0.604-0.951c0-0.643,0.449-1.066,1.04-1.066
					C318.829,216.646,319.266,217.084,319.266,217.713z"/>
			</g>
		</g>
		<g>
			<g>
				<g>
					<path fill="#FFFFFF" stroke="#263238" stroke-linecap="round" stroke-linejoin="round" stroke-miterlimit="10" d="
						M246.066,384.662h21.097c2.738,0,4.959-2.221,4.959-4.959v-10.264c0-2.74-2.221-4.959-4.959-4.959h-5.515l-1.609-9.471
						l-8.459,9.471h-5.514c-2.739,0-4.959,2.219-4.959,4.959v10.264C241.107,382.441,243.327,384.662,246.066,384.662z"/>
				</g>
			</g>
			<g>
				<path fill="#263238" d="M253.482,372.461l-4.433,1.658l4.433,1.656v1.338l-5.923-2.301v-1.387l5.923-2.301V372.461z"/>
				<path fill="#263238" d="M258.155,367.797h1.438l-4.239,12.104h-1.439L258.155,367.797z"/>
				<path fill="#263238" d="M265.822,373.426v1.387l-5.923,2.301v-1.338l4.433-1.656l-4.433-1.658v-1.336L265.822,373.426z"/>
			</g>
		</g>
		<g>
			<g>
				<g>
					<g>
						<path fill="#FFFFFF" stroke="#263238" stroke-linecap="round" stroke-linejoin="round" stroke-miterlimit="10" d="
							M111.947,309.916h21.096c2.739,0,4.959-2.219,4.959-4.959v-10.264c0-2.738-2.22-4.959-4.959-4.959h-5.514l1.201-9.469
							l-11.27,9.469h-5.514c-2.739,0-4.959,2.221-4.959,4.959v10.264C106.988,307.697,109.208,309.916,111.947,309.916z"/>
					</g>
				</g>
			</g>
			<g>
				<path fill="#263238" d="M118.201,303.408c0-0.553,0.437-0.99,1.041-0.99c0.591,0,1.015,0.438,1.015,0.99
					s-0.424,1.002-1.015,1.002C118.638,304.41,118.201,303.961,118.201,303.408z M118.291,295.326h1.901l-0.321,6.014h-1.272
					L118.291,295.326z"/>
				<path fill="#263238" d="M121.848,297.627h5.923v1.283h-5.923V297.627z M121.848,300.734h5.923v1.285h-5.923V300.734z"/>
			</g>
		</g>
	</g>
	<g>
		<g>
			<g>
				<g>
					<defs>
						<path id="XMLID_4_" d="M449.742,298.279c0,4.121-0.342,8.111-0.974,11.867c-2.899,17.303-11.995,29.93-22.76,29.93
							c-0.963,0-1.926-0.107-2.857-0.301c-11.749-2.492-20.865-20.115-20.865-41.496c0-23.08,10.625-31.244,23.723-31.244
							C439.117,267.035,449.742,275.199,449.742,298.279z"/>
					</defs>
					<use xlink:href="#XMLID_4_"  overflow="visible" fill="#FFFFFF"/>
					<clipPath id="XMLID_8_">
						<use xlink:href="#XMLID_4_"  overflow="visible"/>
					</clipPath>
					<g clip-path="url(#XMLID_8_)">
						<path fill="#F9BD95" d="M441.142,298.543c0.883,12.377-1.245,24.82-4.812,36.705c8.938-7.334,13.051-18.875,16.767-29.824
							c2.698-7.953,5.433-16.15,4.946-24.533s-4.979-17.104-12.846-20.041c-3.844-1.438-8.318-1.33-12.123,0.195
							c-6.592,2.645-2.982,4.793-0.216,9.525C437.813,279.045,440.445,288.787,441.142,298.543z"/>
						<path opacity="0.5" fill="#FFFFFF" d="M441.142,298.543c0.883,12.377-1.245,24.82-4.812,36.705
							c8.938-7.334,13.051-18.875,16.767-29.824c2.698-7.953,5.433-16.15,4.946-24.533s-4.979-17.104-12.846-20.041
							c-3.844-1.438-8.318-1.33-12.123,0.195c-6.592,2.645-2.982,4.793-0.216,9.525
							C437.813,279.045,440.445,288.787,441.142,298.543z"/>
					</g>
					<use xlink:href="#XMLID_4_"  overflow="visible" fill="none" stroke="#263238" stroke-miterlimit="10"/>
				</g>
				<g>
					<path fill="#FFFFFF" stroke="#263238" stroke-miterlimit="10" d="M438.757,319.516c-1.585,5.326-4.214,10.338-7.782,14.6"/>
					<path fill="none" stroke="#263238" stroke-miterlimit="10" d="M439.512,316.607c-0.125,0.564-0.263,1.127-0.411,1.686"/>
					<path fill="#FFFFFF" stroke="#263238" stroke-miterlimit="10" d="M439.451,298.225c1.265,5.324,1.39,10.891,0.473,16.283"/>
				</g>
				<path fill="none" stroke="#263238" stroke-miterlimit="10" d="M402.284,298.281c0,0,26.969-10.662,47.453,0"/>
				<path fill="#FFFFFF" stroke="#263238" stroke-miterlimit="10" d="M426.011,267.035c0,0,2.701,10.002,3.013,26.264"/>
				<path fill="#BFBFBF" stroke="#263238" stroke-linecap="round" stroke-linejoin="round" stroke-miterlimit="10" d="
					M429.775,279.199c0.346,3.109-0.192,5.758-1.203,5.918c-1.01,0.16-2.11-2.23-2.456-5.338c-0.347-3.109,0.191-5.758,1.202-5.918
					C428.328,273.701,429.429,276.092,429.775,279.199z"/>
			</g>
		</g>
		<path fill="none" stroke="#263238" stroke-miterlimit="10" d="M415.37,348.072h-31.62c-3.94,0-7.18-2.92-7.69-6.709
			c-0.069-0.34-0.09-0.701-0.09-1.07v-74.59c0-0.361,0.021-0.721,0.09-1.08c0.511-3.791,3.75-6.701,7.69-6.701h89.72
			c1.36,0,2.63,0.352,3.73,0.961"/>
	</g>
</g>
</svg>
